<?xml version="1.0" standalone="no"?>
<!DOCTYPE svg PUBLIC "-//W3C//DTD SVG 1.1//EN" "http://www.w3.org/Graphics/SVG/1.1/DTD/svg11.dtd" >
<svg>
<metadata>
Created by FontForge 20090914 at Sun Jan 30 04:32:07 2022
 By www-data
</metadata>
<defs>
<font id="PillGothic300mg-Regular" horiz-adv-x="476" >
  <font-face 
    font-family="Pill Gothic 300mg Rg"
    font-weight="400"
    font-stretch="normal"
    units-per-em="1000"
    panose-1="2 0 5 3 3 0 0 2 0 4"
    ascent="800"
    descent="-200"
    x-height="490"
    cap-height="680"
    bbox="-43.999 -261 843.002 927.002"
    underline-thickness="50"
    underline-position="-50"
    unicode-range="U+0020-U+FB04"
  />
<missing-glyph horiz-adv-x="218" 
 />
    <glyph glyph-name="germandbls" unicode="ss" horiz-adv-x="547" 
d="M47 490l44.002 -0.000976562v108c0 44 11.167 79 33.5 105s56.166 39 101.499 39c15.333 0 32 -2.83301 50 -8.5s34 -12.167 48 -19.5l-29 -59l-30.5 11.5c-11.667 4.33301 -22.167 6.5 -31.5 6.5c-28 0 -46.833 -8.33301 -56.5 -25s-14.5 -38.667 -14.5 -66v-92h316v-51
l-100 -145h18c32 -3.33301 56.333 -13.5 73 -30.5s25 -43.833 25 -80.5v-82c0 -18 -3.5 -33.833 -10.5 -47.5s-16.333 -25 -28 -34s-25.167 -15.833 -40.5 -20.5s-31.333 -7 -48 -7c-28 0 -54 6.16699 -78 18.5s-42.333 31.833 -55 58.5l50 39
c6 -15.333 16.667 -28.333 32 -39s30.666 -16 45.999 -16c17.333 0 31.5 4.33301 42.5 13s16.5 23.334 16.5 44.001v63c0 21.333 -3.66699 37.333 -11 48s-21 16 -41 16h-77v53l99 141h-227v-431h-73v431h-44v59z" />
    <glyph glyph-name="arrowleft" unicode="&#x3c;&#x2d;" horiz-adv-x="400" 
d="M231 414l-98 -128h220v-67h-220l95 -119l-35 -31l-146 183l150 194z" />
    <glyph glyph-name="arrowright" unicode="&#x2d;&#x3e;" horiz-adv-x="414" 
d="M209 457l159 -204l-149 -200l-44 38l95 128h-223v68h223l-103 132z" />
    <glyph glyph-name="smiley" unicode="&#x28;&#x3a;" horiz-adv-x="736" 
d="M32 350c0 50.667 8.16504 97.999 24.498 141.999s39.333 82.333 69 115s65.334 58.334 107.001 77.001s87.834 28 138.501 28c50 0 95.667 -9.5 137 -28.5s76.833 -44.833 106.5 -77.5s52.667 -71 69 -115s24.5 -91 24.5 -141s-8.16699 -97 -24.5 -141
s-39.333 -82.167 -69 -114.5s-65.167 -57.833 -106.5 -76.5s-87 -28 -137 -28s-95.833 9.5 -137.5 28.5s-77.5 44.667 -107.5 77s-53.167 70.333 -69.5 114s-24.5 90.5 -24.5 140.5zM88.998 349.999c0 -42 6.83398 -81.667 20.501 -119s32.834 -70 57.501 -98
s54.5 -50.167 89.5 -66.5s73.5 -24.5 115.5 -24.5s80 8.16699 114 24.5s63.333 38.5 88 66.5s43.667 60.667 57 98s20 77 20 119s-6.66699 81.667 -20 119s-32.333 70 -57 98s-54.167 50.167 -88.5 66.5s-72.5 24.5 -114.5 24.5s-80.333 -8.16699 -115 -24.5
s-64.334 -38.5 -89.001 -66.5s-43.834 -60.667 -57.501 -98s-20.5 -77 -20.5 -119zM566.999 293.999c-12.667 -40 -33 -72.335 -61 -97.002s-62.333 -37 -103 -37h-65c-39.333 0 -72.833 12.667 -100.5 38s-48.167 57 -61.5 95l53 23c9.33301 -28 23 -51.833 41 -71.5
s40.667 -29.5 68 -29.5h65c14 0 27 2.83301 39 8.5s22.833 13.334 32.5 23.001s18.167 20.834 25.5 33.501s13.333 25.667 18 39zM233.999 511.997h83v-119h-83v119zM425.999 511.997h83v-119h-83v119z" />
    <glyph glyph-name="f_j" unicode="fj" horiz-adv-x="517" 
d="M267 728c25.333 0 53.167 -5.16895 83.5 -15.502s58.5 -23.166 84.5 -38.499l-26 -67c-54.667 34 -101 51 -139 51c-29.333 0 -49.5 -6.5 -60.5 -19.5s-16.5 -31.833 -16.5 -56.5v-92h87v-60h-88v-430h-75v430h-77v60h78v95c0 51.333 13.333 87.833 40 109.5
s63 32.834 109 33.501zM347.001 489.998l74 0.00292969v-461c0 -40.667 -4 -75.334 -12 -104.001s-19.5 -52.834 -34.5 -72.501s-33.5 -36 -55.5 -49s-47 -23.833 -75 -32.5l-23 54c22 11.333 41 22.833 57 34.5s29 25.167 39 40.5s17.333 33.666 22 54.999s7 47.333 7 78z
" />
    <glyph glyph-name="ff" unicode="ff" horiz-adv-x="507" 
d="M220 729c25.333 0 49.999 -4.33301 73.999 -13s46.667 -19.667 68 -33c14 17.333 30 30 48 38s37.333 12 58 12c14.667 0 30.5 -2.83301 47.5 -8.5s31.167 -11.5 42.5 -17.5l-25 -59c-10.667 6.66699 -21.334 11.834 -32.001 15.501s-21 5.5 -31 5.5
c-13.333 0 -24.166 -2.5 -32.499 -7.5s-14.833 -11.667 -19.5 -20s-7.83398 -18 -9.50098 -29s-2.5 -22.5 -2.5 -34.5v-89h94v-59h-94v-430h-73v430h-79v59h79v91v22.5c0 6.33301 1 13.166 3 20.499c-17.333 13.333 -36.166 22.833 -56.499 28.5s-38.166 8.5 -53.499 8.5
c-26.667 0 -45.167 -8 -55.5 -24s-15.5 -35.333 -15.5 -58v-88h75v-59h-75v-431h-74v431h-82v59h82v90c0 49.333 12.167 86.5 36.5 111.5s58.5 37.5 102.5 37.5z" />
    <glyph glyph-name="fi" unicode="fi" horiz-adv-x="498" 
d="M246 743c19.333 0 38.498 -2.66895 57.498 -8.00195s36.667 -11.666 53 -18.999s30.5 -14.666 42.5 -21.999s21 -13.333 27 -18l-36 -62c-6 3.33301 -13.833 8.33301 -23.5 15s-20.667 13.5 -33 20.5s-25.833 13 -40.5 18s-30 7.5 -46 7.5
c-25.333 0 -43.333 -6.33301 -54 -19s-16 -30 -16 -52v-114h88v-59h-89v-431h-74v431h-81v59h81v120c0 23.333 3.66699 43.333 11 60s17.333 30.5 30 41.5s27.834 19 45.501 24s36.834 7.5 57.501 7.5zM341.998 489.998h75v-490h-75v490z" />
    <glyph glyph-name="fl" unicode="fl" horiz-adv-x="550" 
d="M250 743c12 0 26.498 -1 43.498 -3s34.167 -4.83301 51.5 -8.5s33.833 -7.83398 49.5 -12.501s28.167 -9.66699 37.5 -15h28v-704h-75v650c-8 4 -18.167 7.5 -30.5 10.5s-25.166 5.5 -38.499 7.5s-26 3.5 -38 4.5s-21.333 1.5 -28 1.5
c-25.333 0 -43.833 -6.16699 -55.5 -18.5s-17.5 -29.166 -17.5 -50.499v-115h91v-60h-91v-430h-75v430h-81v60h82v116c0 47.333 13.833 82 41.5 104s62.834 33 105.501 33z" />
    <glyph glyph-name="wink" unicode="&#x28;&#x3b;" horiz-adv-x="736" 
d="M32 351c0 50 8.16504 97.001 24.498 141.001s39.333 82.167 69 114.5s65.334 57.833 107.001 76.5s87.834 28 138.501 28c50 0 95.667 -9.5 137 -28.5s76.833 -44.667 106.5 -77s52.667 -70.333 69 -114s24.5 -90.5 24.5 -140.5s-8.16699 -97 -24.5 -141
s-39.333 -82.333 -69 -115s-65.167 -58.334 -106.5 -77.001s-87 -28 -137 -28s-95.833 9.5 -137.5 28.5s-77.5 44.667 -107.5 77s-53.167 70.5 -69.5 114.5s-24.5 91 -24.5 141zM88.998 351.001c0 -42 6.83398 -81.8311 20.501 -119.498s32.834 -70.5 57.501 -98.5
s54.5 -50.167 89.5 -66.5s73.5 -24.5 115.5 -24.5s80 8.16699 114 24.5s63.333 38.666 88 66.999s43.667 61.166 57 98.499s20 77 20 119s-6.66699 81.667 -20 119s-32.333 69.833 -57 97.5s-54.167 49.5 -88.5 65.5s-72.5 24 -114.5 24s-80.333 -8.16699 -115 -24.5
s-64.334 -38.333 -89.001 -66s-43.834 -60 -57.501 -97s-20.5 -76.5 -20.5 -118.5zM563.999 280.003c-12.667 -40 -33 -72.502 -61 -97.502s-62.667 -37.5 -104 -37.5h-64c-38 0 -71.167 12.833 -99.5 38.5s-48.833 57.5 -61.5 95.5l53 23c8.66699 -28 22.167 -52 40.5 -72
s40.833 -30 67.5 -30h64c14 0 27.167 2.83301 39.5 8.5s23.333 13.334 33 23.001s18.167 20.834 25.5 33.501s13.333 25.667 18 39zM220.999 500.001h94v-108h-94v108zM394.999 421.001v49h170v-49h-170z" />
    <glyph glyph-name="T_h" unicode="Th" horiz-adv-x="868" 
d="M12 610v70h460v-70h-207v-610h-76v610h-177zM682 501c51.333 0 87.665 -14 108.998 -42s32 -67.667 32 -119v-340h-76v340c0 29.333 -6.16699 51.833 -18.5 67.5s-33.5 23.5 -63.5 23.5c-15.333 0 -30.166 -3.83301 -44.499 -11.5s-26.833 -17.834 -37.5 -30.501
s-19.167 -26.667 -25.5 -42s-9.5 -30.666 -9.5 -45.999v-301h-76v680h76v-259c13.333 22 32.333 40.833 57 56.5s50.334 23.5 77.001 23.5z" />
    <glyph glyph-name=".notdef" horiz-adv-x="218" 
 />
    <glyph glyph-name="space" unicode=" " horiz-adv-x="218" 
 />
    <glyph glyph-name="exclam" unicode="!" horiz-adv-x="236" 
d="M162 237h-68l-7 443h82zM82 108h93v-108h-93v108z" />
    <glyph glyph-name="quotedbl" unicode="&#x22;" horiz-adv-x="279" 
d="M56 679h62l-4 -221h-55zM163 679h61l-3 -221h-55z" />
    <glyph glyph-name="numbersign" unicode="#" horiz-adv-x="575" 
d="M364 460l26 165h54l-23 -165h107v-52h-115l-31 -204h119v-53h-127l-21 -151h-57l20 151h-92l-21 -151h-56l20 151h-120v53h129l31 204h-133v52h141l24 165h58l-25 -165h92zM325 204l31 204h-93l-31 -204h93z" />
    <glyph glyph-name="dollar" unicode="$" horiz-adv-x="463" 
d="M415 291l-0.00195312 -118.001c0 -48.667 -13.167 -88.667 -39.5 -120s-61.5 -49.666 -105.5 -54.999v-123h-66v124c-38 2.66699 -70.667 14.5 -98 35.5s-46.666 48.833 -57.999 83.5l56 38c7.33301 -17.333 15.166 -31.666 23.499 -42.999s17.833 -20.333 28.5 -27
s22.334 -11.334 35.001 -14.001s27.334 -4 44.001 -4c36 0 62.333 9.5 79 28.5s25 46.167 25 81.5v67l-274 163v101c0 30 3.83301 55.167 11.5 75.5s18.167 37.166 31.5 50.499s29 23.5 47 30.5s37.333 11.833 58 14.5v109h65v-111c34 -3.33301 62.667 -14.666 86 -33.999
s40.666 -43.666 51.999 -72.999l-54 -42c-15.333 31.333 -32.166 52.666 -50.499 63.999s-40.166 17 -65.499 17c-13.333 0 -26.333 -1.16699 -39 -3.5s-23.834 -7.16602 -33.501 -14.499s-17.5 -17.833 -23.5 -31.5s-9 -31.834 -9 -54.501v-52z" />
    <glyph glyph-name="percent" unicode="%" horiz-adv-x="617" 
d="M290 490c0 -37.333 -10.333 -63.5 -31 -78.5s-47.667 -22.5 -81 -22.5c-36 0 -64 8.83301 -84 26.5s-30 42.5 -30 74.5v98c0 36 11 62 33 78s49 24 81 24c36 0 63.667 -9 83 -27s29 -43 29 -75v-98zM553 92c0 -37.333 -10.5 -63.668 -31.5 -79.001s-48.167 -23 -81.5 -23
c-36.667 0 -65 9 -85 27s-30 43.333 -30 76v95c0 36 11.167 62.5 33.5 79.5s49.5 25.5 81.5 25.5c36.667 0 64.667 -9.66699 84 -29s29 -44.666 29 -75.999v-96zM131 498.998c0 -16 4.5 -27.8301 13.5 -35.4971s20.167 -11.5 33.5 -11.5c16 0 27.667 4.16699 35 12.5
s11 19.166 11 32.499v85c0 15.333 -4.5 26.666 -13.5 33.999s-19.833 11 -32.5 11c-15.333 0 -27 -4.33301 -35 -13s-12 -19.334 -12 -32.001v-83zM394 100.001c0 -16 4.33301 -27.832 13 -35.499s19.667 -11.5 33 -11.5c16 0 27.667 4.16699 35 12.5s11 19.166 11 32.499
v85c0 15.333 -4.5 27 -13.5 35s-19.833 12 -32.5 12c-15.333 0 -26.833 -4.66699 -34.5 -14s-11.5 -20.333 -11.5 -33v-83zM71 0.00195312l366 680h69l-362 -680h-73z" />
    <glyph glyph-name="ampersand" unicode="&#x26;" horiz-adv-x="586" 
d="M547 289l-95 -126.001l100 -128l-55 -49l-89 115c-25.333 -34 -52.5 -60.5 -81.5 -79.5s-61.833 -28.5 -98.5 -28.5c-26 0 -50.167 3.5 -72.5 10.5s-41.5 17.5 -57.5 31.5s-28.5 31.833 -37.5 53.5s-13.5 46.834 -13.5 75.501c0 20 4.16699 39.833 12.5 59.5
s19.333 39 33 58s28.834 37.667 45.501 56l50 53.5l-72 93v86c0 40 11.667 70 35 90s53 30 89 30c43.333 0 75.666 -12 96.999 -36s32 -57.667 32 -101c0 -18.667 -2.33301 -35.667 -7 -51s-10.667 -29.5 -18 -42.5s-16 -25.5 -26 -37.5l-32 -38l120 -166l88 114z
M228 64.999c14 0 27.499 2.83398 40.499 8.50098s25.167 13.167 36.5 22.5s21.833 19.666 31.5 30.999s18.167 22.666 25.5 33.999l-128 177c-14 -12.667 -27.5 -26.667 -40.5 -42s-24.5 -30.666 -34.5 -45.999s-18 -30.333 -24 -45s-9 -28 -9 -40
c0 -34.667 8.83301 -60 26.5 -76s42.834 -24 75.501 -24zM188.999 504l52.001 -71c18.667 18.667 32.834 37 42.501 55s14.5 38.667 14.5 62c0 28 -4.5 47.333 -13.5 58s-23.167 16 -42.5 16c-12 0 -21.333 -1.83301 -28 -5.5s-11.834 -8.33398 -15.501 -14.001
s-5.83398 -11.667 -6.50098 -18s-1 -12.166 -1 -17.499z" />
    <glyph glyph-name="quotesingle" unicode="'" horiz-adv-x="220" 
d="M73 700h74l-6 -231h-62z" />
    <glyph glyph-name="parenleft" unicode="(" horiz-adv-x="317" 
d="M84 436c0 35.333 3.00098 69.3311 9.00098 101.998s15 63.167 27 91.5s27.167 53.833 45.5 76.5s39.833 41.334 64.5 56.001l27 -40c-30.667 -19.333 -56.334 -53.333 -77.001 -102s-31 -110 -31 -184v-333c0 -67.333 9.5 -125.166 28.5 -173.499
s45.5 -85.166 79.5 -110.499l-27 -41c-44.667 28.667 -80.167 70.667 -106.5 126s-39.5 121.666 -39.5 198.999v333z" />
    <glyph glyph-name="parenright" unicode=")" horiz-adv-x="328" 
d="M233 110c0 -78 -13.165 -145.502 -39.498 -202.502s-61.833 -99.833 -106.5 -128.5l-27 37c34 24.667 60.333 62.334 79 113.001s28 111 28 181v321c0 74 -10.333 136.833 -31 188.5s-46.334 86.834 -77.001 105.501l28 37c25.333 -14.667 47.166 -33.667 65.499 -57
s33.5 -49.5 45.5 -78.5s20.833 -60 26.5 -93s8.5 -67.167 8.5 -102.5v-321z" />
    <glyph glyph-name="asterisk" unicode="*" horiz-adv-x="367" 
d="M303 632l17 -52l-95 -33l62 -89l-45 -31l-58 84l-58 -84l-46 31l62 89l-95 33l18 53l91 -35v104h56v-104z" />
    <glyph glyph-name="plus" unicode="+" horiz-adv-x="486" 
d="M281 425h175v-70h-175v-219h-77v219h-174v70h174v201h77v-201z" />
    <glyph glyph-name="comma" unicode="," horiz-adv-x="187" 
d="M127 83l-0.00195312 -26c0 -24.667 -1.83301 -46.5 -5.5 -65.5s-8.66699 -35.667 -15 -50s-13.666 -27 -21.999 -38s-17.166 -21.167 -26.499 -30.5l-37 26c11.333 15.333 20.333 32 27 50s10 41.333 10 70v64h69z" />
    <glyph glyph-name="hyphen" unicode="-" horiz-adv-x="296" 
d="M47 322h203v-70h-203v70z" />
    <glyph glyph-name="period" unicode="." horiz-adv-x="228" 
d="M64 107h99v-107h-99v107z" />
    <glyph glyph-name="slash" unicode="/" horiz-adv-x="327" 
d="M21 -85l222 765h69l-223 -765h-68z" />
    <glyph glyph-name="zero" unicode="0" horiz-adv-x="554" 
d="M277 690c30.667 0 58.5 -4.33398 83.5 -13.001s46.5 -21.167 64.5 -37.5s31.833 -36.5 41.5 -60.5s14.5 -51 14.5 -81v-320c0 -30 -5 -56.667 -15 -80s-24 -43 -42 -59s-39.5 -28.167 -64.5 -36.5s-52.5 -12.5 -82.5 -12.5c-62.667 0 -112.334 15.833 -149.001 47.5
s-55 78.167 -55 139.5v321c0 60.667 18.333 107.834 55 141.501s86.334 50.5 149.001 50.5zM405 497.999c0 39.333 -11.333 69.499 -34 90.499s-54 31.5 -94 31.5c-40.667 0 -72.167 -10.667 -94.5 -32s-33.5 -51.333 -33.5 -90v-321c0 -39.333 11.333 -68.666 34 -87.999
s54 -29 94 -29s71.333 9.66699 94 29s34 49 34 89v320z" />
    <glyph glyph-name="one" unicode="1" horiz-adv-x="398" 
d="M189 610h-123v70h199v-680h-76v610z" />
    <glyph glyph-name="two" unicode="2" horiz-adv-x="465" 
d="M291 314c-24.667 -18 -46.334 -35.9971 -65.001 -53.9971s-34.167 -36.833 -46.5 -56.5s-21.833 -40.334 -28.5 -62.001s-10 -45.5 -10 -71.5h281v-70h-357v40c0 32.667 2.16699 62.667 6.5 90s12.166 53 23.499 77s26.833 47.333 46.5 70s44.834 45.667 75.501 69
c20.667 15.333 38.5 29.166 53.5 41.499s27.167 25 36.5 38s16.333 27 21 42s7 32.833 7 53.5c0 36 -9.33301 62 -28 78s-43.667 24 -75 24c-14 0 -27 -2.33301 -39 -7s-23.333 -10.834 -34 -18.501s-20.5 -16.167 -29.5 -25.5s-17.5 -18.666 -25.5 -27.999l-50 49
c20.667 29.333 47 53.333 79 72s69 28 111 28c56 0 97.833 -14.833 125.5 -44.5s41.5 -68.5 41.5 -116.5c0 -20.667 -1.16699 -39.834 -3.5 -57.501s-7.66602 -35 -15.999 -52s-20.333 -34.167 -36 -51.5s-37.167 -36.333 -64.5 -57z" />
    <glyph glyph-name="three" unicode="3" horiz-adv-x="500" 
d="M430 468c0 -18 -2.8291 -33.1738 -8.49609 -45.5068s-13 -22.833 -22 -31.5s-19 -16 -30 -22s-22.167 -11.667 -33.5 -17c26.667 -11.333 49.834 -26.166 69.501 -44.499s29.5 -42.5 29.5 -72.5v-101c0 -26 -5.16699 -48.167 -15.5 -66.5
s-24.166 -33.166 -41.499 -44.499s-37.333 -19.666 -60 -24.999s-46.334 -8 -71.001 -8c-25.333 0 -49 3.5 -71 10.5s-41.5 16.833 -58.5 29.5s-30.833 27.834 -41.5 45.501s-17.334 36.834 -20.001 57.501l64 19c1.33301 -12.667 6.16602 -24.667 14.499 -36
s18.333 -21.166 30 -29.499s24.5 -14.833 38.5 -19.5s27.667 -7 41 -7c33.333 0 60.833 5.83301 82.5 17.5s32.5 30.5 32.5 56.5v101c0 14 -3.33301 26.167 -10 36.5s-15.5 19 -26.5 26s-23.167 12.167 -36.5 15.5s-26.666 5.33301 -39.999 6h-71v69h68
c33.333 0 60.166 6.83301 80.499 20.5s30.5 33.5 30.5 59.5v70c0 30.667 -10.167 52 -30.5 64s-46.833 18 -79.5 18c-16 0 -30.833 -2.66699 -44.5 -8s-25.834 -12.5 -36.501 -21.5s-19.334 -19.333 -26.001 -31s-10.667 -23.5 -12 -35.5l-61 24
c3.33301 22.667 10.666 42.834 21.999 60.501s25.5 32.5 42.5 44.5s35.833 21.167 56.5 27.5s41.334 9.5 62.001 9.5c61.333 0 107.166 -13.833 137.499 -41.5s45.5 -64.5 45.5 -110.5v-70z" />
    <glyph glyph-name="four" unicode="4" horiz-adv-x="470" 
d="M357 271h94v-70h-94v-201h-77v201h-256v58l217 421h116v-409zM282 612h-5l-168 -341h171z" />
    <glyph glyph-name="five" unicode="5" horiz-adv-x="487" 
d="M245 412c58.667 0 103.666 -13.998 134.999 -41.998s47 -67 47 -117v-106c0 -28 -4.83301 -51.833 -14.5 -71.5s-22.834 -35.834 -39.501 -48.501s-36.334 -22 -59.001 -28s-46.667 -9 -72 -9c-55.333 0 -98.666 14.333 -129.999 43s-48.666 66.667 -51.999 114l73 16
c0.666992 -13.333 3.83398 -26.166 9.50098 -38.499s13.5 -23.333 23.5 -33s21.833 -17.334 35.5 -23.001s29.167 -8.5 46.5 -8.5c37.333 0 64 7.16699 80 21.5s24 36.166 24 65.499v106c0 16.667 -3 30.667 -9 42s-14.167 20.5 -24.5 27.5s-22.333 12 -36 15
s-28.167 4.5 -43.5 4.5h-158l34 338h280v-70h-211l-22 -198h83z" />
    <glyph glyph-name="six" unicode="6" horiz-adv-x="501" 
d="M267 437c57.333 0 99.998 -14.165 127.998 -42.498s42 -67.5 42 -117.5v-124c0 -26.667 -4.83301 -50 -14.5 -70s-22.667 -36.833 -39 -50.5s-35.666 -23.834 -57.999 -30.501s-46.166 -10 -71.499 -10c-58 0 -102.667 14.833 -134 44.5s-47 68.5 -47 116.5v387
c0 25.333 5 47.166 15 65.499s23.333 33.833 40 46.5s36 22 58 28s44.667 9 68 9c36 0 65 -6.66699 87 -20s41.667 -31 59 -53l-46 -51c-11.333 15.333 -25 28.333 -41 39s-35.667 16 -59 16c-34.667 0 -61.167 -7.83301 -79.5 -23.5s-27.5 -34.5 -27.5 -56.5v-166
c17.333 24 35.833 40.5 55.5 49.5s41.167 13.5 64.5 13.5zM361.998 270.002c0 32 -9.66602 55.501 -28.999 70.501s-44 22.5 -74 22.5c-17.333 0 -33 -3 -47 -9s-25.833 -13.833 -35.5 -23.5s-17 -20.834 -22 -33.501s-7.5 -26 -7.5 -40v-104c0 -32 10.333 -55.333 31 -70
s46 -22 76 -22c35.333 0 62.166 8.33301 80.499 25s27.5 39 27.5 67v117z" />
    <glyph glyph-name="seven" unicode="7" horiz-adv-x="393" 
d="M8 680h360l-187 -680h-81l169 610h-261v70z" />
    <glyph glyph-name="eight" unicode="8" horiz-adv-x="509" 
d="M425 474c0 -14 -2.33496 -27.1699 -7.00195 -39.5029s-10.834 -23.833 -18.501 -34.5s-16.167 -19.834 -25.5 -27.501s-19 -13.834 -29 -18.501c26.667 -12.667 48.5 -30.5 65.5 -53.5s25.5 -46.833 25.5 -71.5v-87c0 -24.667 -4.83301 -46.5 -14.5 -65.5
s-22.834 -35 -39.501 -48s-36 -22.667 -58 -29s-45.333 -9.5 -70 -9.5c-60 0 -105.167 13.667 -135.5 41s-45.5 65 -45.5 113v85c0 14 2.5 27.333 7.5 40s11.833 24.334 20.5 35.001s18.334 20.334 29.001 29.001s22 15.667 34 21c-26 13.333 -46 30.333 -60 51
s-21 44.334 -21 71.001v70c0 24 4.66699 44.833 14 62.5s21.833 32.334 37.5 44.001s33.834 20.334 54.501 26.001s42.334 8.5 65.001 8.5c54.667 0 96.834 -13.333 126.501 -40s44.5 -63 44.5 -109v-64v0zM360.998 213.997c0 32 -8.66797 57.001 -26.001 75.001
s-41.666 27 -72.999 27h-15c-36 -0.666992 -61.667 -10.5 -77 -29.5s-23 -42.833 -23 -71.5v-69c0 -30.667 10 -52.667 30 -66s45.667 -20 77 -20c34.667 0 61.167 7.66699 79.5 23s27.5 35.666 27.5 60.999v70zM157.997 473.998c0 -29.333 8.66797 -50.999 26.001 -64.999
s39 -21.667 65 -23h12c30 2.66699 52.333 11.667 67 27s22 35.666 22 60.999v64c0 29.333 -9.33301 49.833 -28 61.5s-41.334 17.5 -68.001 17.5c-32 0 -56 -7.33301 -72 -22s-24 -33.667 -24 -57v-64v0z" />
    <glyph glyph-name="nine" unicode="9" horiz-adv-x="502" 
d="M246 703c58 0 102.833 -14.499 134.5 -43.499s47.5 -66.167 47.5 -111.5v-396c0 -26.667 -4.66699 -50.167 -14 -70.5s-22.333 -37 -39 -50s-36 -22.833 -58 -29.5s-45.667 -10 -71 -10c-30 0 -60.5 6.5 -91.5 19.5s-55.833 29.833 -74.5 50.5l44 55
c8.66699 -7.33301 18.167 -14.5 28.5 -21.5s20.833 -13.167 31.5 -18.5s21.334 -9.5 32.001 -12.5s20.334 -4.5 29.001 -4.5c35.333 0 62.166 7.83301 80.499 23.5s27.5 38.5 27.5 68.5v142c-15.333 -18 -33.666 -31 -54.999 -39s-42.666 -12 -63.999 -12
c-58.667 0 -101.667 15 -129 45s-41 69 -41 117v143c0 25.333 4.66699 47.666 14 66.999s22.166 35.5 38.499 48.5s35.666 22.833 57.999 29.5s46.166 10 71.499 10zM353 548.001c0 30 -10.333 51.832 -31 65.499s-46 20.5 -76 20.5c-36 0 -62.833 -8.33301 -80.5 -25
s-26.5 -37 -26.5 -61v-143c0 -32 10.167 -55.333 30.5 -70s45.833 -22 76.5 -22c35.333 0 62 10.333 80 31s27 45.334 27 74.001v130z" />
    <glyph glyph-name="colon" unicode=":" horiz-adv-x="263" 
d="M87 118h94v-118h-94v118zM87 490h94v-116h-94v116z" />
    <glyph glyph-name="semicolon" unicode=";" horiz-adv-x="354" 
d="M177 347h-71v113h71v-113zM176 83l-0.00195312 -26c0 -24.667 -1.83301 -46.5 -5.5 -65.5s-8.66699 -35.667 -15 -50s-13.666 -27 -21.999 -38s-17.166 -21.167 -26.499 -30.5l-37 26c11.333 15.333 20.333 32 27 50s10 41.333 10 70v64h69z" />
    <glyph glyph-name="less" unicode="&#x3c;" horiz-adv-x="513" 
d="M432 -12l-385 253l378 274l27 -47l-300 -224l314 -205z" />
    <glyph glyph-name="equal" unicode="=" horiz-adv-x="536" 
d="M47 490h442v-62h-442v62zM47 276h442v-62h-442v62z" />
    <glyph glyph-name="greater" unicode="&#x3e;" horiz-adv-x="500" 
d="M453 249l-375 -267l-28 56l300 208l-293 212l29 53z" />
    <glyph glyph-name="question" unicode="?" horiz-adv-x="359" 
d="M176 690c46.667 0 80.999 -9.66504 102.999 -28.998s33 -52 33 -98v-66c0 -18 -3.83301 -35.333 -11.5 -52s-17.5 -31.334 -29.5 -44.001l-35 -37.5c-10 -11 -18.167 -22.333 -24.5 -34s-11 -24.167 -14 -37.5s-4.5 -29 -4.5 -47v-36h-73v84c0 12 1.33301 23 4 33
s6.66699 19.5 12 28.5s12 17.833 20 26.5l27 29l34.5 41.5c11.667 14.333 18.167 29.833 19.5 46.5v51c0 25.333 -4.66699 43.5 -14 54.5s-26.666 16.5 -51.999 16.5c-10 0 -19.667 -1.83301 -29 -5.5s-18.5 -8.33398 -27.5 -14.001s-17.5 -12 -25.5 -19
s-15.333 -13.833 -22 -20.5l-42 48c19.333 22 41.833 41 67.5 57s53.5 24 83.5 24zM111.999 108.002h99v-108h-99v108z" />
    <glyph glyph-name="at" unicode="@" horiz-adv-x="683" 
d="M362 711c48.667 0 90.1748 -6.1709 124.508 -18.5039s62.333 -29.666 84 -51.999s37.5 -48.833 47.5 -79.5s15 -64 15 -100c0 -98 -10.833 -171.333 -32.5 -220s-58.167 -73 -109.5 -73c-26 0 -46.5 6 -61.5 18s-24.167 27.333 -27.5 46
c-15.333 -25.333 -32.333 -44.5 -51 -57.5s-40 -19.5 -64 -19.5c-21.333 0 -38.833 2.33301 -52.5 7s-24.334 11.167 -32.001 19.5s-13 18 -16 29s-4.83301 22.5 -5.5 34.5c0 30.667 2.5 60 7.5 88s8.83301 54.667 11.5 80c3.33301 24 10.333 45.167 21 63.5
s23.667 33.666 39 45.999s32 21.5 50 27.5s35.667 9 53 9c40 0 69.167 -7.33301 87.5 -22s27.5 -36 27.5 -64c0 -15.333 -0.833008 -32 -2.5 -50s-4.16699 -34.333 -7.5 -49l-10 -46c-3.33301 -15.333 -5.33301 -31 -6 -47c0 -20 3.66699 -34.833 11 -44.5
s16.666 -14.5 27.999 -14.5c15.333 0 28.333 4 39 12s19.167 21.167 25.5 39.5s10.833 42.5 13.5 72.5s4 67 4 111c0 36.667 -5.16699 67.667 -15.5 93s-24.833 46 -43.5 62s-41 27.5 -67 34.5s-54.333 10.5 -85 10.5c-40.667 0 -75.834 -7 -105.501 -21
s-54.334 -32.833 -74.001 -56.5s-34.834 -51.167 -45.501 -82.5s-17.667 -64.666 -21 -99.999c-2.66699 -31.333 -4.66699 -56 -6 -74l-3 -41.5c-0.666992 -9.66699 -1 -16 -1 -19v-6.5c0 -37.333 5.5 -69.333 16.5 -96s26.333 -48.5 46 -65.5s42.834 -29.5 69.501 -37.5
s55.667 -12 87 -12c26.667 0 53.5 3.83301 80.5 11.5s52.167 19.167 75.5 34.5l25 -50c-31.333 -21.333 -62.333 -35 -93 -41s-60 -9 -88 -9c-48.667 0 -90.334 6.66699 -125.001 20s-63.334 31.833 -86.001 55.5s-39.334 51.5 -50.001 83.5s-16.334 66.333 -17.001 103v8.5
c0 3.66699 0.333008 10.5 1 20.5s1.5 24.333 2.5 43s2.83301 44 5.5 76c4 52.667 14.833 98.334 32.5 137.001s40 70.834 67 96.501s58.167 44.834 93.5 57.501s73 19 113 19zM297.008 210.996c24 0 42.334 6.16797 55.001 18.501s22.167 27.166 28.5 44.499
s10.5 35.333 12.5 54s4 34 6 46c-0.666992 -1.33301 -0.333984 1.66699 0.999023 9s2.66602 16 3.99902 26l4 31c1.33301 10.667 2 18.667 2 24c-0.666992 17.333 -6.16699 28.333 -16.5 33s-23.166 7 -38.499 7c-16 0 -29.333 -3.16699 -40 -9.5
s-19.5 -14.666 -26.5 -24.999s-12.5 -22.333 -16.5 -36s-7.33301 -27.834 -10 -42.501c-3.33301 -19.333 -6 -39.833 -8 -61.5s-3.66699 -45.5 -5 -71.5c0.666992 -19.333 5.5 -32 14.5 -38s20.167 -9 33.5 -9z" />
    <glyph glyph-name="A" unicode="A" horiz-adv-x="525" 
d="M308 687l195 -687h-78l-59 205h-205l-60 -205h-79l201 687h85zM349 270l-84 321l-86 -321h170z" />
    <glyph glyph-name="B" unicode="B" horiz-adv-x="507" 
d="M431 476c0 -30 -6.50098 -55.499 -19.501 -76.499s-30.167 -36.167 -51.5 -45.5c28 -9.33301 50.167 -27 66.5 -53s24.5 -54 24.5 -84v-57c0 -24.667 -4.16699 -46.834 -12.5 -66.501s-19.666 -36.5 -33.999 -50.5s-31 -24.667 -50 -32s-39.167 -11 -60.5 -11h-213v680
h193c26 0 48.833 -4 68.5 -12s36 -19 49 -33s22.833 -30.333 29.5 -49s10 -38.667 10 -60v-50v0zM374.999 219.001c0 32 -9.33301 56.499 -28 73.499s-43 25.5 -73 25.5h-117v-248h123c16 0 30 2.5 42 7.5s22 11.833 30 20.5s13.833 18.334 17.5 29.001s5.5 21.667 5.5 33
v59zM156.999 383l110.999 -0.000976562c57.333 0 86 29 86 87v50c0 30.667 -8.16699 53.334 -24.5 68.001s-39.166 22 -68.499 22h-104v-227z" />
    <glyph glyph-name="C" unicode="C" horiz-adv-x="487" 
d="M262 620c-22 0 -41.1631 -3.16797 -57.4961 -9.50098s-29.833 -15.166 -40.5 -26.499s-18.667 -24.666 -24 -39.999s-8 -32 -8 -50v-310c0 -44.667 11.667 -76.5 35 -95.5s55 -28.5 95 -28.5c32.667 0 59.667 5.5 81 16.5s40.666 26.167 57.999 45.5l46 -55
c-25.333 -26.667 -53.5 -46.167 -84.5 -58.5s-64.5 -18.5 -100.5 -18.5c-70 0 -121.833 17.5 -155.5 52.5s-50.5 82.167 -50.5 141.5v310c0 32 5.16699 60.167 15.5 84.5s24.666 44.666 42.999 60.999s40.166 28.833 65.499 37.5s52.666 13 81.999 13
c44.667 0 82 -8.5 112 -25.5s54.667 -40.167 74 -69.5l-51 -51c-14.667 22 -33.667 40.167 -57 54.5s-49.333 21.5 -78 21.5z" />
    <glyph glyph-name="D" unicode="D" horiz-adv-x="531" 
d="M258 680c69.333 0 122.667 -18 160 -54s56 -85 56 -147v-279c0 -36 -5.5 -66.833 -16.5 -92.5s-26.167 -46.5 -45.5 -62.5s-42.333 -27.667 -69 -35s-56 -11 -88 -11h-173v681h176zM400.001 479c0 23.333 -3.83301 43.3311 -11.5 59.998s-18 30.334 -31 41.001
s-28 18.334 -45 23.001s-35.167 7 -54.5 7h-102v-541h98c46.667 0 82.667 11.5 108 34.5s38 55.167 38 96.5v279z" />
    <glyph glyph-name="E" unicode="E" horiz-adv-x="449" 
d="M156 313v-243h246v-70h-320v680h301v-70h-227v-229h191v-68h-191z" />
    <glyph glyph-name="F" unicode="F" horiz-adv-x="412" 
d="M382 610h-226v-223h190v-67h-190v-320h-74v680h300v-70z" />
    <glyph glyph-name="G" unicode="G" horiz-adv-x="542" 
d="M266 353h212.002v-284c-23.333 -22.667 -52.166 -41.5 -86.499 -56.5s-73.5 -22.5 -117.5 -22.5c-34 0 -64.5 4.83301 -91.5 14.5s-49.833 23.334 -68.5 41.001s-33 38.834 -43 63.501s-15 52 -15 82v298c0 32.667 6 61.5 18 86.5s28 46 48 63s43.167 29.833 69.5 38.5
s53.833 13 82.5 13c42.667 0 79.167 -8.33301 109.5 -25s55.166 -39 74.499 -67l-49 -51c-17.333 22.667 -37.833 40.5 -61.5 53.5s-48.167 19.5 -73.5 19.5c-22 0 -41.667 -3.33301 -59 -10s-32.333 -16 -45 -28s-22.334 -26 -29.001 -42s-10 -33 -10 -51v-298
c0 -22.667 3.83301 -42.334 11.5 -59.001s18 -30.334 31 -41.001s28.167 -18.5 45.5 -23.5s35.666 -7.5 54.999 -7.5c34 0 60 3.33301 78 10s35 16.667 51 30v188h-137v65z" />
    <glyph glyph-name="H" unicode="H" horiz-adv-x="608" 
d="M450 680h75v-680h-75v294h-281v-294h-74v680h74v-316h281v316z" />
    <glyph glyph-name="I" unicode="I" horiz-adv-x="294" 
d="M108 680h76v-680h-76v680z" />
    <glyph glyph-name="J" unicode="J" horiz-adv-x="432" 
d="M275 680l76.002 0.00195312v-548c0 -24 -4.33301 -44.833 -13 -62.5s-20.5 -32.334 -35.5 -44.001s-32.833 -20.5 -53.5 -26.5s-42.667 -9 -66 -9c-46 0 -83.333 11 -112 33s-45.334 56 -50.001 102l69 19c3.33301 -30 12.666 -51.5 27.999 -64.5s37.333 -19.5 66 -19.5
c26.667 0 48.5 5.16699 65.5 15.5s25.5 29.166 25.5 56.499v548z" />
    <glyph glyph-name="K" unicode="K" horiz-adv-x="531" 
d="M501 680l-258 -316l283 -364h-96l-236 303l-36 -47v-256h-76v680h76v-309l253 309h90z" />
    <glyph glyph-name="L" unicode="L" horiz-adv-x="430" 
d="M156 680v-610h267v-70h-341v680h74z" />
    <glyph glyph-name="M" unicode="M" horiz-adv-x="689" 
d="M176 680l168 -389l169 389h94v-680h-70v576l-170 -418h-43l-173 416v-574h-69v680h94z" />
    <glyph glyph-name="N" unicode="N" horiz-adv-x="615" 
d="M464 680h70v-680h-113l-270 584v-584h-69v680h107l275 -591v591z" />
    <glyph glyph-name="O" unicode="O" horiz-adv-x="567" 
d="M289 690c31.333 0 60.3311 -4.66504 86.998 -13.998s50 -22.833 70 -40.5s35.667 -38.834 47 -63.501s17 -52.334 17 -83.001v-298c0 -32 -5.66699 -60.333 -17 -85s-26.833 -45.667 -46.5 -63s-43 -30.5 -70 -39.5s-56.167 -13.5 -87.5 -13.5h-12
c-32 0 -61.667 4.5 -89 13.5s-50.666 22 -69.999 39s-34.5 38 -45.5 63s-16.5 53.5 -16.5 85.5v298c0 30 5.66699 57.5 17 82.5s27 46.167 47 63.5s43.333 30.833 70 40.5s55.334 14.5 86.001 14.5h13v0zM433.998 488.002c0 19.333 -3.83398 37.166 -11.501 53.499
s-18.167 30.333 -31.5 42s-28.666 20.667 -45.999 27s-36 9.5 -56 9.5h-13c-20 0 -38.667 -3.16699 -56 -9.5s-32.5 -15.166 -45.5 -26.499s-23.333 -25 -31 -41s-11.5 -34 -11.5 -54v-298c0 -42.667 13.5 -75.167 40.5 -97.5s61.833 -33.5 104.5 -33.5h12
c42.667 0 77.5 11 104.5 33s40.5 54.667 40.5 98v297z" />
    <glyph glyph-name="P" unicode="P" horiz-adv-x="478" 
d="M264 680c50 0 90.332 -14 120.999 -42s46 -67 46 -117v-101c0 -24 -4.16699 -45 -12.5 -63s-20 -33.333 -35 -46s-32.667 -22.167 -53 -28.5s-42.166 -9.5 -65.499 -9.5h-108v-273h-76v680h183zM354.999 520c0 28 -8.16699 50 -24.5 66s-38.5 24 -66.5 24h-107v-267h107
c26.667 0 48.5 6 65.5 18s25.5 32 25.5 60v99z" />
    <glyph glyph-name="Q" unicode="Q" horiz-adv-x="562" 
d="M385 7c-30 -11.333 -62.002 -16.9971 -96.002 -16.9971h-12c-32 0 -61.667 4.5 -89 13.5s-50.666 22 -69.999 39s-34.5 38 -45.5 63s-16.5 53.5 -16.5 85.5v298c0 30 5.66699 57.5 17 82.5s27 46.167 47 63.5s43.333 30.833 70 40.5s55.334 14.5 86.001 14.5h13
c31.333 0 60.333 -4.66699 87 -14s50 -22.833 70 -40.5s35.667 -38.834 47 -63.501s17 -52.334 17 -83.001v-298c0 -34 -6.16699 -63.667 -18.5 -89s-29.5 -46.666 -51.5 -63.999l13 -19c18 -29.333 48.667 -44 92 -44v-54c-17.333 0 -32.833 0.666992 -46.5 2
s-26.167 4.16602 -37.5 8.49902s-21.833 10.666 -31.5 18.999s-19.167 19.5 -28.5 33.5zM433.998 488.003c0 19.333 -3.83301 37.166 -11.5 53.499s-18.167 30.333 -31.5 42s-28.666 20.667 -45.999 27s-36 9.5 -56 9.5h-13c-20 0 -38.667 -3.16699 -56 -9.5
s-32.5 -15.166 -45.5 -26.499s-23.333 -25 -31 -41s-11.5 -34 -11.5 -54v-298c0 -42.667 13.5 -75.167 40.5 -97.5s61.833 -33.5 104.5 -33.5h12c21.333 0 39.666 3.33301 54.999 10l-79 124l49 34l85 -128c23.333 22 35 52.333 35 91v297z" />
    <glyph glyph-name="R" unicode="R" horiz-adv-x="516" 
d="M462 446c0 -43.333 -11.168 -76 -33.501 -98s-52.166 -37.333 -89.499 -46l137 -302h-80l-133 296h-105v-296h-76v680h214c51.333 0 91.833 -13 121.5 -39s44.5 -66.333 44.5 -121v-74v0zM157.999 366l137 -0.000976562c28 0 50.167 6.33301 66.5 19
s24.5 33.334 24.5 62.001v74c0 29.333 -7.83301 51.5 -23.5 66.5s-38.167 22.5 -67.5 22.5h-137v-244z" />
    <glyph glyph-name="S" unicode="S" horiz-adv-x="481" 
d="M303 364c14 -10.667 29.3262 -21.5 45.9932 -32.5s32.167 -24 46.5 -39s26.333 -32.667 36 -53s14.5 -45.5 14.5 -75.5c0 -29.333 -5 -54.833 -15 -76.5s-24 -39.667 -42 -54s-39.167 -25 -63.5 -32s-51.166 -10.5 -80.499 -10.5c-46 0 -87.833 10 -125.5 30
s-66.167 51 -85.5 93l61 44c13.333 -30.667 32.833 -54.5 58.5 -71.5s55.5 -25.5 89.5 -25.5c40 0 71.167 7.33301 93.5 22s33.5 42 33.5 82c0 20 -5.83301 37.5 -17.5 52.5s-25.5 28.5 -41.5 40.5s-32.5 22.667 -49.5 32s-30.833 18 -41.5 26
c-13.333 10 -29.166 21 -47.499 33s-35.666 26 -51.999 42s-30.166 34.333 -41.499 55s-17 45 -17 73c0 57.333 17.833 100.166 53.5 128.499s82.5 42.5 140.5 42.5c36 0 70.167 -8.66699 102.5 -26s58.833 -40 79.5 -68l-49 -56c-7.33301 10 -16.166 19.667 -26.499 29
s-21.5 17.833 -33.5 25.5s-24.833 13.834 -38.5 18.501s-27.167 7 -40.5 7c-36.667 0 -64.5 -7.66699 -83.5 -23s-28.5 -41 -28.5 -77c0 -18 6.33301 -34.667 19 -50s27.834 -29.5 45.501 -42.5s35.834 -24.833 54.501 -35.5s34 -20 46 -28z" />
    <glyph glyph-name="T" unicode="T" horiz-adv-x="456" 
d="M12 610v70h432v-70h-179v-610h-76v610h-177z" />
    <glyph glyph-name="U" unicode="U" horiz-adv-x="602" 
d="M444 680l76 -0.000976562v-485c0 -35.333 -5.66699 -65.833 -17 -91.5s-26.666 -47 -45.999 -64s-42.333 -29.5 -69 -37.5s-55.334 -12 -86.001 -12c-72 0 -126.667 18.333 -164 55s-56 86.667 -56 150v485h76v-485c0 -24 3.83301 -44.667 11.5 -62s18 -31.333 31 -42
s28.167 -18.5 45.5 -23.5s36 -7.5 56 -7.5c40.667 0 74.5 11.333 101.5 34s40.5 56.334 40.5 101.001v485z" />
    <glyph glyph-name="V" unicode="V" horiz-adv-x="523" 
d="M97 680l162 -563l166 563h77l-201 -680h-84l-196 680h76z" />
    <glyph glyph-name="W" unicode="W" horiz-adv-x="735" 
d="M403 680l119 -542l106 542h78l-138 -680h-87l-116 528l-117 -528h-85l-142 680h77l111 -541l119 541h75z" />
    <glyph glyph-name="X" unicode="X" horiz-adv-x="546" 
d="M137 680l141 -266l146 266h87l-190 -339l189 -341h-86l-146 268l-151 -268h-86l193 341l-183 339h86z" />
    <glyph glyph-name="Y" unicode="Y" horiz-adv-x="537" 
d="M224 273l-203 407h84l158 -324l161 324h83l-207 -407v-273h-76v273z" />
    <glyph glyph-name="Z" unicode="Z" horiz-adv-x="502" 
d="M448 680v-40l-298 -570h303v-70h-406v35l305 575h-295v70h391z" />
    <glyph glyph-name="bracketleft" unicode="[" horiz-adv-x="257" 
d="M210 680v-59h-61v-726h58v-59h-127v844h130z" />
    <glyph glyph-name="backslash" unicode="\" horiz-adv-x="347" 
d="M30 680h70l217 -680h-70z" />
    <glyph glyph-name="bracketright" unicode="]" horiz-adv-x="255" 
d="M175 680v-838h-128v59h58v717h-57v62h127z" />
    <glyph glyph-name="asciicircum" unicode="^" horiz-adv-x="363" 
d="M106 415l-59 14l138 263l131 -262l-57 -15l-75 143z" />
    <glyph glyph-name="underscore" unicode="_" horiz-adv-x="469" 
d="M47 -30h375v-62h-375v62z" />
    <glyph glyph-name="grave" unicode="`" horiz-adv-x="234" 
d="M104 717l80 -148l-43 -36l-91 142z" />
    <glyph glyph-name="a" unicode="a" horiz-adv-x="438" 
d="M225 500c52 0 89.834 -12.1689 113.501 -36.502s35.5 -62.5 35.5 -114.5v-349h-62l-5 66c-12.667 -21.333 -29.167 -39.166 -49.5 -53.499s-44.166 -21.5 -71.499 -21.5c-42.667 0 -76.334 10.5 -101.001 31.5s-37 52.833 -37 95.5v126l252 53v52
c0 31.333 -5.83301 53 -17.5 65s-32.834 18 -63.501 18c-8.66699 0 -18.834 -1.5 -30.501 -4.5s-23.667 -7 -36 -12s-24.166 -10.5 -35.499 -16.5s-21 -11.667 -29 -17l-28 59c9.33301 6.66699 20.833 13.5 34.5 20.5s28 13.333 43 19s30.167 10.334 45.5 14.001
s29.333 5.5 42 5.5zM299.001 237.998l-175.001 -37.001v-81c0 -22.667 7.33301 -38.667 22 -48s33.334 -14 56.001 -14c13.333 0 25.833 2.5 37.5 7.5s22 11.833 31 20.5s16 18.834 21 30.501s7.5 24.5 7.5 38.5v83z" />
    <glyph glyph-name="b" unicode="b" horiz-adv-x="477" 
d="M273 500c52 0 91.168 -13.833 117.501 -41.5s39.5 -67.5 39.5 -119.5v-188c0 -52 -13.5 -91.833 -40.5 -119.5s-66.167 -41.5 -117.5 -41.5c-27.333 0 -51.833 5.16699 -73.5 15.5s-39.5 27.833 -53.5 52.5l-4 -58h-68v720h77v-286c14 20 31.667 36 53 48
s44.666 18 69.999 18zM354.001 336c0 32 -8.83301 55.502 -26.5 70.502s-42.5 22.5 -74.5 22.5c-14.667 0 -28.334 -3 -41.001 -9s-23.667 -14.167 -33 -24.5s-16.5 -22.333 -21.5 -36s-7.5 -27.834 -7.5 -42.501v-146c0 -32.667 9.33301 -59.334 28 -80.001
s44.334 -31 77.001 -31c30 0 54 7.66699 72 23s27 38 27 68v185z" />
    <glyph glyph-name="c" unicode="c" horiz-adv-x="391" 
d="M213 430c-28 0 -50.168 -8.66602 -66.501 -25.999s-24.5 -40 -24.5 -68v-184c0 -30 8.33301 -52.833 25 -68.5s40 -23.5 70 -23.5c17.333 0 34.5 3.5 51.5 10.5s31.167 17.833 42.5 32.5l47 -51c-18.667 -21.333 -40.5 -37 -65.5 -47s-50.833 -15 -77.5 -15
c-51.333 0 -92.166 14.167 -122.499 42.5s-45.5 68.166 -45.5 119.499v184c0 24 4 46 12 66s19.333 37.333 34 52s32.167 26 52.5 34s42.833 12 67.5 12c62 0 111.667 -25.333 149 -76l-51 -50c-12 16.667 -26.5 30.167 -43.5 40.5s-35.167 15.5 -54.5 15.5z" />
    <glyph glyph-name="d" unicode="d" horiz-adv-x="465" 
d="M323 720l77.001 0.000976562v-720h-65l-8 46c-14.667 -18.667 -32.334 -32.5 -53.001 -41.5s-41.667 -13.5 -63 -13.5c-52 0 -92.333 13.5 -121 40.5s-43 66.5 -43 118.5v191c0 51.333 14.333 90.666 43 117.999s69 41 121 41c24 0 45 -4.33301 63 -13
s34.333 -23.667 49 -45v278zM323.001 317.001c0 31.333 -9.33301 58 -28 80s-43.667 33 -75 33c-30 0 -53.5 -7.33301 -70.5 -22s-25.5 -37 -25.5 -67v-190c0 -32 7.83301 -55 23.5 -69s39.5 -21 71.5 -21c30 0 54.833 10 74.5 30s29.5 45 29.5 75v151z" />
    <glyph glyph-name="e" unicode="e" horiz-adv-x="429" 
d="M237 60c20 0 38.8369 3.33301 56.5039 10s36.167 19 55.5 37l42 -53c-22.667 -23.333 -46.834 -39.833 -72.501 -49.5s-53.834 -14.5 -84.501 -14.5c-58 0 -103.667 14.833 -137 44.5s-50 73.5 -50 131.5v170c0 25.333 4.33301 48.166 13 68.499s20.667 37.5 36 51.5
s33.666 24.833 54.999 32.5s44.666 11.5 69.999 11.5c24 0 46 -3.83301 66 -11.5s37.167 -18.667 51.5 -33s25.5 -31.666 33.5 -51.999s12 -42.833 12 -67.5v-74l-262 -47v-49c0 -34 10.667 -60.167 32 -78.5s49 -27.5 83 -27.5zM221.004 430c-28 0 -51.5 -8.5 -70.5 -25.5
s-28.5 -39.833 -28.5 -68.5v-65l187 34l-2 43c-4 26.667 -12.5 47 -25.5 61s-33.167 21 -60.5 21z" />
    <glyph glyph-name="f" unicode="f" horiz-adv-x="263" 
d="M90 598c0 24 3.5 44.667 10.5 62s16.667 31.5 29 42.5s26.833 19 43.5 24s34.667 7.5 54 7.5c15.333 0 31 -2.16699 47 -6.5s29.667 -8.83301 41 -13.5l-17 -60l-33 9c-12.667 3.33301 -23.667 5 -33 5c-26 0 -43.667 -6.5 -53 -19.5s-14 -33.5 -14 -61.5v-97h98v-58h-98
v-432h-75v432h-82v58h82v108z" />
    <glyph glyph-name="g" unicode="g" horiz-adv-x="448" 
d="M419 -12l-0.00195312 -90.999c0 -24 -4 -44.167 -12 -60.5s-19.167 -29.5 -33.5 -39.5s-31.333 -17.167 -51 -21.5s-41.5 -6.5 -65.5 -6.5h-54c-48 0 -86.833 11 -116.5 33s-44.5 57 -44.5 105c0 55.333 26.333 92.333 79 111c-21.333 12 -35.166 26.167 -41.499 42.5
s-9.5 32.166 -9.5 47.499c0 17.333 3.66699 31.666 11 42.999s19.333 22 36 32c-19.333 16 -34.166 31.833 -44.499 47.5s-15.5 36.5 -15.5 62.5v65c0 23.333 4.16699 44.166 12.5 62.499s20 33.833 35 46.5s32.667 22.334 53 29.001s42.5 10 66.5 10
c17.333 0 33.333 -2.16699 48 -6.5s30 -10.833 46 -19.5l96 41l18 -60l-68 -24c9.33301 -14 16 -27.5 20 -40.5s6 -27.167 6 -42.5v-63c0 -51.333 -15.167 -87.833 -45.5 -109.5s-70.833 -32.5 -121.5 -32.5c-12 0 -22.667 0.5 -32 1.5s-18.666 3.16699 -27.999 6.5
c-11.333 -2.66699 -20 -7.83398 -26 -15.501s-9 -16.5 -9 -26.5c0 -17.333 5.66699 -30.666 17 -39.999s23.666 -15.666 36.999 -18.999zM128.998 288.001c0 -14 2.66699 -25.834 8 -35.501s12.5 -17.667 21.5 -24s19.167 -11 30.5 -14s23.333 -4.5 36 -4.5
c27.333 0 49.833 5.83301 67.5 17.5s26.5 31.834 26.5 60.501v68c0.666992 30 -7.5 51.333 -24.5 64s-40.5 19 -70.5 19c-29.333 0 -52.5 -6.83301 -69.5 -20.5s-25.5 -34.5 -25.5 -62.5v-68zM250.998 -167c15.333 0 28.833 0.832031 40.5 2.49902
s21.5 4.83398 29.5 9.50098s14 11.5 18 20.5s5.66699 21.167 5 36.5v49l-164 42c-23.333 -3.33301 -40 -13 -50 -29s-15 -35.333 -15 -58c0 -26.667 10 -45.5 30 -56.5s43.667 -16.5 71 -16.5h35v0z" />
    <glyph glyph-name="h" unicode="h" horiz-adv-x="488" 
d="M283 501c51.333 0 87.665 -14 108.998 -42s32 -67.667 32 -119v-340h-76v340c0 29.333 -6.33301 51.833 -19 67.5s-33.667 23.5 -63 23.5c-15.333 0 -30.166 -3.83301 -44.499 -11.5s-26.833 -17.834 -37.5 -30.501s-19.167 -26.667 -25.5 -42s-9.5 -30.666 -9.5 -45.999
v-301h-77v720h77v-299c13.333 22 32.333 40.833 57 56.5s50.334 23.5 77.001 23.5z" />
    <glyph glyph-name="i" unicode="i" horiz-adv-x="246" 
d="M87 490h76v-490h-76v490zM84 680h80v-88h-80v88z" />
    <glyph glyph-name="j" unicode="j" horiz-adv-x="247" 
d="M84 490h74.999v-458c0 -40.667 -3.16699 -74.5 -9.5 -101.5s-16.666 -49.833 -30.999 -68.5s-32.666 -34.5 -54.999 -47.5s-49.5 -25.833 -81.5 -38.5l-26 55c30 16.667 53.5 31.5 70.5 44.5s29.667 26.5 38 40.5s13.666 30.333 15.999 49s3.5 42.667 3.5 72v453z
M82.999 680h83v-88h-83v88z" />
    <glyph glyph-name="k" unicode="k" horiz-adv-x="403" 
d="M230 265l170 -265h-88l-149 230h-14v-230h-77v710h77v-413h16l134 193h86z" />
    <glyph glyph-name="l" unicode="l" horiz-adv-x="244" 
d="M84 710h76v-710h-76v710z" />
    <glyph glyph-name="m" unicode="m" horiz-adv-x="719" 
d="M517 500c50 0 85.5029 -11.168 106.503 -33.501s31.5 -58.5 31.5 -108.5v-358h-76v348c0 28 -5.5 48.667 -16.5 62s-30.833 20 -59.5 20c-14.667 0 -28.334 -3.33301 -41.001 -10s-23.334 -15.667 -32.001 -27s-15.5 -24.333 -20.5 -39s-7.5 -30 -7.5 -46v-308h-77v339
c0 28.667 -5 51.334 -15 68.001s-29.333 25 -58 25c-14.667 0 -28.334 -4.33301 -41.001 -13s-23.5 -19.5 -32.5 -32.5s-16 -27.5 -21 -43.5s-7.5 -31.333 -7.5 -46v-297h-77v490h68l4 -70c13.333 24 30 43.333 50 58s44.333 22 73 22c32 0 57.5 -5.66699 76.5 -17
s33.833 -32 44.5 -62c11.333 24 28.5 43.167 51.5 57.5s48.5 21.5 76.5 21.5z" />
    <glyph glyph-name="n" unicode="n" horiz-adv-x="489" 
d="M279 501c52 0 89.166 -13.833 111.499 -41.5s33.5 -67.5 33.5 -119.5v-340h-76v331c0 30.667 -6 55.167 -18 73.5s-33.333 27.5 -64 27.5c-15.333 0 -30.166 -3.83301 -44.499 -11.5s-26.833 -17.834 -37.5 -30.501s-19.167 -26.667 -25.5 -42s-9.5 -30.666 -9.5 -45.999
v-302h-76v490h70l5 -65c16.667 25.333 34.667 44.333 54 57s45 19 77 19z" />
    <glyph glyph-name="o" unicode="o" horiz-adv-x="446" 
d="M223 500c25.333 0 48.665 -3.66699 69.998 -11s39.833 -17.833 55.5 -31.5s28 -30.5 37 -50.5s13.5 -42.667 13.5 -68v-187c0 -26 -4.33301 -49 -13 -69s-20.667 -36.833 -36 -50.5s-33.833 -24.167 -55.5 -31.5s-45.167 -11 -70.5 -11c-52 0 -94.5 14 -127.5 42
s-49.5 68 -49.5 120v187c0 25.333 4.33301 48 13 68s20.834 36.833 36.501 50.5s34.334 24.167 56.001 31.5s45.167 11 70.5 11zM322.999 339c0 32 -8.66797 55.168 -26.001 69.501s-42 21.5 -74 21.5c-30.667 0 -55 -7.66699 -73 -23s-27 -38 -27 -68v-186
c0 -32.667 8.66699 -56.334 26 -71.001s42.333 -22 75 -22c30.667 0 54.834 7.5 72.501 22.5s26.5 38.167 26.5 69.5v187z" />
    <glyph glyph-name="p" unicode="p" horiz-adv-x="474" 
d="M272 500c52.667 0 91.501 -13.333 116.501 -40s37.5 -67 37.5 -121v-185c0 -52.667 -13.167 -93.167 -39.5 -121.5s-65.166 -42.5 -116.499 -42.5c-24.667 0 -47.834 4.5 -69.501 13.5s-38.834 24.5 -51.501 46.5v-270h-77v710h63l7 -64
c13.333 23.333 31.5 41.5 54.5 54.5s48.167 19.5 75.5 19.5zM350.001 337c0 31.333 -8.66797 54.833 -26.001 70.5s-41.666 23.5 -72.999 23.5c-30 0 -54.667 -10 -74 -30s-29 -45.333 -29 -76v-158c0 -32 9.66699 -58 29 -78s44.333 -30 75 -30s54.667 7.83301 72 23.5
s26 39.5 26 71.5v183z" />
    <glyph glyph-name="q" unicode="q" horiz-adv-x="446" 
d="M207 499c28.667 0 54.167 -6.83301 76.5 -20.5s38.166 -30.5 47.499 -50.5l7 62h61v-710h-75v280c-14 -19.333 -31.167 -35.5 -51.5 -48.5s-42.166 -19.5 -65.499 -19.5c-54 0 -94.167 14.833 -120.5 44.5s-39.5 68.5 -39.5 116.5v191c0 54 14.667 93.333 44 118
s68 37 116 37zM123 162c0 -35.333 8.83203 -60.999 26.499 -76.999s41.5 -24 71.5 -24c32.667 0 57.834 10 75.501 30s26.5 45 26.5 75v159c0 31.333 -9.83301 56.666 -29.5 75.999s-43.5 29 -71.5 29c-66 0 -99 -29.333 -99 -88v-180z" />
    <glyph glyph-name="r" unicode="r" horiz-adv-x="299" 
d="M243 499c12 0 22 -0.832031 30 -2.49902s15.667 -3.83398 23 -6.50098l-16 -76c-16 8.66699 -31.333 13 -46 13c-22.667 0 -42 -12.333 -58 -37s-24 -57.667 -24 -99v-291h-75v490h61l6 -73c13.333 31.333 29 52.833 47 64.5s35.333 17.5 52 17.5z" />
    <glyph glyph-name="s" unicode="s" horiz-adv-x="380" 
d="M229 277l50.4961 -29.002c15 -8.66699 27.667 -18.167 38 -28.5s18.166 -22.333 23.499 -36s8 -30.5 8 -50.5c0 -49.333 -15 -85.5 -45 -108.5s-68 -34.5 -114 -34.5c-35.333 0 -65.666 6.83301 -90.999 20.5s-47.666 33.167 -66.999 58.5l46 50
c18 -24.667 37 -41.334 57 -50.001s38.667 -13 56 -13c26.667 0 47.334 4.5 62.001 13.5s22 27.167 22 54.5c0 11.333 -2.5 21 -7.5 29s-11.833 15.167 -20.5 21.5s-19.167 12.833 -31.5 19.5s-25.5 14.334 -39.5 23.001l-49.5 30c-15 9.33301 -27.833 19.5 -38.5 30.5
s-19 23.5 -25 37.5s-9 31 -9 51c0 41.333 13.167 74 39.5 98s62.833 36 109.5 36c32 0 59.5 -6.83301 82.5 -20.5s41.167 -28.167 54.5 -43.5l-42 -51c-11.333 12 -25.166 22.833 -41.499 32.5s-33.166 14.5 -50.499 14.5c-24 0 -42.833 -5.16699 -56.5 -15.5
s-20.5 -27.166 -20.5 -50.499c0 -11.333 3.33301 -21.166 10 -29.499s15 -15.833 25 -22.5s20.833 -13 32.5 -19s22.5 -12 32.5 -18z" />
    <glyph glyph-name="t" unicode="t" horiz-adv-x="324" 
d="M212 64c13.333 0 26.168 1.5 38.501 4.5s27.166 8.5 44.499 16.5l17 -59c-15.333 -8 -32.333 -15.333 -51 -22s-37 -10 -55 -10c-42 0 -71.5 10.167 -88.5 30.5s-25.5 51.166 -25.5 92.499v314h-76v59h77v147h75v-147h107v-59h-107v-307
c0 -19.333 4.33301 -34.166 13 -44.499s19 -15.5 31 -15.5z" />
    <glyph glyph-name="u" unicode="u" horiz-adv-x="457" 
d="M317 490h76v-338c0 -52 -14 -92 -42 -120s-67.667 -42 -119 -42c-52 0 -91.667 14 -119 42s-41 68 -41 120v338h77v-338c0 -30.667 6.16699 -53.667 18.5 -69s33.833 -23 64.5 -23c30 0 51.667 7.66699 65 23s20 38.333 20 69v338z" />
    <glyph glyph-name="v" unicode="v" horiz-adv-x="431" 
d="M216 107l116 383h78l-159 -490h-70l-160 490h79z" />
    <glyph glyph-name="w" unicode="w" horiz-adv-x="579" 
d="M409 96l72 394h77l-110 -491h-78l-79 371l-79 -371h-80l-111 491h78l73 -396l80 396h75z" />
    <glyph glyph-name="x" unicode="x" horiz-adv-x="387" 
d="M116 490l79 -176l78 176h88l-124 -235l130 -255h-86l-86 193l-87 -193h-88l131 255l-121 235h86z" />
    <glyph glyph-name="y" unicode="y" horiz-adv-x="394" 
d="M160 -14l-141.001 504h78l102 -412l101 412h79l-161 -560c-8 -28 -18.167 -51.833 -30.5 -71.5s-26.5 -35.5 -42.5 -47.5s-34 -20.667 -54 -26s-42 -8.33301 -66 -9l-6 62c32.667 1.33301 59.834 11.333 81.501 30s37.5 43.667 47.5 75z" />
    <glyph glyph-name="z" unicode="z" horiz-adv-x="394" 
d="M337 490v-45l-207 -379h222v-66h-310v50l209 375h-206v65h292z" />
    <glyph glyph-name="braceleft" unicode="{" horiz-adv-x="299" 
d="M248 700c-20 -14 -36.335 -28.335 -49.002 -43.002s-22.5 -29.667 -29.5 -45s-12 -30.666 -15 -45.999s-4.5 -30.666 -4.5 -45.999l22 -178l-29 -46l31 -39l-24 -206c2 -38 10.5 -72 25.5 -102s40.5 -57 76.5 -81l-24 -49c-29.333 20.667 -53.333 40.5 -72 59.5
s-33.167 38 -43.5 57s-17.5 38.333 -21.5 58s-6 40.5 -6 62.5l25 193l-37 45l38 54l-26 170c0 26 2.83301 49.333 8.5 70s14.334 40 26.001 58s26.334 35.167 44.001 51.5s38.5 32.833 62.5 49.5z" />
    <glyph glyph-name="bar" unicode="|" horiz-adv-x="225" 
d="M82 680h61v-827h-61v827z" />
    <glyph glyph-name="braceright" unicode="}" horiz-adv-x="297" 
d="M99 748c23.333 -16.667 43.666 -33.165 60.999 -49.498s31.833 -33.5 43.5 -51.5s20.334 -37.5 26.001 -58.5s8.5 -44.5 8.5 -70.5l-26 -170l38 -54l-37 -45l25 -193c0 -22.667 -1.83301 -43.834 -5.5 -63.501s-10.834 -39 -21.501 -58s-25 -38 -43 -57
s-41.667 -38.833 -71 -59.5l-24 50c34.667 24 59.5 50.667 74.5 80s23.5 63.666 25.5 102.999l-23 206l29 39l-28 46l22 178c0 16 -1.5 31.833 -4.5 47.5s-8 31 -15 46s-16.667 29.667 -29 44s-28.166 28.5 -47.499 42.5z" />
    <glyph glyph-name="asciitilde" unicode="~" horiz-adv-x="365" 
d="M129 629c-9.33301 0 -17.168 -3.83008 -23.501 -11.4971s-11.5 -16.834 -15.5 -27.501l-38 30c12.667 24.667 24.667 42.5 36 53.5s26 16.5 44 16.5c10.667 0 21.167 -2.33301 31.5 -7s20 -9.83398 29 -15.501s17.333 -10.667 25 -15s14.5 -6.5 20.5 -6.5
c9.33301 0.666992 16.166 4.66699 20.499 12s8.83301 15.666 13.5 24.999l41 -26c-7.33301 -20 -17 -37 -29 -51s-26.667 -21 -44 -21c-13.333 0 -25.166 2.33301 -35.499 7s-19.666 9.66699 -27.999 15l-24 15c-7.66699 4.66699 -15.5 7 -23.5 7z" />
    <glyph glyph-name="uni00A0" unicode="&#xa0;" horiz-adv-x="214" 
 />
    <glyph glyph-name="exclamdown" unicode="&#xa1;" horiz-adv-x="241" 
d="M91 -197l10 464h68l11 -464h-89zM178 401h-84v89h84v-89z" />
    <glyph glyph-name="cent" unicode="&#xa2;" horiz-adv-x="418" 
d="M227 431c-32 0 -57.502 -8.83105 -76.502 -26.498s-28.5 -42.834 -28.5 -75.501v-170c0 -36 9 -62 27 -78s44 -24 78 -24c38 0 70.333 14.667 97 44l41 -52c-17.333 -20.667 -36.166 -35.834 -56.499 -45.501s-44.166 -15.167 -71.499 -16.5h-18l-19 -119l-65 12l19 118
c-38 11.333 -65.333 30.833 -82 58.5s-25 61.834 -25 102.501v170c0 25.333 3.83301 48.166 11.5 68.499s18.5 37.833 32.5 52.5s31 26 51 34s42 12 66 12h5.5c2.33301 0 5.16602 -0.333008 8.49902 -1l18 138l65 -10l-17 -130c19.333 -7.33301 35.333 -16.833 48 -28.5
s24.334 -25.167 35.001 -40.5l-55 -50c-12 16 -24.667 29.5 -38 40.5s-30.333 16.5 -51 16.5z" />
    <glyph glyph-name="sterling" unicode="&#xa3;" horiz-adv-x="473" 
d="M247 203c0 -34 -5.00098 -63.002 -15.001 -87.002s-21.667 -39.333 -35 -46h229v-70h-368v58c27.333 1.33301 48.666 7.83301 63.999 19.5s26.5 24.834 33.5 39.501s11.167 29.5 12.5 44.5s2 26.833 2 35.5l-6 100h-117v61h112l-7 123c0 38 6 70.167 18 96.5
s28.667 47.5 50 63.5s46.333 27.5 75 34.5s60 10.5 94 10.5v-69c-58.667 0 -100.167 -13.5 -124.5 -40.5s-36.166 -64.5 -35.499 -112.5l7 -106h140v-61h-135l2 -35c0.666992 -11.333 1.33398 -21.5 2.00098 -30.5s1.16699 -16.167 1.5 -21.5s0.5 -7.66602 0.5 -6.99902z
" />
    <glyph glyph-name="yen" unicode="&#xa5;" horiz-adv-x="540" 
d="M65 336h157l-201 344h84l164 -282l168 282h83l-204 -344h163v-51h-173v-76h173v-49h-173v-160h-75v160h-165v49h165v76h-166v51z" />
    <glyph glyph-name="brokenbar" unicode="&#xa6;" horiz-adv-x="159" 
d="M47 219h65v-329h-65v329zM47 702h65v-329h-65v329z" />
    <glyph glyph-name="section" unicode="&#xa7;" horiz-adv-x="495" 
d="M296 356c46.667 -23.333 84.166 -49.833 112.499 -79.5s42.5 -64.834 42.5 -105.501c0 -27.333 -5.5 -52.166 -16.5 -74.499s-28.5 -40.166 -52.5 -53.499c12 -16.667 20.167 -35.834 24.5 -57.501s6.5 -39.5 6.5 -53.5c0 -30 -6 -55.333 -18 -76
s-26.667 -37.5 -44 -50.5s-36.166 -22.333 -56.499 -28s-38.5 -8.5 -54.5 -8.5c-19.333 0 -37.666 2.83301 -54.999 8.5s-33 13.167 -47 22.5s-26.333 20.166 -37 32.499s-18.667 25.166 -24 38.499l47 45c6 -13.333 13.667 -25 23 -35s19.5 -18.5 30.5 -25.5
s22.333 -12.333 34 -16s22.834 -5.5 33.501 -5.5c17.333 0 32 3 44 9s21.833 14 29.5 24s13.334 21.333 17.001 34s5.5 25.667 5.5 39c0 24 -3.83301 44.167 -11.5 60.5s-17.667 30.333 -30 42s-26.333 21.834 -42 30.501s-31.5 17 -47.5 25
c-24 11.333 -45.5 23.166 -64.5 35.499s-35.333 25.833 -49 40.5s-24.167 31.334 -31.5 50.001s-11 40.334 -11 65.001c0 16.667 1.83301 30.834 5.5 42.501s8.5 21.667 14.5 30s12.833 15.666 20.5 21.999l22.5 18.5c-11.333 19.333 -18.333 39.166 -21 59.499
s-4 38.5 -4 54.5c0 28 4.66699 52.833 14 74.5s21.833 39.834 37.5 54.501s33.5 25.834 53.5 33.501s41 11.5 63 11.5c20.667 0 39.5 -2.83301 56.5 -8.5s32.167 -13 45.5 -22s24.666 -19.5 33.999 -31.5s16.666 -24 21.999 -36l-46 -41c-16 30 -33.667 50.333 -53 61
s-39.333 16 -60 16c-16 0 -29.833 -3 -41.5 -9s-21.334 -14.167 -29.001 -24.5s-13.167 -22.333 -16.5 -36s-5 -27.834 -5 -42.501c0 -26 4.16699 -47.667 12.5 -65s18.833 -32 31.5 -44s26.667 -21.833 42 -29.5zM375.999 163c0 16 -2.83105 30.4961 -8.49805 43.4961
s-13.834 24.833 -24.501 35.5s-23.334 20.667 -38.001 30s-30.667 18.666 -48 27.999c-22 11.333 -39.833 20.833 -53.5 28.5s-27.5 17.834 -41.5 30.501c-14 -7.33301 -24.5 -17.166 -31.5 -29.499s-10.5 -26.166 -10.5 -41.499c0 -26 9.83301 -48.667 29.5 -68
s45.167 -35.666 76.5 -48.999c22 -9.33301 43.5 -20.666 64.5 -33.999s37.5 -25.333 49.5 -36c14 4 23.5 12.333 28.5 25s7.5 25 7.5 37z" />
    <glyph glyph-name="dieresis" unicode="&#xa8;" horiz-adv-x="322" 
d="M126 584h-76v83h76v-83zM272 584h-75v83h75v-83z" />
    <glyph glyph-name="copyright" unicode="&#xa9;" horiz-adv-x="679" 
d="M47 349c0 50 5.83691 96.498 17.5039 139.498s29.667 80.5 54 112.5s54.833 57 91.5 75s80 27 130 27c49.333 0 92.166 -9.16699 128.499 -27.5s66.666 -43.5 90.999 -75.5s42.5 -69.5 54.5 -112.5s18 -89.167 18 -138.5c0 -50 -6 -96.333 -18 -139s-30 -79.667 -54 -111
s-54.333 -55.833 -91 -73.5s-79.667 -26.5 -129 -26.5c-48.667 0 -91.334 9 -128.001 27s-67.334 42.833 -92.001 74.5s-43 68.834 -55 111.501s-18 88.334 -18 137.001zM103.004 348.998c0 -41.333 4.66602 -80.166 13.999 -116.499s23.666 -67.833 42.999 -94.5
s43.833 -47.667 73.5 -63s65.167 -23 106.5 -23c40.667 0 75.834 7.83301 105.501 23.5s54.334 37 74.001 64s34.167 58.5 43.5 94.5s14 74.333 14 115c0 41.333 -4.5 80.166 -13.5 116.499s-23.167 68.166 -42.5 95.499s-43.833 48.833 -73.5 64.5
s-65.167 23.5 -106.5 23.5c-40.667 0 -76 -8 -106 -24s-54.833 -37.667 -74.5 -65s-34.167 -59.166 -43.5 -95.499s-14 -74.833 -14 -115.5zM344.003 464.998c-28 0 -49.332 -7.16504 -63.999 -21.498s-22 -36.166 -22 -65.499v-73c0 -30.667 7.5 -53 22.5 -67
s37.5 -20.667 67.5 -20c18 0 34.333 3.66699 49 11s28.667 18 42 32l36 -45c-17.333 -19.333 -37 -34.333 -59 -45s-45.333 -16 -70 -16c-50 0 -88.667 12.167 -116 36.5s-41 62.166 -41 113.499v73c0 49.333 13.833 86.666 41.5 111.999s65.5 38 113.5 38
c30 0 54.833 -5.83301 74.5 -17.5s38.167 -29.834 55.5 -54.501l-44 -39c-12.667 16 -25.334 28 -38.001 36s-28.667 12 -48 12z" />
    <glyph glyph-name="ordfeminine" unicode="&#xaa;" horiz-adv-x="309" 
d="M152 689c20 0 36.833 -1.66797 50.5 -5.00098s24.667 -9.16602 33 -17.499s14.333 -19.5 18 -33.5s5.5 -31.667 5.5 -53v-200h-49l-5 46c-6.66699 -14.667 -16.167 -26.334 -28.5 -35.001s-24.5 -13 -36.5 -13c-18 0 -33 2.83301 -45 8.5s-21.5 13 -28.5 22
s-12 19.5 -15 31.5s-4.5 24.333 -4.5 37v57l149 27v28c0 20 -4 32.833 -12 38.5s-19 8.5 -33 8.5c-11.333 0 -23.5 -2.83301 -36.5 -8.5s-22.833 -10.5 -29.5 -14.5l-21 47c12 7.33301 26.167 13.833 42.5 19.5s31.5 8.83398 45.5 9.50098zM193 515.999l-84 -14.001v-37
c0 -9.33301 3.83301 -17.166 11.5 -23.499s16.5 -9.5 26.5 -9.5c12 0 22.667 3.33301 32 10s14 15 14 25v49z" />
    <glyph glyph-name="guillemotleft" unicode="&#xab;" horiz-adv-x="402" 
d="M317 -11l-127 174l126 178l40 -35l-89 -142l88 -137zM175 -11l-128 174l127 178l39 -35l-89 -142l88 -137z" />
    <glyph glyph-name="logicalnot" unicode="&#xac;" horiz-adv-x="392" 
d="M47 332h298v-157h-62v94h-236v63z" />
    <glyph glyph-name="registered" unicode="&#xae;" horiz-adv-x="679" 
d="M47 349c0 50 5.99902 96.333 17.999 139s30 79.834 54 111.501s54.333 56.5 91 74.5s80 27 130 27c48.667 0 91.334 -9.16699 128.001 -27.5s67.167 -43.5 91.5 -75.5s42.5 -69.333 54.5 -112s18 -88.334 18 -137.001c0 -49.333 -6 -95.333 -18 -138
s-30 -79.667 -54 -111s-54.333 -56 -91 -74s-79.667 -27 -129 -27c-48.667 0 -91.334 9.16699 -128.001 27.5s-67.167 43.166 -91.5 74.499s-42.666 68.333 -54.999 111s-18.5 88.334 -18.5 137.001zM102.999 349c0 -41.333 4.66602 -80 13.999 -116
s23.666 -67.5 42.999 -94.5s43.833 -48.167 73.5 -63.5s65.167 -23 106.5 -23c40.667 0 75.834 7.83301 105.501 23.5s54.334 37 74.001 64s34.167 58.5 43.5 94.5s14 74.333 14 115c0 41.333 -4.5 80 -13.5 116s-23.167 67.5 -42.5 94.5s-43.833 48.333 -73.5 64
s-65.167 23.5 -106.5 23.5c-40.667 0 -76 -8 -106 -24s-54.667 -37.5 -74 -64.5s-33.833 -58.5 -43.5 -94.5s-14.5 -74.333 -14.5 -115zM468.998 405c0 -24 -6.66797 -43.333 -20.001 -58s-30.666 -25 -51.999 -31l80 -158h-69l-77 151h-42v-151h-62v381h139
c32 0 57.167 -8 75.5 -24s27.5 -40.333 27.5 -73v-37v0zM287.997 358l82.001 3c13.333 1.33301 22.666 6 27.999 14s8 19 8 33l-2 36c-2 27.333 -16.667 41 -44 41h-72v-127z" />
    <glyph glyph-name="macron" unicode="&#xaf;" horiz-adv-x="400" 
d="M350 637h-300v48h300v-48z" />
    <glyph glyph-name="degree" unicode="&#xb0;" horiz-adv-x="328" 
d="M160 690c36.667 0 66 -10.667 88 -32s33 -48 33 -80v-29c0 -18 -3.16699 -33.833 -9.5 -47.5s-14.833 -25.334 -25.5 -35.001s-23.167 -17 -37.5 -22s-29.5 -7.5 -45.5 -7.5c-36 0 -64.333 10.667 -85 32s-31 48 -31 80v29c0 17.333 3 32.833 9 46.5s14 25.334 24 35.001
s21.833 17.167 35.5 22.5s28.5 8 44.5 8zM216 580c0 17.333 -4.83398 30.834 -14.501 40.501s-22.5 14.5 -38.5 14.5c-17.333 0 -30.166 -5.33301 -38.499 -16s-12.5 -23.667 -12.5 -39v-33c-0.666992 -18 4 -31.5 14 -40.5s22.667 -13.5 38 -13.5
c17.333 0 30.333 5.16699 39 15.5s13 23.166 13 38.499v33z" />
    <glyph glyph-name="plusminus" unicode="&#xb1;" horiz-adv-x="472" 
d="M268 372h146v-66h-146v-177h-72v177h-142v66h142v165h72v-165zM47 62h378v-62h-378v62z" />
    <glyph glyph-name="twosuperior" unicode="&#xb2;" horiz-adv-x="432" 
d="M216 690c43.333 0 73.498 -8.83301 90.498 -26.5s25.5 -42.5 25.5 -74.5c0 -26.667 -8 -48.5 -24 -65.5s-33.667 -31.167 -53 -42.5c-10.667 -6 -21.5 -11.5 -32.5 -16.5s-20.667 -10.5 -29 -16.5s-15.333 -12.833 -21 -20.5s-8.5 -17.5 -8.5 -29.5h167v-56h-236v31
c0 22 3 40.833 9 56.5s14 29.334 24 41.001s21.833 21.834 35.5 30.501s28.5 16.667 44.5 24c18 9.33301 32.667 18.166 44 26.499s17 19.833 17 34.5c0 11.333 -1.66699 20 -5 26s-7.66602 10.667 -12.999 14s-11.333 5.33301 -18 6s-13.334 1 -20.001 1
c-21.333 0 -38.166 -4.83301 -50.499 -14.5s-24.166 -22.5 -35.499 -38.5l-39 38c12.667 23.333 30.167 41.166 52.5 53.499s47.5 18.5 75.5 18.5z" />
    <glyph glyph-name="threesuperior" unicode="&#xb3;" horiz-adv-x="312" 
d="M282 583c0 -21.333 -6.66992 -38.167 -20.0029 -50.5s-28.666 -21.166 -45.999 -26.499c17.333 -4 33.333 -12.5 48 -25.5s22 -31.5 22 -55.5v-16c0 -30.667 -11.333 -53.5 -34 -68.5s-52 -22.5 -88 -22.5c-66.667 0 -107 26 -121 78l48 25
c3.33301 -19.333 11.666 -32.166 24.999 -38.499s28.666 -9.5 45.999 -9.5c18.667 0 33.334 2.66699 44.001 8s16 15.666 16 30.999v13c0 16.667 -5.66699 30.167 -17 40.5s-24.666 15.5 -39.999 15.5h-59v52h55c17.333 0 31.333 4.5 42 13.5s16 19.833 16 32.5v10
c0 10 -1.66699 17.833 -5 23.5s-7.5 10 -12.5 13s-10.667 4.83301 -17 5.5s-12.833 1 -19.5 1c-39.333 0 -63 -15.333 -71 -46l-45 20c2.66699 14.667 7.83398 27.167 15.501 37.5s16.834 18.666 27.501 24.999s22.5 11 35.5 14s26.167 4.5 39.5 4.5
c37.333 0 65.833 -7.5 85.5 -22.5s29.5 -39.5 29.5 -73.5v-8z" />
    <glyph glyph-name="acute" unicode="&#xb4;" horiz-adv-x="234" 
d="M132 711l52 -38l-92 -140l-42 33z" />
    <glyph glyph-name="paragraph" unicode="&#xb6;" horiz-adv-x="460" 
d="M377 680l-0.000976562 -680h-58v632h-55v-632h-61v373h-24c-46 0 -79.5 11 -100.5 33s-31.5 54 -31.5 96v37c0 44 11.333 78.5 34 103.5s55.334 37.5 98.001 37.5h198z" />
    <glyph glyph-name="periodcentered" unicode="&#xb7;" horiz-adv-x="198" 
d="M64 306h99v-107h-99v107z" />
    <glyph glyph-name="cedilla" unicode="&#xb8;" horiz-adv-x="224" 
d="M126 0l-13 -55.999c4.66699 -2 10.5 -5 17.5 -9s13.667 -9.66699 20 -17s11.833 -16.5 16.5 -27.5s7 -24.5 7 -40.5c0 -29.333 -9.66699 -52.333 -29 -69s-44.333 -30.667 -75 -42l-20 44c13.333 7.33301 26 15.333 38 24s18 21.667 18 39c0 14.667 -2 26.167 -6 34.5
s-8.83301 14.666 -14.5 18.999s-11.667 7 -18 8s-11.833 2.16699 -16.5 3.5l16 89h59z" />
    <glyph glyph-name="onesuperior" unicode="&#xb9;" horiz-adv-x="252" 
d="M122 612h-92v68h158v-338h-66v270z" />
    <glyph glyph-name="ordmasculine" unicode="&#xba;" horiz-adv-x="328" 
d="M163 690c38 0 67.167 -9.49805 87.5 -28.498s30.5 -43.5 30.5 -73.5v-102c0 -17.333 -3.16699 -32.5 -9.5 -45.5s-15 -23.667 -26 -32s-23.5 -14.666 -37.5 -18.999s-29 -6.5 -45 -6.5c-36 0 -64.333 9.16699 -85 27.5s-31 43.833 -31 76.5v105
c0 15.333 3.33301 29.166 10 41.499s15.5 22.666 26.5 30.999s23.5 14.666 37.5 18.999s28 6.5 42 6.5zM215 586.002c0.666992 16.667 -4.49902 28.501 -15.499 35.501s-22.833 10.5 -35.5 10.5c-16 0 -28.333 -4.16699 -37 -12.5s-13.334 -19.833 -14.001 -34.5v-93
c-0.666992 -14 2.66602 -26.167 9.99902 -36.5s21 -15.5 41 -15.5c18.667 0 31.834 4.66699 39.501 14s11.5 22.666 11.5 39.999v92z" />
    <glyph glyph-name="guillemotright" unicode="&#xbb;" horiz-adv-x="397" 
d="M125 169l-89 142l40 35l126 -178l-127 -174l-38 38zM268 169l-89 142l39 35l127 -178l-128 -174l-38 38z" />
    <glyph glyph-name="onequarter" unicode="&#xbc;" horiz-adv-x="647" 
d="M122 612h-92v68h158v-338h-66v270zM81 0l366 680h69l-362 -680h-73zM547 146h65v-55h-65v-91h-61v91h-159v43l129 225h91v-213zM486 304h-8l-79 -158h87v158z" />
    <glyph glyph-name="onehalf" unicode="&#xbd;" horiz-adv-x="634" 
d="M122 612h-92v68h158v-338h-66v270zM49 0l366 680h69l-362 -680h-73zM461 350c43.333 0 73.498 -8.83301 90.498 -26.5s25.5 -42.5 25.5 -74.5c0 -26.667 -8 -48.5 -24 -65.5s-33.667 -31.167 -53 -42.5c-10.667 -6 -21.5 -11.5 -32.5 -16.5s-20.667 -10.5 -29 -16.5
s-15.333 -12.833 -21 -20.5s-8.5 -17.5 -8.5 -29.5h167v-56h-236v31c0 22 3 40.833 9 56.5s14 29.334 24 41.001s21.833 21.834 35.5 30.501s28.5 16.667 44.5 24c18 9.33301 32.667 18.166 44 26.499s17 19.833 17 34.5c0 11.333 -1.66699 20 -5 26
s-7.66602 10.667 -12.999 14s-11.333 5.33301 -18 6s-13.334 1 -20.001 1c-21.333 0 -38.166 -4.83301 -50.499 -14.5s-24.166 -22.5 -35.499 -38.5l-39 38c12.667 23.333 30.167 41.166 52.5 53.499s47.5 18.5 75.5 18.5z" />
    <glyph glyph-name="threequarters" unicode="&#xbe;" horiz-adv-x="688" 
d="M282 583c0 -21.333 -6.66992 -38.167 -20.0029 -50.5s-28.666 -21.166 -45.999 -26.499c17.333 -4 33.333 -12.5 48 -25.5s22 -31.5 22 -55.5v-16c0 -30.667 -11.333 -53.5 -34 -68.5s-52 -22.5 -88 -22.5c-66.667 0 -107 26 -121 78l48 25
c3.33301 -19.333 11.666 -32.166 24.999 -38.499s28.666 -9.5 45.999 -9.5c18.667 0 33.334 2.66699 44.001 8s16 15.666 16 30.999v13c0 16.667 -5.66699 30.167 -17 40.5s-24.666 15.5 -39.999 15.5h-59v52h55c17.333 0 31.333 4.5 42 13.5s16 19.833 16 32.5v10
c0 10 -1.66699 17.833 -5 23.5s-7.5 10 -12.5 13s-10.667 4.83301 -17 5.5s-12.833 1 -19.5 1c-39.333 0 -63 -15.333 -71 -46l-45 20c2.66699 14.667 7.83398 27.167 15.501 37.5s16.834 18.666 27.501 24.999s22.5 11 35.5 14s26.167 4.5 39.5 4.5
c37.333 0 65.833 -7.5 85.5 -22.5s29.5 -39.5 29.5 -73.5v-8zM143.997 -0.000976562l366 680h69l-362 -680h-73zM590.997 144.999h65v-55h-65v-91h-61v91h-159v43l129 225h91v-213zM529.997 302.999h-8l-79 -158h87v158z" />
    <glyph glyph-name="questiondown" unicode="&#xbf;" horiz-adv-x="360" 
d="M179 -214c-45.333 0 -79.165 9.49902 -101.498 28.499s-33.5 51.833 -33.5 98.5v69c0 16 3.66699 32.5 11 49.5s16.666 31.833 27.999 44.5l33 37.5c10 11.667 18.5 23.834 25.5 36.501s12.333 26.334 16 41.001s5.5 31 5.5 49v42h73v-72
c0 -13.333 -2.16699 -26.833 -6.5 -40.5s-9.83301 -27.167 -16.5 -40.5s-14.334 -26 -23.001 -38s-17.667 -23 -27 -33c-12 -13.333 -22.333 -25.833 -31 -37.5s-13 -25.834 -13 -42.501v-55c0 -12 0.666992 -22.333 2 -31s4.16602 -15.667 8.49902 -21
s10.833 -9.33301 19.5 -12s20.334 -4 35.001 -4c9.33301 0 18.833 2 28.5 6s19.167 9 28.5 15s18 12.667 26 20s15 14.333 21 21l44 -49c-20.667 -25.333 -44.5 -45.333 -71.5 -60s-54.167 -22 -81.5 -22zM245.001 382.999h-99v108h99v-108z" />
    <glyph glyph-name="Agrave" unicode="&#xc0;" horiz-adv-x="525" 
d="M308 687l195 -687h-78l-59 205h-205l-60 -205h-79l201 687h85zM349 270l-84 321l-86 -321h170zM222 925l80 -148l-43 -36l-91 142z" />
    <glyph glyph-name="Aacute" unicode="&#xc1;" horiz-adv-x="525" 
d="M308 687l195 -687h-78l-59 205h-205l-60 -205h-79l201 687h85zM349 270l-84 321l-86 -321h170zM299 921l52 -38l-92 -140l-42 33z" />
    <glyph glyph-name="Acircumflex" unicode="&#xc2;" horiz-adv-x="525" 
d="M308 687l195 -687h-78l-59 205h-205l-60 -205h-79l201 687h85zM349 270l-84 321l-86 -321h170zM259 873l107 -91l-29 -44l-78 62l-78 -61l-30 45z" />
    <glyph glyph-name="Atilde" unicode="&#xc3;" horiz-adv-x="525" 
d="M308 687l195 -687h-78l-59 205h-205l-60 -205h-79l201 687h85zM349 270l-84 321l-86 -321h170zM206 799c-9.33301 0 -17.168 -3.83008 -23.501 -11.4971s-11.5 -16.834 -15.5 -27.501l-38 30c12.667 24.667 24.667 42.5 36 53.5s26 16.5 44 16.5
c10.667 0 21.167 -2.33301 31.5 -7s20 -9.83398 29 -15.501s17.333 -10.667 25 -15s14.5 -6.5 20.5 -6.5c9.33301 0.666992 16.166 4.66699 20.499 12s8.83301 15.666 13.5 24.999l41 -26c-7.33301 -20 -17 -37 -29 -51s-26.667 -21 -44 -21
c-13.333 0 -25.166 2.33301 -35.499 7s-19.666 9.66699 -27.999 15l-24 15c-7.66699 4.66699 -15.5 7 -23.5 7z" />
    <glyph glyph-name="Adieresis" unicode="&#xc4;" horiz-adv-x="525" 
d="M308 687l195 -687h-78l-59 205h-205l-60 -205h-79l201 687h85zM349 270l-84 321l-86 -321h170zM224 753h-76v83h76v-83zM370 753h-75v83h75v-83z" />
    <glyph glyph-name="Aring" unicode="&#xc5;" horiz-adv-x="525" 
d="M308 687l195 -687h-78l-59 205h-205l-60 -205h-79l201 687h85zM349 270l-84 321l-86 -321h170zM265 748c-23.333 0 -41.5 7.50195 -54.5 22.502s-19.5 33.5 -19.5 55.5c0 28 7.66699 48 23 60s32.333 18 51 18c24.667 0 43.167 -7.33301 55.5 -22
s18.5 -33.334 18.5 -56.001c0 -26.667 -7.5 -46.334 -22.5 -59.001s-32.167 -19 -51.5 -19zM233 825.002c0 -16.667 3.66699 -27.166 11 -31.499s14.666 -6.5 21.999 -6.5c9.33301 0 17.166 2.83301 23.499 8.5s9.5 15.5 9.5 29.5c0 17.333 -3.66699 28.666 -11 33.999
s-14.666 8 -21.999 8c-9.33301 0 -17.166 -3.5 -23.499 -10.5s-9.5 -17.5 -9.5 -31.5z" />
    <glyph glyph-name="AE" unicode="&#xc6;" horiz-adv-x="759" 
d="M475 321v-251h246v-70h-322v187h-199l-96 -187h-84l333 680h349v-70h-226v-224h189v-65h-190zM399 252v364l-169 -364h169z" />
    <glyph glyph-name="Ccedilla" unicode="&#xc7;" horiz-adv-x="497" 
d="M262 620c-22 0 -41.1631 -3.16797 -57.4961 -9.50098s-29.833 -15.166 -40.5 -26.499s-18.667 -24.666 -24 -39.999s-8 -32 -8 -50v-310c0 -44.667 11.667 -76.5 35 -95.5s55 -28.5 95 -28.5c32.667 0 59.667 5.5 81 16.5s40.666 26.167 57.999 45.5l46 -55
c-25.333 -26.667 -53.5 -46.167 -84.5 -58.5s-64.5 -18.5 -100.5 -18.5c-70 0 -121.833 17.5 -155.5 52.5s-50.5 82.167 -50.5 141.5v310c0 32 5.16699 60.167 15.5 84.5s24.666 44.666 42.999 60.999s40.166 28.833 65.499 37.5s52.666 13 81.999 13
c44.667 0 82 -8.5 112 -25.5s54.667 -40.167 74 -69.5l-51 -51c-14.667 22 -33.667 40.167 -57 54.5s-49.333 21.5 -78 21.5zM309.004 -0.000976562l-13 -55.999c4.66699 -2 10.5 -5 17.5 -9s13.667 -9.66699 20 -17s11.833 -16.5 16.5 -27.5s7 -24.5 7 -40.5
c0 -29.333 -9.66699 -52.333 -29 -69s-44.333 -30.667 -75 -42l-20 44c13.333 7.33301 26 15.333 38 24s18 21.667 18 39c0 14.667 -2 26.167 -6 34.5s-8.83301 14.666 -14.5 18.999s-11.667 7 -18 8s-11.833 2.16699 -16.5 3.5l16 89h59z" />
    <glyph glyph-name="Egrave" unicode="&#xc8;" horiz-adv-x="449" 
d="M156 313v-243h246v-70h-320v680h301v-70h-227v-229h191v-68h-191zM192 917l80 -148l-43 -36l-91 142z" />
    <glyph glyph-name="Eacute" unicode="&#xc9;" horiz-adv-x="449" 
d="M156 313v-243h246v-70h-320v680h301v-70h-227v-229h191v-68h-191zM269 921l52 -38l-92 -140l-42 33z" />
    <glyph glyph-name="Ecircumflex" unicode="&#xca;" horiz-adv-x="449" 
d="M156 313v-243h246v-70h-320v680h301v-70h-227v-229h191v-68h-191zM229 873l107 -91l-29 -44l-78 62l-78 -61l-30 45z" />
    <glyph glyph-name="Edieresis" unicode="&#xcb;" horiz-adv-x="449" 
d="M156 313v-243h246v-70h-320v680h301v-70h-227v-229h191v-68h-191zM194 753h-76v83h76v-83zM340 753h-75v83h75v-83z" />
    <glyph glyph-name="Igrave" unicode="&#xcc;" horiz-adv-x="294" 
d="M119 680h76v-680h-76v680zM104 927l80 -148l-43 -36l-91 142z" />
    <glyph glyph-name="Iacute" unicode="&#xcd;" horiz-adv-x="294" 
d="M117 680h76v-680h-76v680zM177 921l52 -38l-92 -140l-42 33z" />
    <glyph glyph-name="Icircumflex" unicode="&#xce;" horiz-adv-x="294" 
d="M116 680h76v-680h-76v680zM139 874l107 -91l-29 -44l-78 62l-78 -61l-30 45z" />
    <glyph glyph-name="Idieresis" unicode="&#xcf;" horiz-adv-x="294" 
d="M127 680h76v-680h-76v680zM114 751h-76v83h76v-83zM260 751h-75v83h75v-83z" />
    <glyph glyph-name="Eth" unicode="&#xd0;" horiz-adv-x="575" 
d="M24 372l108 -0.000976562v305h175c75.333 0 131 -17.667 167 -53s54 -82.666 54 -141.999v-289c0 -36 -5.83301 -66.333 -17.5 -91s-27.5 -44.5 -47.5 -59.5s-43.5 -25.833 -70.5 -32.5s-55.833 -10 -86.5 -10h-174v311h-108v61zM452 482.999
c0 24 -3.66602 43.8311 -10.999 59.498s-17.333 28.334 -30 38.001s-27.834 16.5 -45.501 20.5s-37.167 6 -58.5 6h-99v-235h124v-61h-124v-241h98c52 0 89.333 10.833 112 32.5s34 51.834 34 90.501v290z" />
    <glyph glyph-name="Ntilde" unicode="&#xd1;" horiz-adv-x="615" 
d="M464 680h70v-680h-113l-270 584v-584h-69v680h107l275 -591v591zM242 789c-9.33301 0 -17.168 -3.83008 -23.501 -11.4971s-11.5 -16.834 -15.5 -27.501l-38 30c12.667 24.667 24.667 42.5 36 53.5s26 16.5 44 16.5c10.667 0 21.167 -2.33301 31.5 -7
s20 -9.83398 29 -15.501s17.333 -10.667 25 -15s14.5 -6.5 20.5 -6.5c9.33301 0.666992 16.166 4.66699 20.499 12s8.83301 15.666 13.5 24.999l41 -26c-7.33301 -20 -17 -37 -29 -51s-26.667 -21 -44 -21c-13.333 0 -25.166 2.33301 -35.499 7s-19.666 9.66699 -27.999 15
l-24 15c-7.66699 4.66699 -15.5 7 -23.5 7z" />
    <glyph glyph-name="Ograve" unicode="&#xd2;" horiz-adv-x="567" 
d="M289 690c31.333 0 60.3311 -4.66504 86.998 -13.998s50 -22.833 70 -40.5s35.667 -38.834 47 -63.501s17 -52.334 17 -83.001v-298c0 -32 -5.66699 -60.333 -17 -85s-26.833 -45.667 -46.5 -63s-43 -30.5 -70 -39.5s-56.167 -13.5 -87.5 -13.5h-12
c-32 0 -61.667 4.5 -89 13.5s-50.666 22 -69.999 39s-34.5 38 -45.5 63s-16.5 53.5 -16.5 85.5v298c0 30 5.66699 57.5 17 82.5s27 46.167 47 63.5s43.333 30.833 70 40.5s55.334 14.5 86.001 14.5h13v0zM433.998 488.002c0 19.333 -3.83398 37.166 -11.501 53.499
s-18.167 30.333 -31.5 42s-28.666 20.667 -45.999 27s-36 9.5 -56 9.5h-13c-20 0 -38.667 -3.16699 -56 -9.5s-32.5 -15.166 -45.5 -26.499s-23.333 -25 -31 -41s-11.5 -34 -11.5 -54v-298c0 -42.667 13.5 -75.167 40.5 -97.5s61.833 -33.5 104.5 -33.5h12
c42.667 0 77.5 11 104.5 33s40.5 54.667 40.5 98v297zM234.997 927.002l80 -148l-43 -36l-91 142z" />
    <glyph glyph-name="Oacute" unicode="&#xd3;" horiz-adv-x="567" 
d="M289 690c31.333 0 60.3311 -4.66504 86.998 -13.998s50 -22.833 70 -40.5s35.667 -38.834 47 -63.501s17 -52.334 17 -83.001v-298c0 -32 -5.66699 -60.333 -17 -85s-26.833 -45.667 -46.5 -63s-43 -30.5 -70 -39.5s-56.167 -13.5 -87.5 -13.5h-12
c-32 0 -61.667 4.5 -89 13.5s-50.666 22 -69.999 39s-34.5 38 -45.5 63s-16.5 53.5 -16.5 85.5v298c0 30 5.66699 57.5 17 82.5s27 46.167 47 63.5s43.333 30.833 70 40.5s55.334 14.5 86.001 14.5h13v0zM433.998 488.002c0 19.333 -3.83398 37.166 -11.501 53.499
s-18.167 30.333 -31.5 42s-28.666 20.667 -45.999 27s-36 9.5 -56 9.5h-13c-20 0 -38.667 -3.16699 -56 -9.5s-32.5 -15.166 -45.5 -26.499s-23.333 -25 -31 -41s-11.5 -34 -11.5 -54v-298c0 -42.667 13.5 -75.167 40.5 -97.5s61.833 -33.5 104.5 -33.5h12
c42.667 0 77.5 11 104.5 33s40.5 54.667 40.5 98v297zM311.997 921.002l52 -38l-92 -140l-42 33z" />
    <glyph glyph-name="Ocircumflex" unicode="&#xd4;" horiz-adv-x="567" 
d="M289 690c31.333 0 60.3311 -4.66504 86.998 -13.998s50 -22.833 70 -40.5s35.667 -38.834 47 -63.501s17 -52.334 17 -83.001v-298c0 -32 -5.66699 -60.333 -17 -85s-26.833 -45.667 -46.5 -63s-43 -30.5 -70 -39.5s-56.167 -13.5 -87.5 -13.5h-12
c-32 0 -61.667 4.5 -89 13.5s-50.666 22 -69.999 39s-34.5 38 -45.5 63s-16.5 53.5 -16.5 85.5v298c0 30 5.66699 57.5 17 82.5s27 46.167 47 63.5s43.333 30.833 70 40.5s55.334 14.5 86.001 14.5h13v0zM433.998 488.002c0 19.333 -3.83398 37.166 -11.501 53.499
s-18.167 30.333 -31.5 42s-28.666 20.667 -45.999 27s-36 9.5 -56 9.5h-13c-20 0 -38.667 -3.16699 -56 -9.5s-32.5 -15.166 -45.5 -26.499s-23.333 -25 -31 -41s-11.5 -34 -11.5 -54v-298c0 -42.667 13.5 -75.167 40.5 -97.5s61.833 -33.5 104.5 -33.5h12
c42.667 0 77.5 11 104.5 33s40.5 54.667 40.5 98v297zM271.997 883.002l107 -91l-29 -44l-78 62l-78 -61l-30 45z" />
    <glyph glyph-name="Otilde" unicode="&#xd5;" horiz-adv-x="567" 
d="M289 690c31.333 0 60.3311 -4.66504 86.998 -13.998s50 -22.833 70 -40.5s35.667 -38.834 47 -63.501s17 -52.334 17 -83.001v-298c0 -32 -5.66699 -60.333 -17 -85s-26.833 -45.667 -46.5 -63s-43 -30.5 -70 -39.5s-56.167 -13.5 -87.5 -13.5h-12
c-32 0 -61.667 4.5 -89 13.5s-50.666 22 -69.999 39s-34.5 38 -45.5 63s-16.5 53.5 -16.5 85.5v298c0 30 5.66699 57.5 17 82.5s27 46.167 47 63.5s43.333 30.833 70 40.5s55.334 14.5 86.001 14.5h13v0zM433.998 488.002c0 19.333 -3.83398 37.166 -11.501 53.499
s-18.167 30.333 -31.5 42s-28.666 20.667 -45.999 27s-36 9.5 -56 9.5h-13c-20 0 -38.667 -3.16699 -56 -9.5s-32.5 -15.166 -45.5 -26.499s-23.333 -25 -31 -41s-11.5 -34 -11.5 -54v-298c0 -42.667 13.5 -75.167 40.5 -97.5s61.833 -33.5 104.5 -33.5h12
c42.667 0 77.5 11 104.5 33s40.5 54.667 40.5 98v297zM217.997 799.002c-9.33301 0 -17.168 -3.83008 -23.501 -11.4971s-11.5 -16.834 -15.5 -27.501l-38 30c12.667 24.667 24.667 42.5 36 53.5s26 16.5 44 16.5c10.667 0 21.167 -2.33301 31.5 -7s20 -9.83398 29 -15.501
s17.333 -10.667 25 -15s14.5 -6.5 20.5 -6.5c9.33301 0.666992 16.166 4.66699 20.499 12s8.83301 15.666 13.5 24.999l41 -26c-7.33301 -20 -17 -37 -29 -51s-26.667 -21 -44 -21c-13.333 0 -25.166 2.33301 -35.499 7s-19.666 9.66699 -27.999 15l-24 15
c-7.66699 4.66699 -15.5 7 -23.5 7z" />
    <glyph glyph-name="Odieresis" unicode="&#xd6;" horiz-adv-x="567" 
d="M289 690c31.333 0 60.3311 -4.66504 86.998 -13.998s50 -22.833 70 -40.5s35.667 -38.834 47 -63.501s17 -52.334 17 -83.001v-298c0 -32 -5.66699 -60.333 -17 -85s-26.833 -45.667 -46.5 -63s-43 -30.5 -70 -39.5s-56.167 -13.5 -87.5 -13.5h-12
c-32 0 -61.667 4.5 -89 13.5s-50.666 22 -69.999 39s-34.5 38 -45.5 63s-16.5 53.5 -16.5 85.5v298c0 30 5.66699 57.5 17 82.5s27 46.167 47 63.5s43.333 30.833 70 40.5s55.334 14.5 86.001 14.5h13v0zM433.998 488.002c0 19.333 -3.83398 37.166 -11.501 53.499
s-18.167 30.333 -31.5 42s-28.666 20.667 -45.999 27s-36 9.5 -56 9.5h-13c-20 0 -38.667 -3.16699 -56 -9.5s-32.5 -15.166 -45.5 -26.499s-23.333 -25 -31 -41s-11.5 -34 -11.5 -54v-298c0 -42.667 13.5 -75.167 40.5 -97.5s61.833 -33.5 104.5 -33.5h12
c42.667 0 77.5 11 104.5 33s40.5 54.667 40.5 98v297zM236.997 753.002h-76v83h76v-83zM382.997 753.002h-75v83h75v-83z" />
    <glyph glyph-name="multiply" unicode="&#xd7;" horiz-adv-x="479" 
d="M424 490l-149 -238l157 -252h-72l-121 196l-120 -196h-72l157 252l-149 238h69l115 -183l116 183h69z" />
    <glyph glyph-name="Oslash" unicode="&#xd8;" horiz-adv-x="540" 
d="M289 690c32.667 0 63.333 -5.33203 92 -15.999l34 88h59l-43 -116c24 -17.333 43.167 -39.333 57.5 -66s21.5 -57 21.5 -91v-298c0 -32 -5.66699 -60.333 -17 -85s-26.833 -45.667 -46.5 -63s-43 -30.5 -70 -39.5s-56.167 -13.5 -87.5 -13.5h-12
c-15.333 0 -30 1.16699 -44 3.5s-27.333 5.16602 -40 8.49902l-28 -76h-62l37 99c-26.667 17.333 -47.334 39.833 -62.001 67.5s-22 60.5 -22 98.5v298c0 30 5.66699 57.5 17 82.5s27 46.167 47 63.5s43.333 30.833 70 40.5s55.334 14.5 86.001 14.5h13v0zM131.999 191.001
c0 -19.333 3.33301 -36.501 10 -51.501s16 -27.5 28 -37.5l185 504c-20.667 9.33301 -42.667 14 -66 14h-13c-20 0 -38.667 -3.16699 -56 -9.5s-32.5 -15.166 -45.5 -26.499s-23.333 -25 -31 -41s-11.5 -34 -11.5 -54v-298v0zM433.999 488
c0 15.333 -3.16797 29.668 -9.50098 43.001s-15.166 24.666 -26.499 33.999l-180 -497c8.66699 -3.33301 18 -5.5 28 -6.5s20.333 -1.5 31 -1.5h12c42.667 0 77.5 11 104.5 33s40.5 54.667 40.5 98v297z" />
    <glyph glyph-name="Ugrave" unicode="&#xd9;" horiz-adv-x="602" 
d="M444 680l76 -0.000976562v-485c0 -35.333 -5.66699 -65.833 -17 -91.5s-26.666 -47 -45.999 -64s-42.333 -29.5 -69 -37.5s-55.334 -12 -86.001 -12c-72 0 -126.667 18.333 -164 55s-56 86.667 -56 150v485h76v-485c0 -24 3.83301 -44.667 11.5 -62s18 -31.333 31 -42
s28.167 -18.5 45.5 -23.5s36 -7.5 56 -7.5c40.667 0 74.5 11.333 101.5 34s40.5 56.334 40.5 101.001v485zM248 896.999l80 -148l-43 -36l-91 142z" />
    <glyph glyph-name="Uacute" unicode="&#xda;" horiz-adv-x="602" 
d="M444 680l76 -0.000976562v-485c0 -35.333 -5.66699 -65.833 -17 -91.5s-26.666 -47 -45.999 -64s-42.333 -29.5 -69 -37.5s-55.334 -12 -86.001 -12c-72 0 -126.667 18.333 -164 55s-56 86.667 -56 150v485h76v-485c0 -24 3.83301 -44.667 11.5 -62s18 -31.333 31 -42
s28.167 -18.5 45.5 -23.5s36 -7.5 56 -7.5c40.667 0 74.5 11.333 101.5 34s40.5 56.334 40.5 101.001v485zM325 890.999l52 -38l-92 -140l-42 33z" />
    <glyph glyph-name="Ucircumflex" unicode="&#xdb;" horiz-adv-x="602" 
d="M444 680l76 -0.000976562v-485c0 -35.333 -5.66699 -65.833 -17 -91.5s-26.666 -47 -45.999 -64s-42.333 -29.5 -69 -37.5s-55.334 -12 -86.001 -12c-72 0 -126.667 18.333 -164 55s-56 86.667 -56 150v485h76v-485c0 -24 3.83301 -44.667 11.5 -62s18 -31.333 31 -42
s28.167 -18.5 45.5 -23.5s36 -7.5 56 -7.5c40.667 0 74.5 11.333 101.5 34s40.5 56.334 40.5 101.001v485zM286 875.999l107 -91l-29 -44l-78 62l-78 -61l-30 45z" />
    <glyph glyph-name="Udieresis" unicode="&#xdc;" horiz-adv-x="602" 
d="M444 680l76 -0.000976562v-485c0 -35.333 -5.66699 -65.833 -17 -91.5s-26.666 -47 -45.999 -64s-42.333 -29.5 -69 -37.5s-55.334 -12 -86.001 -12c-72 0 -126.667 18.333 -164 55s-56 86.667 -56 150v485h76v-485c0 -24 3.83301 -44.667 11.5 -62s18 -31.333 31 -42
s28.167 -18.5 45.5 -23.5s36 -7.5 56 -7.5c40.667 0 74.5 11.333 101.5 34s40.5 56.334 40.5 101.001v485zM250 753.999h-76v83h76v-83zM396 753.999h-75v83h75v-83z" />
    <glyph glyph-name="Yacute" unicode="&#xdd;" horiz-adv-x="537" 
d="M224 273l-203 407h84l158 -324l161 324h83l-207 -407v-273h-76v273zM300 892l52 -38l-92 -140l-42 33z" />
    <glyph glyph-name="Thorn" unicode="&#xde;" horiz-adv-x="439" 
d="M236 544c27.333 0 50.8311 -4.16797 70.498 -12.501s35.834 -20.166 48.501 -35.499s22 -33.5 28 -54.5s9 -44.167 9 -69.5v-30c0 -55.333 -13.667 -95.5 -41 -120.5s-65.666 -37.5 -114.999 -37.5h-113v-184h-76v679h76v-135h113zM315.998 371.999
c0 30.667 -7 55.5 -21 74.5s-34.667 28.5 -62 28.5h-110v-222h111c30 0 51.167 8.33301 63.5 25s18.5 38 18.5 64v30z" />
    <glyph glyph-name="agrave" unicode="&#xe0;" horiz-adv-x="438" 
d="M225 500c52 0 89.834 -12.1689 113.501 -36.502s35.5 -62.5 35.5 -114.5v-349h-62l-5 66c-12.667 -21.333 -29.167 -39.166 -49.5 -53.499s-44.166 -21.5 -71.499 -21.5c-42.667 0 -76.334 10.5 -101.001 31.5s-37 52.833 -37 95.5v126l252 53v52
c0 31.333 -5.83301 53 -17.5 65s-32.834 18 -63.501 18c-8.66699 0 -18.834 -1.5 -30.501 -4.5s-23.667 -7 -36 -12s-24.166 -10.5 -35.499 -16.5s-21 -11.667 -29 -17l-28 59c9.33301 6.66699 20.833 13.5 34.5 20.5s28 13.333 43 19s30.167 10.334 45.5 14.001
s29.333 5.5 42 5.5zM299.001 237.998l-175.001 -37.001v-81c0 -22.667 7.33301 -38.667 22 -48s33.334 -14 56.001 -14c13.333 0 25.833 2.5 37.5 7.5s22 11.833 31 20.5s16 18.834 21 30.501s7.5 24.5 7.5 38.5v83zM164 727.997l80 -148l-43 -36l-91 142z" />
    <glyph glyph-name="aacute" unicode="&#xe1;" horiz-adv-x="438" 
d="M225 500c52 0 89.834 -12.1689 113.501 -36.502s35.5 -62.5 35.5 -114.5v-349h-62l-5 66c-12.667 -21.333 -29.167 -39.166 -49.5 -53.499s-44.166 -21.5 -71.499 -21.5c-42.667 0 -76.334 10.5 -101.001 31.5s-37 52.833 -37 95.5v126l252 53v52
c0 31.333 -5.83301 53 -17.5 65s-32.834 18 -63.501 18c-8.66699 0 -18.834 -1.5 -30.501 -4.5s-23.667 -7 -36 -12s-24.166 -10.5 -35.499 -16.5s-21 -11.667 -29 -17l-28 59c9.33301 6.66699 20.833 13.5 34.5 20.5s28 13.333 43 19s30.167 10.334 45.5 14.001
s29.333 5.5 42 5.5zM299.001 237.998l-175.001 -37.001v-81c0 -22.667 7.33301 -38.667 22 -48s33.334 -14 56.001 -14c13.333 0 25.833 2.5 37.5 7.5s22 11.833 31 20.5s16 18.834 21 30.501s7.5 24.5 7.5 38.5v83zM241 720.997l52 -38l-92 -140l-42 33z" />
    <glyph glyph-name="acircumflex" unicode="&#xe2;" horiz-adv-x="438" 
d="M225 500c52 0 89.834 -12.1689 113.501 -36.502s35.5 -62.5 35.5 -114.5v-349h-62l-5 66c-12.667 -21.333 -29.167 -39.166 -49.5 -53.499s-44.166 -21.5 -71.499 -21.5c-42.667 0 -76.334 10.5 -101.001 31.5s-37 52.833 -37 95.5v126l252 53v52
c0 31.333 -5.83301 53 -17.5 65s-32.834 18 -63.501 18c-8.66699 0 -18.834 -1.5 -30.501 -4.5s-23.667 -7 -36 -12s-24.166 -10.5 -35.499 -16.5s-21 -11.667 -29 -17l-28 59c9.33301 6.66699 20.833 13.5 34.5 20.5s28 13.333 43 19s30.167 10.334 45.5 14.001
s29.333 5.5 42 5.5zM299.001 237.998l-175.001 -37.001v-81c0 -22.667 7.33301 -38.667 22 -48s33.334 -14 56.001 -14c13.333 0 25.833 2.5 37.5 7.5s22 11.833 31 20.5s16 18.834 21 30.501s7.5 24.5 7.5 38.5v83zM203 694.997l107 -91l-29 -44l-78 62l-78 -61l-30 45z
" />
    <glyph glyph-name="atilde" unicode="&#xe3;" horiz-adv-x="438" 
d="M225 500c52 0 89.834 -12.1689 113.501 -36.502s35.5 -62.5 35.5 -114.5v-349h-62l-5 66c-12.667 -21.333 -29.167 -39.166 -49.5 -53.499s-44.166 -21.5 -71.499 -21.5c-42.667 0 -76.334 10.5 -101.001 31.5s-37 52.833 -37 95.5v126l252 53v52
c0 31.333 -5.83301 53 -17.5 65s-32.834 18 -63.501 18c-8.66699 0 -18.834 -1.5 -30.501 -4.5s-23.667 -7 -36 -12s-24.166 -10.5 -35.499 -16.5s-21 -11.667 -29 -17l-28 59c9.33301 6.66699 20.833 13.5 34.5 20.5s28 13.333 43 19s30.167 10.334 45.5 14.001
s29.333 5.5 42 5.5zM299.001 237.998l-175.001 -37.001v-81c0 -22.667 7.33301 -38.667 22 -48s33.334 -14 56.001 -14c13.333 0 25.833 2.5 37.5 7.5s22 11.833 31 20.5s16 18.834 21 30.501s7.5 24.5 7.5 38.5v83zM149 628.997
c-9.33301 0 -17.168 -3.83008 -23.501 -11.4971s-11.5 -16.834 -15.5 -27.501l-38 30c12.667 24.667 24.667 42.5 36 53.5s26 16.5 44 16.5c10.667 0 21.167 -2.33301 31.5 -7s20 -9.83398 29 -15.501s17.333 -10.667 25 -15s14.5 -6.5 20.5 -6.5
c9.33301 0.666992 16.166 4.66699 20.499 12s8.83301 15.666 13.5 24.999l41 -26c-7.33301 -20 -17 -37 -29 -51s-26.667 -21 -44 -21c-13.333 0 -25.166 2.33301 -35.499 7s-19.666 9.66699 -27.999 15l-24 15c-7.66699 4.66699 -15.5 7 -23.5 7z" />
    <glyph glyph-name="adieresis" unicode="&#xe4;" horiz-adv-x="438" 
d="M225 500c52 0 89.834 -12.1689 113.501 -36.502s35.5 -62.5 35.5 -114.5v-349h-62l-5 66c-12.667 -21.333 -29.167 -39.166 -49.5 -53.499s-44.166 -21.5 -71.499 -21.5c-42.667 0 -76.334 10.5 -101.001 31.5s-37 52.833 -37 95.5v126l252 53v52
c0 31.333 -5.83301 53 -17.5 65s-32.834 18 -63.501 18c-8.66699 0 -18.834 -1.5 -30.501 -4.5s-23.667 -7 -36 -12s-24.166 -10.5 -35.499 -16.5s-21 -11.667 -29 -17l-28 59c9.33301 6.66699 20.833 13.5 34.5 20.5s28 13.333 43 19s30.167 10.334 45.5 14.001
s29.333 5.5 42 5.5zM299.001 237.998l-175.001 -37.001v-81c0 -22.667 7.33301 -38.667 22 -48s33.334 -14 56.001 -14c13.333 0 25.833 2.5 37.5 7.5s22 11.833 31 20.5s16 18.834 21 30.501s7.5 24.5 7.5 38.5v83zM166 574.997h-76v83h76v-83zM312 574.997h-75v83h75v-83z
" />
    <glyph glyph-name="aring" unicode="&#xe5;" horiz-adv-x="438" 
d="M225 500c52 0 89.834 -12.1689 113.501 -36.502s35.5 -62.5 35.5 -114.5v-349h-62l-5 66c-12.667 -21.333 -29.167 -39.166 -49.5 -53.499s-44.166 -21.5 -71.499 -21.5c-42.667 0 -76.334 10.5 -101.001 31.5s-37 52.833 -37 95.5v126l252 53v52
c0 31.333 -5.83301 53 -17.5 65s-32.834 18 -63.501 18c-8.66699 0 -18.834 -1.5 -30.501 -4.5s-23.667 -7 -36 -12s-24.166 -10.5 -35.499 -16.5s-21 -11.667 -29 -17l-28 59c9.33301 6.66699 20.833 13.5 34.5 20.5s28 13.333 43 19s30.167 10.334 45.5 14.001
s29.333 5.5 42 5.5zM299.001 237.998l-175.001 -37.001v-81c0 -22.667 7.33301 -38.667 22 -48s33.334 -14 56.001 -14c13.333 0 25.833 2.5 37.5 7.5s22 11.833 31 20.5s16 18.834 21 30.501s7.5 24.5 7.5 38.5v83zM208 556.997c-23.333 0 -41.5 7.50195 -54.5 22.502
s-19.5 33.5 -19.5 55.5c0 28 7.66699 48 23 60s32.333 18 51 18c24.667 0 43.167 -7.33301 55.5 -22s18.5 -33.334 18.5 -56.001c0 -26.667 -7.5 -46.334 -22.5 -59.001s-32.167 -19 -51.5 -19zM176 633.999c0 -16.667 3.66699 -27.166 11 -31.499s14.666 -6.5 21.999 -6.5
c9.33301 0 17.166 2.83301 23.499 8.5s9.5 15.5 9.5 29.5c0 17.333 -3.66699 28.666 -11 33.999s-14.666 8 -21.999 8c-9.33301 0 -17.166 -3.5 -23.499 -10.5s-9.5 -17.5 -9.5 -31.5z" />
    <glyph glyph-name="ae" unicode="&#xe6;" horiz-adv-x="689" 
d="M488 58c20 0 38.832 3.83691 56.499 11.5039s36.167 20.167 55.5 37.5l42 -53c-22.667 -22.667 -46.834 -39 -72.501 -49s-53.834 -15 -84.501 -15c-40.667 0 -75.167 7 -103.5 21s-49.166 35.667 -62.499 65c-15.333 -33.333 -35.166 -55.833 -59.499 -67.5
s-49.833 -17.5 -76.5 -17.5c-42.667 0 -76 10.5 -100 31.5s-36 52.833 -36 95.5v122l251 41v69c0 31.333 -6.16699 53.166 -18.5 65.499s-33.833 18.5 -64.5 18.5c-8.66699 0 -18.834 -1.5 -30.501 -4.5s-23.5 -7 -35.5 -12s-23.667 -10.5 -35 -16.5
s-20.666 -11.667 -27.999 -17l-29 59c10 7.33301 22 14.666 36 21.999s28.667 13.666 44 18.999s30.5 9.66602 45.5 12.999s28.5 5 40.5 5c62 0 102.333 -21.667 121 -65c13.333 19.333 30.833 34.5 52.5 45.5s46.834 16.5 75.501 16.5c48.667 0 88 -12.833 118 -38.5
s45 -66.5 45 -122.5v-70l-262 -38v-64c0 -34 10.667 -60.5 32 -79.5s49 -28.5 83 -28.5zM471.999 429.004c-28 0 -51.5 -9.33203 -70.5 -27.999s-28.5 -42.334 -28.5 -71.001v-43l187 25v37c0 25.333 -7.83301 45 -23.5 59s-37.167 21 -64.5 21zM298.999 223.005
l-177.002 -28v-74c0 -22.667 7.33301 -38.667 22 -48s33.334 -14 56.001 -14c26.667 0 49.834 7.66699 69.501 23s29.5 37 29.5 65v76z" />
    <glyph glyph-name="ccedilla" unicode="&#xe7;" horiz-adv-x="419" 
d="M213 430c-28 0 -50.168 -8.66602 -66.501 -25.999s-24.5 -40 -24.5 -68v-184c0 -30 8.33301 -52.833 25 -68.5s40 -23.5 70 -23.5c17.333 0 34.5 3.5 51.5 10.5s31.167 17.833 42.5 32.5l47 -51c-18.667 -21.333 -40.5 -37 -65.5 -47s-50.833 -15 -77.5 -15
c-51.333 0 -92.166 14.167 -122.499 42.5s-45.5 68.166 -45.5 119.499v184c0 24 4 46 12 66s19.333 37.333 34 52s32.167 26 52.5 34s42.833 12 67.5 12c62 0 111.667 -25.333 149 -76l-51 -50c-12 16.667 -26.5 30.167 -43.5 40.5s-35.167 15.5 -54.5 15.5zM251.999 14.001
l-13 -55.999c4.66699 -2 10.5 -5 17.5 -9s13.667 -9.66699 20 -17s11.833 -16.5 16.5 -27.5s7 -24.5 7 -40.5c0 -29.333 -9.66699 -52.333 -29 -69s-44.333 -30.667 -75 -42l-20 44c13.333 7.33301 26 15.333 38 24s18 21.667 18 39c0 14.667 -2 26.167 -6 34.5
s-8.83301 14.666 -14.5 18.999s-11.667 7 -18 8s-11.833 2.16699 -16.5 3.5l16 89h59z" />
    <glyph glyph-name="egrave" unicode="&#xe8;" horiz-adv-x="429" 
d="M237 60c20 0 38.8369 3.33301 56.5039 10s36.167 19 55.5 37l42 -53c-22.667 -23.333 -46.834 -39.833 -72.501 -49.5s-53.834 -14.5 -84.501 -14.5c-58 0 -103.667 14.833 -137 44.5s-50 73.5 -50 131.5v170c0 25.333 4.33301 48.166 13 68.499s20.667 37.5 36 51.5
s33.666 24.833 54.999 32.5s44.666 11.5 69.999 11.5c24 0 46 -3.83301 66 -11.5s37.167 -18.667 51.5 -33s25.5 -31.666 33.5 -51.999s12 -42.833 12 -67.5v-74l-262 -47v-49c0 -34 10.667 -60.167 32 -78.5s49 -27.5 83 -27.5zM221.004 430c-28 0 -51.5 -8.5 -70.5 -25.5
s-28.5 -39.833 -28.5 -68.5v-65l187 34l-2 43c-4 26.667 -12.5 47 -25.5 61s-33.167 21 -60.5 21zM173.004 717l80 -148l-43 -36l-91 142z" />
    <glyph glyph-name="eacute" unicode="&#xe9;" horiz-adv-x="429" 
d="M237 60c20 0 38.8369 3.33301 56.5039 10s36.167 19 55.5 37l42 -53c-22.667 -23.333 -46.834 -39.833 -72.501 -49.5s-53.834 -14.5 -84.501 -14.5c-58 0 -103.667 14.833 -137 44.5s-50 73.5 -50 131.5v170c0 25.333 4.33301 48.166 13 68.499s20.667 37.5 36 51.5
s33.666 24.833 54.999 32.5s44.666 11.5 69.999 11.5c24 0 46 -3.83301 66 -11.5s37.167 -18.667 51.5 -33s25.5 -31.666 33.5 -51.999s12 -42.833 12 -67.5v-74l-262 -47v-49c0 -34 10.667 -60.167 32 -78.5s49 -27.5 83 -27.5zM221.004 430c-28 0 -51.5 -8.5 -70.5 -25.5
s-28.5 -39.833 -28.5 -68.5v-65l187 34l-2 43c-4 26.667 -12.5 47 -25.5 61s-33.167 21 -60.5 21zM250.004 721l52 -38l-92 -140l-42 33z" />
    <glyph glyph-name="ecircumflex" unicode="&#xea;" horiz-adv-x="429" 
d="M237 60c20 0 38.8369 3.33301 56.5039 10s36.167 19 55.5 37l42 -53c-22.667 -23.333 -46.834 -39.833 -72.501 -49.5s-53.834 -14.5 -84.501 -14.5c-58 0 -103.667 14.833 -137 44.5s-50 73.5 -50 131.5v170c0 25.333 4.33301 48.166 13 68.499s20.667 37.5 36 51.5
s33.666 24.833 54.999 32.5s44.666 11.5 69.999 11.5c24 0 46 -3.83301 66 -11.5s37.167 -18.667 51.5 -33s25.5 -31.666 33.5 -51.999s12 -42.833 12 -67.5v-74l-262 -47v-49c0 -34 10.667 -60.167 32 -78.5s49 -27.5 83 -27.5zM221.004 430c-28 0 -51.5 -8.5 -70.5 -25.5
s-28.5 -39.833 -28.5 -68.5v-65l187 34l-2 43c-4 26.667 -12.5 47 -25.5 61s-33.167 21 -60.5 21zM211.004 694l107 -91l-29 -44l-78 62l-78 -61l-30 45z" />
    <glyph glyph-name="edieresis" unicode="&#xeb;" horiz-adv-x="429" 
d="M237 60c20 0 38.8369 3.33301 56.5039 10s36.167 19 55.5 37l42 -53c-22.667 -23.333 -46.834 -39.833 -72.501 -49.5s-53.834 -14.5 -84.501 -14.5c-58 0 -103.667 14.833 -137 44.5s-50 73.5 -50 131.5v170c0 25.333 4.33301 48.166 13 68.499s20.667 37.5 36 51.5
s33.666 24.833 54.999 32.5s44.666 11.5 69.999 11.5c24 0 46 -3.83301 66 -11.5s37.167 -18.667 51.5 -33s25.5 -31.666 33.5 -51.999s12 -42.833 12 -67.5v-74l-262 -47v-49c0 -34 10.667 -60.167 32 -78.5s49 -27.5 83 -27.5zM221.004 430c-28 0 -51.5 -8.5 -70.5 -25.5
s-28.5 -39.833 -28.5 -68.5v-65l187 34l-2 43c-4 26.667 -12.5 47 -25.5 61s-33.167 21 -60.5 21zM175.004 567h-76v83h76v-83zM321.004 567h-75v83h75v-83z" />
    <glyph glyph-name="igrave" unicode="&#xec;" horiz-adv-x="246" 
d="M84 490h74v-490h-74v490zM72 727l80 -148l-43 -36l-91 142z" />
    <glyph glyph-name="iacute" unicode="&#xed;" horiz-adv-x="246" 
d="M85 490h74v-490h-74v490zM148 721l52 -38l-92 -140l-42 33z" />
    <glyph glyph-name="icircumflex" unicode="&#xee;" horiz-adv-x="246" 
d="M81 490h74v-490h-74v490zM117 703l107 -91l-29 -44l-78 62l-78 -61l-30 45z" />
    <glyph glyph-name="idieresis" unicode="&#xef;" horiz-adv-x="246" 
d="M93 490h74v-490h-74v490zM89 575h-76v83h76v-83zM235 575h-75v83h75v-83z" />
    <glyph glyph-name="eth" unicode="&#xf0;" horiz-adv-x="449" 
d="M371 724l21.999 -49.999l-95 -53c34.667 -45.333 59.834 -91.833 75.501 -139.5s23.5 -98.167 23.5 -151.5v-177c0 -28.667 -4.83301 -53.167 -14.5 -73.5s-22.667 -37 -39 -50s-35.5 -22.667 -57.5 -29s-45.333 -9.5 -70 -9.5c-56.667 0 -99 14.167 -127 42.5
s-42 68.166 -42 119.499v166c0 46 11.667 83.167 35 111.5s62.333 42.833 117 43.5c23.333 0 43.5 -3.16699 60.5 -9.5s33.167 -16.5 48.5 -30.5c-8 32 -18.5 59.833 -31.5 83.5s-28.167 46.167 -45.5 67.5l-118 -64l-22 49l100 55c-19.333 18 -37 31.5 -53 40.5
s-34 15.833 -54 20.5l24 67c18 -5.33301 33.833 -11 47.5 -17s26.5 -12.667 38.5 -20s23.333 -15.333 34 -24s21.667 -18.667 33 -30zM320.999 297.001c0 37.333 -10 64.5 -30 81.5s-45.333 25.5 -76 25.5c-33.333 0 -57 -7.83301 -71 -23.5s-21 -38.167 -21 -67.5v-160
c0 -34.667 8.5 -58.667 25.5 -72s39.5 -20 67.5 -20c34.667 0 60.5 7.83301 77.5 23.5s26.167 38.5 27.5 68.5v144z" />
    <glyph glyph-name="ntilde" unicode="&#xf1;" horiz-adv-x="489" 
d="M279 501c52 0 89.166 -13.833 111.499 -41.5s33.5 -67.5 33.5 -119.5v-340h-76v331c0 30.667 -6 55.167 -18 73.5s-33.333 27.5 -64 27.5c-15.333 0 -30.166 -3.83301 -44.499 -11.5s-26.833 -17.834 -37.5 -30.501s-19.167 -26.667 -25.5 -42s-9.5 -30.666 -9.5 -45.999
v-302h-76v490h70l5 -65c16.667 25.333 34.667 44.333 54 57s45 19 77 19zM180.999 629c-9.33301 0 -17.168 -3.83008 -23.501 -11.4971s-11.5 -16.834 -15.5 -27.501l-38 30c12.667 24.667 24.667 42.5 36 53.5s26 16.5 44 16.5c10.667 0 21.167 -2.33301 31.5 -7
s20 -9.83398 29 -15.501s17.333 -10.667 25 -15s14.5 -6.5 20.5 -6.5c9.33301 0.666992 16.166 4.66699 20.499 12s8.83301 15.666 13.5 24.999l41 -26c-7.33301 -20 -17 -37 -29 -51s-26.667 -21 -44 -21c-13.333 0 -25.166 2.33301 -35.499 7s-19.666 9.66699 -27.999 15
l-24 15c-7.66699 4.66699 -15.5 7 -23.5 7z" />
    <glyph glyph-name="ograve" unicode="&#xf2;" horiz-adv-x="446" 
d="M223 500c25.333 0 48.665 -3.66699 69.998 -11s39.833 -17.833 55.5 -31.5s28 -30.5 37 -50.5s13.5 -42.667 13.5 -68v-187c0 -26 -4.33301 -49 -13 -69s-20.667 -36.833 -36 -50.5s-33.833 -24.167 -55.5 -31.5s-45.167 -11 -70.5 -11c-52 0 -94.5 14 -127.5 42
s-49.5 68 -49.5 120v187c0 25.333 4.33301 48 13 68s20.834 36.833 36.501 50.5s34.334 24.167 56.001 31.5s45.167 11 70.5 11zM322.999 339c0 32 -8.66797 55.168 -26.001 69.501s-42 21.5 -74 21.5c-30.667 0 -55 -7.66699 -73 -23s-27 -38 -27 -68v-186
c0 -32.667 8.66699 -56.334 26 -71.001s42.333 -22 75 -22c30.667 0 54.834 7.5 72.501 22.5s26.5 38.167 26.5 69.5v187zM175.998 717.001l80 -148l-43 -36l-91 142z" />
    <glyph glyph-name="oacute" unicode="&#xf3;" horiz-adv-x="446" 
d="M223 500c25.333 0 48.665 -3.66699 69.998 -11s39.833 -17.833 55.5 -31.5s28 -30.5 37 -50.5s13.5 -42.667 13.5 -68v-187c0 -26 -4.33301 -49 -13 -69s-20.667 -36.833 -36 -50.5s-33.833 -24.167 -55.5 -31.5s-45.167 -11 -70.5 -11c-52 0 -94.5 14 -127.5 42
s-49.5 68 -49.5 120v187c0 25.333 4.33301 48 13 68s20.834 36.833 36.501 50.5s34.334 24.167 56.001 31.5s45.167 11 70.5 11zM322.999 339c0 32 -8.66797 55.168 -26.001 69.501s-42 21.5 -74 21.5c-30.667 0 -55 -7.66699 -73 -23s-27 -38 -27 -68v-186
c0 -32.667 8.66699 -56.334 26 -71.001s42.333 -22 75 -22c30.667 0 54.834 7.5 72.501 22.5s26.5 38.167 26.5 69.5v187zM252.998 721.001l52 -38l-92 -140l-42 33z" />
    <glyph glyph-name="ocircumflex" unicode="&#xf4;" horiz-adv-x="446" 
d="M223 500c25.333 0 48.665 -3.66699 69.998 -11s39.833 -17.833 55.5 -31.5s28 -30.5 37 -50.5s13.5 -42.667 13.5 -68v-187c0 -26 -4.33301 -49 -13 -69s-20.667 -36.833 -36 -50.5s-33.833 -24.167 -55.5 -31.5s-45.167 -11 -70.5 -11c-52 0 -94.5 14 -127.5 42
s-49.5 68 -49.5 120v187c0 25.333 4.33301 48 13 68s20.834 36.833 36.501 50.5s34.334 24.167 56.001 31.5s45.167 11 70.5 11zM322.999 339c0 32 -8.66797 55.168 -26.001 69.501s-42 21.5 -74 21.5c-30.667 0 -55 -7.66699 -73 -23s-27 -38 -27 -68v-186
c0 -32.667 8.66699 -56.334 26 -71.001s42.333 -22 75 -22c30.667 0 54.834 7.5 72.501 22.5s26.5 38.167 26.5 69.5v187zM212.998 694.001l107 -91l-29 -44l-78 62l-78 -61l-30 45z" />
    <glyph glyph-name="otilde" unicode="&#xf5;" horiz-adv-x="446" 
d="M223 500c25.333 0 48.665 -3.66699 69.998 -11s39.833 -17.833 55.5 -31.5s28 -30.5 37 -50.5s13.5 -42.667 13.5 -68v-187c0 -26 -4.33301 -49 -13 -69s-20.667 -36.833 -36 -50.5s-33.833 -24.167 -55.5 -31.5s-45.167 -11 -70.5 -11c-52 0 -94.5 14 -127.5 42
s-49.5 68 -49.5 120v187c0 25.333 4.33301 48 13 68s20.834 36.833 36.501 50.5s34.334 24.167 56.001 31.5s45.167 11 70.5 11zM322.999 339c0 32 -8.66797 55.168 -26.001 69.501s-42 21.5 -74 21.5c-30.667 0 -55 -7.66699 -73 -23s-27 -38 -27 -68v-186
c0 -32.667 8.66699 -56.334 26 -71.001s42.333 -22 75 -22c30.667 0 54.834 7.5 72.501 22.5s26.5 38.167 26.5 69.5v187zM159.998 610.001c-9.33301 0 -17.168 -3.83008 -23.501 -11.4971s-11.5 -16.834 -15.5 -27.501l-38 30c12.667 24.667 24.667 42.5 36 53.5
s26 16.5 44 16.5c10.667 0 21.167 -2.33301 31.5 -7s20 -9.83398 29 -15.501s17.333 -10.667 25 -15s14.5 -6.5 20.5 -6.5c9.33301 0.666992 16.166 4.66699 20.499 12s8.83301 15.666 13.5 24.999l41 -26c-7.33301 -20 -17 -37 -29 -51s-26.667 -21 -44 -21
c-13.333 0 -25.166 2.33301 -35.499 7s-19.666 9.66699 -27.999 15l-24 15c-7.66699 4.66699 -15.5 7 -23.5 7z" />
    <glyph glyph-name="odieresis" unicode="&#xf6;" horiz-adv-x="446" 
d="M223 500c25.333 0 48.665 -3.66699 69.998 -11s39.833 -17.833 55.5 -31.5s28 -30.5 37 -50.5s13.5 -42.667 13.5 -68v-187c0 -26 -4.33301 -49 -13 -69s-20.667 -36.833 -36 -50.5s-33.833 -24.167 -55.5 -31.5s-45.167 -11 -70.5 -11c-52 0 -94.5 14 -127.5 42
s-49.5 68 -49.5 120v187c0 25.333 4.33301 48 13 68s20.834 36.833 36.501 50.5s34.334 24.167 56.001 31.5s45.167 11 70.5 11zM322.999 339c0 32 -8.66797 55.168 -26.001 69.501s-42 21.5 -74 21.5c-30.667 0 -55 -7.66699 -73 -23s-27 -38 -27 -68v-186
c0 -32.667 8.66699 -56.334 26 -71.001s42.333 -22 75 -22c30.667 0 54.834 7.5 72.501 22.5s26.5 38.167 26.5 69.5v187zM177.998 565.001h-76v83h76v-83zM323.998 565.001h-75v83h75v-83z" />
    <glyph glyph-name="divide" unicode="&#xf7;" horiz-adv-x="578" 
d="M47 312h484v-61h-484v61zM240 174h97v-103h-97v103zM337 385h-97v103h97v-103z" />
    <glyph glyph-name="oslash" unicode="&#xf8;" horiz-adv-x="433" 
d="M52 -66l39 90c-18.667 14 -33.334 31.5 -44.001 52.5s-16 46.167 -16 75.5v187c0 25.333 4.33301 48 13 68s20.834 37 36.501 51s34.334 24.667 56.001 32s45.5 11 71.5 11c32.667 0 61 -7 85 -21l30 66h48l-39 -89c15.333 -13.333 27.666 -30 36.999 -50
s14 -42.667 14 -68v-187c0 -26 -4.33301 -49 -13 -69s-20.667 -36.833 -36 -50.5s-33.833 -24.167 -55.5 -31.5s-45.167 -11 -70.5 -11c-28 0 -53 4 -75 12l-29 -68h-52zM107 153c0 -22 5.66699 -39.668 17 -53.001l142 316c-7.33301 4.66699 -16 8.33398 -26 11.001
s-20.667 4 -32 4c-31.333 0 -56 -7.83301 -74 -23.5s-27 -38.5 -27 -68.5v-186v0zM307 339.999c0 15.333 -2.33398 28 -7.00098 38l-139 -311c12 -4.66699 27.667 -7 47 -7c30.667 0 54.834 7.5 72.501 22.5s26.5 38.167 26.5 69.5v188z" />
    <glyph glyph-name="ugrave" unicode="&#xf9;" horiz-adv-x="457" 
d="M317 490h76v-338c0 -52 -14 -92 -42 -120s-67.667 -42 -119 -42c-52 0 -91.667 14 -119 42s-41 68 -41 120v338h77v-338c0 -30.667 6.16699 -53.667 18.5 -69s33.833 -23 64.5 -23c30 0 51.667 7.66699 65 23s20 38.333 20 69v338zM182 717l80 -148l-43 -36l-91 142z" />
    <glyph glyph-name="uacute" unicode="&#xfa;" horiz-adv-x="457" 
d="M317 490h76v-338c0 -52 -14 -92 -42 -120s-67.667 -42 -119 -42c-52 0 -91.667 14 -119 42s-41 68 -41 120v338h77v-338c0 -30.667 6.16699 -53.667 18.5 -69s33.833 -23 64.5 -23c30 0 51.667 7.66699 65 23s20 38.333 20 69v338zM259 711l52 -38l-92 -140l-42 33z" />
    <glyph glyph-name="ucircumflex" unicode="&#xfb;" horiz-adv-x="457" 
d="M317 490h76v-338c0 -52 -14 -92 -42 -120s-67.667 -42 -119 -42c-52 0 -91.667 14 -119 42s-41 68 -41 120v338h77v-338c0 -30.667 6.16699 -53.667 18.5 -69s33.833 -23 64.5 -23c30 0 51.667 7.66699 65 23s20 38.333 20 69v338zM219 703l107 -91l-29 -44l-78 62
l-78 -61l-30 45z" />
    <glyph glyph-name="udieresis" unicode="&#xfc;" horiz-adv-x="457" 
d="M317 490h76v-338c0 -52 -14 -92 -42 -120s-67.667 -42 -119 -42c-52 0 -91.667 14 -119 42s-41 68 -41 120v338h77v-338c0 -30.667 6.16699 -53.667 18.5 -69s33.833 -23 64.5 -23c30 0 51.667 7.66699 65 23s20 38.333 20 69v338zM184 584h-76v83h76v-83zM330 584h-75
v83h75v-83z" />
    <glyph glyph-name="yacute" unicode="&#xfd;" horiz-adv-x="394" 
d="M160 -14l-141.001 504h78l102 -412l101 412h79l-161 -560c-8 -28 -18.167 -51.833 -30.5 -71.5s-26.5 -35.5 -42.5 -47.5s-34 -20.667 -54 -26s-42 -8.33301 -66 -9l-6 62c32.667 1.33301 59.834 11.333 81.501 30s37.5 43.667 47.5 75zM231.999 711l52 -38l-92 -140
l-42 33z" />
    <glyph glyph-name="thorn" unicode="&#xfe;" horiz-adv-x="474" 
d="M267 500c56.667 0 97.501 -13.499 122.501 -40.499s37.5 -66.167 37.5 -117.5v-191c0 -58 -14.333 -99.5 -43 -124.5s-68 -37.5 -118 -37.5c-28.667 0 -52.167 4.5 -70.5 13.5s-34.5 22.833 -48.5 41.5v-280h-74v961h74v-273c17.333 19.333 35.666 32.166 54.999 38.499
s41 9.5 65 9.5zM352.001 331.001c0 37.333 -8.50098 63.167 -25.501 77.5s-40.167 21.5 -69.5 21.5c-35.333 0 -62.166 -9.5 -80.499 -28.5s-27.5 -43.167 -27.5 -72.5v-145c0 -83.333 36 -125 108 -125c33.333 0 57.5 7.16699 72.5 21.5s22.5 36.5 22.5 66.5v184z" />
    <glyph glyph-name="ydieresis" unicode="&#xff;" horiz-adv-x="394" 
d="M160 -14l-141.001 504h78l102 -412l101 412h79l-161 -560c-8 -28 -18.167 -51.833 -30.5 -71.5s-26.5 -35.5 -42.5 -47.5s-34 -20.667 -54 -26s-42 -8.33301 -66 -9l-6 62c32.667 1.33301 59.834 11.333 81.501 30s37.5 43.667 47.5 75zM156.999 584h-76v83h76v-83z
M302.999 584h-75v83h75v-83z" />
    <glyph glyph-name="dotlessi" unicode="&#x131;" horiz-adv-x="246" 
d="M82 490h74v-490h-74v490z" />
    <glyph glyph-name="Lslash" unicode="&#x141;" 
d="M197 680v-274l100 68l21 -47l-121 -79v-278h267v-70h-343v307l-89 -59l-20 45l109 72v315h76z" />
    <glyph glyph-name="lslash" unicode="&#x142;" horiz-adv-x="322" 
d="M45 263l-24 45l105 71v351h76v-318l84 58l24 -43l-108 -74v-353h-76v320z" />
    <glyph glyph-name="OE" unicode="&#x152;" horiz-adv-x="758" 
d="M464 317l-0.000976562 -247.001h247v-70h-434c-69.333 0 -123.5 18 -162.5 54s-58.5 85.333 -58.5 148v277c0 33.333 6 62.5 18 87.5s28.167 45.833 48.5 62.5s43.833 29.334 70.5 38.001s54.334 13 83.001 13h415v-70h-227v-225h191v-68h-191zM131.999 201.999
c0.666992 -24.667 4.83496 -45.501 12.502 -62.501s18.167 -30.667 31.5 -41s28.666 -17.666 45.999 -21.999s35.666 -6.5 54.999 -6.5h111v540h-112c-20.667 0 -39.667 -3.5 -57 -10.5s-32.5 -16.667 -45.5 -29s-23.167 -27 -30.5 -44s-11 -35.5 -11 -55.5v-269v0z" />
    <glyph glyph-name="oe" unicode="&#x153;" horiz-adv-x="710" 
d="M511 61c22.667 0 44.001 5.50293 64.001 16.5029s36.333 23.5 49 37.5l39 -53c-20.667 -22.667 -45.334 -39.5 -74.001 -50.5s-55.667 -16.5 -81 -16.5c-35.333 0 -66 6.16699 -92 18.5s-47.333 31.833 -64 58.5c-15.333 -27.333 -35.166 -47.333 -59.499 -60
s-50.5 -19 -78.5 -19c-54.667 0 -96.167 14.667 -124.5 44s-42.5 68.666 -42.5 117.999v188c0 27.333 4.16699 51 12.5 71s19.833 36.667 34.5 50s32.167 23.166 52.5 29.499s42.5 9.5 66.5 9.5c32 0 60.167 -7 84.5 -21s43.166 -31.667 56.499 -53
c14.667 24 34 42.333 58 55s51.667 19 83 19c23.333 0 45 -3.66699 65 -11s37.333 -17.833 52 -31.5s26 -30.334 34 -50.001s12 -42.167 12 -67.5v-82l-262 -46v-40c0 -18 3.33301 -34 10 -48s15.5 -25.833 26.5 -35.5s23.333 -17.167 37 -22.5s27.5 -8 41.5 -8z
M221.001 63.0029c31.333 0 55.5029 9.83301 72.5029 29.5s25.833 43.167 26.5 70.5v175c-0.666992 31.333 -10.834 55.333 -30.501 72s-42.5 25 -68.5 25c-32.667 0 -57.334 -8.33301 -74.001 -25s-25 -39 -25 -67v-188c0 -33.333 9.66699 -57 29 -71s42.666 -21 69.999 -21
zM495.004 435.003c-14.667 0 -28.166 -2.66602 -40.499 -7.99902s-22.833 -12.333 -31.5 -21s-15.334 -18.834 -20.001 -30.501s-7 -24.167 -7 -37.5v-63l186 34l1 38c0 30 -8.66699 52.167 -26 66.5s-38 21.5 -62 21.5z" />
    <glyph glyph-name="Scaron" unicode="&#x160;" horiz-adv-x="497" 
d="M452 273v-109.001c0 -29.333 -5 -54.833 -15 -76.5s-24 -39.667 -42 -54s-39.167 -25 -63.5 -32s-51.166 -10.5 -80.499 -10.5c-21.333 0 -42.333 2.5 -63 7.5s-40.167 12.333 -58.5 22s-35.333 21.834 -51 36.501s-28.834 31.667 -39.501 51l62 44
c11.333 -28 30.166 -50.167 56.499 -66.5s56.833 -24.5 91.5 -24.5c39.333 0 70.333 7.16699 93 21.5s34 41.833 34 82.5v72l-299 172v110c0 57.333 17.833 100.166 53.5 128.499s82.5 42.5 140.5 42.5c36 0 70.667 -8.16699 104 -24.5s62.666 -41.166 87.999 -74.499
l-54 -51c-17.333 23.333 -38.666 42.5 -63.999 57.5s-51.666 22.5 -78.999 22.5c-36 0 -63.833 -7.66699 -83.5 -23s-29.5 -41 -29.5 -77v-80zM246 688.999l-94 112l35 31l59 -66l59 65l31 -30z" />
    <glyph glyph-name="scaron" unicode="&#x161;" horiz-adv-x="378" 
d="M341 204l-0.00390625 -71c0 -46 -13 -81.333 -39 -106s-62.667 -37 -110 -37c-35.333 0 -67.166 7.33301 -95.499 22s-52.166 33.667 -71.499 57l48 52c8 -10.667 17.167 -20 27.5 -28s21.166 -14.667 32.499 -20s22.333 -9.5 33 -12.5s20.334 -4.5 29.001 -4.5
c26.667 0 45.334 5.83301 56.001 17.5s16 28.167 16 49.5v45l-216 111v88c0 41.333 12.667 73.833 38 97.5s61.333 35.5 108 35.5c28.667 0 54.167 -6 76.5 -18s44.166 -27.667 65.499 -47l-44 -51c-17.333 16 -33.166 28 -47.499 36s-30.166 12 -47.499 12
c-24 0 -42.667 -4.83301 -56 -14.5s-20 -26.167 -20 -49.5v-56zM189.996 496l-94 112l35 31l59 -66l59 65l31 -30z" />
    <glyph glyph-name="Ydieresis" unicode="&#x178;" horiz-adv-x="537" 
d="M224 273l-203 407h84l158 -324l161 324h83l-207 -407v-273h-76v273zM225 734h-76v83h76v-83zM371 734h-75v83h75v-83z" />
    <glyph glyph-name="Zcaron" unicode="&#x17d;" horiz-adv-x="502" 
d="M448 680v-40l-298 -570h303v-70h-406v35l305 575h-295v70h391zM244 682l-94 112l35 31l59 -66l59 65l31 -30z" />
    <glyph glyph-name="zcaron" unicode="&#x17e;" horiz-adv-x="394" 
d="M337 490v-45l-207 -379h222v-66h-310v50l209 375h-206v65h292zM192 486l-94 112l35 31l59 -66l59 65l31 -30z" />
    <glyph glyph-name="florin" unicode="&#x192;" horiz-adv-x="501" 
d="M357 759c26.667 0 52.0029 -5.16699 76.0029 -15.5s42.667 -23.833 56 -40.5l-35 -49c-13.333 12.667 -28.833 22.667 -46.5 30s-33.167 11 -46.5 11c-28 0 -49.333 -7.33301 -64 -22s-23.667 -34.667 -27 -60l-15 -120h89l-3 -58h-95
c-2.66699 -26 -6.16699 -56.5 -10.5 -91.5l-13.5 -107.5l-13 -106.5l-10 -87.5c-3.33301 -28 -11.333 -51.667 -24 -71s-27.834 -35 -45.501 -47s-36.834 -20.833 -57.501 -26.5s-40.667 -8.5 -60 -8.5v62c21.333 0 39 3 53 9s25.5 13.667 34.5 23s15.667 20 20 32
s7.16602 23.667 8.49902 35l46 385h-84l2 58h88l18 138c2.66699 24 9.16699 44.167 19.5 60.5s23 29.5 38 39.5s31.333 17.167 49 21.5s35.167 6.5 52.5 6.5z" />
    <glyph glyph-name="circumflex" unicode="&#x2c6;" horiz-adv-x="315" 
d="M158 703l107 -91l-29 -44l-78 62l-78 -61l-30 45z" />
    <glyph glyph-name="caron" unicode="&#x2c7;" horiz-adv-x="284" 
d="M144 486l-94 112l35 31l59 -66l59 65l31 -30z" />
    <glyph glyph-name="breve" unicode="&#x2d8;" horiz-adv-x="313" 
d="M156 595c-28.667 0 -51.3311 7.5 -67.998 22.5s-29.334 34.833 -38.001 59.5l49 17c6.66699 -20.667 14.5 -34.667 23.5 -42s20.167 -11 33.5 -11c16.667 0 29 5 37 15s14.667 22.667 20 38l50 -17c-11.333 -31.333 -26.333 -52.833 -45 -64.5
s-39.334 -17.5 -62.001 -17.5z" />
    <glyph glyph-name="dotaccent" unicode="&#x2d9;" horiz-adv-x="162" 
d="M50 702h62v-70h-62v70z" />
    <glyph glyph-name="ring" unicode="&#x2da;" horiz-adv-x="217" 
d="M109 557c-23.333 0 -41.5 7.50195 -54.5 22.502s-19.5 33.5 -19.5 55.5c0 28 7.66699 48 23 60s32.333 18 51 18c24.667 0 43.167 -7.33301 55.5 -22s18.5 -33.334 18.5 -56.001c0 -26.667 -7.5 -46.334 -22.5 -59.001s-32.167 -19 -51.5 -19zM77 634.002
c0 -16.667 3.66699 -27.166 11 -31.499s14.666 -6.5 21.999 -6.5c9.33301 0 17.166 2.83301 23.499 8.5s9.5 15.5 9.5 29.5c0 17.333 -3.66699 28.666 -11 33.999s-14.666 8 -21.999 8c-9.33301 0 -17.166 -3.5 -23.499 -10.5s-9.5 -17.5 -9.5 -31.5z" />
    <glyph glyph-name="ogonek" unicode="&#x2db;" horiz-adv-x="249" 
d="M163 0l14.002 -86c-3.33301 -1.33301 -8.83301 -3.66602 -16.5 -6.99902s-15.334 -8.5 -23.001 -15.5s-14.667 -15.667 -21 -26s-9.83301 -23.166 -10.5 -38.499v-7c0 -2.66699 0.333008 -5 1 -7h92v-49h-147c-1.33301 5.33301 -2 11 -2 17v17
c1.33301 25.333 5.16602 46.666 11.499 63.999s13.833 31.5 22.5 42.5s17.5 19.667 26.5 26s16.5 11.166 22.5 14.499l-8 55h38z" />
    <glyph glyph-name="tilde" unicode="&#x2dc;" horiz-adv-x="361" 
d="M127 629c-9.33301 0 -17.168 -3.83008 -23.501 -11.4971s-11.5 -16.834 -15.5 -27.501l-38 30c12.667 24.667 24.667 42.5 36 53.5s26 16.5 44 16.5c10.667 0 21.167 -2.33301 31.5 -7s20 -9.83398 29 -15.501s17.333 -10.667 25 -15s14.5 -6.5 20.5 -6.5
c9.33301 0.666992 16.166 4.66699 20.499 12s8.83301 15.666 13.5 24.999l41 -26c-7.33301 -20 -17 -37 -29 -51s-26.667 -21 -44 -21c-13.333 0 -25.166 2.33301 -35.499 7s-19.666 9.66699 -27.999 15l-24 15c-7.66699 4.66699 -15.5 7 -23.5 7z" />
    <glyph glyph-name="hungarumlaut" unicode="&#x2dd;" horiz-adv-x="443" 
d="M251 696l-167 -155l-34 40l165 161zM393 691l-167 -155l-35 40l165 161z" />
    <glyph glyph-name="endash" unicode="&#x2013;" 
d="M2 324h468v-62h-468v62z" />
    <glyph glyph-name="emdash" unicode="&#x2014;" horiz-adv-x="649" 
d="M3 324h642v-62h-642v62z" />
    <glyph glyph-name="quoteleft" unicode="&#x2018;" horiz-adv-x="131" 
d="M30 479l0.000976562 27.999c0 44.667 4.66699 81.667 14 111s23.333 53.333 42 72l40 -25c-10.667 -15.333 -17.834 -33.166 -21.501 -53.499s-5.5 -42.833 -5.5 -67.5v-65h-69z" />
    <glyph glyph-name="quoteright" unicode="&#x2019;" horiz-adv-x="136" 
d="M111 676l-0.00195312 -26c0 -24.667 -1.83301 -46.5 -5.5 -65.5s-8.66699 -35.667 -15 -50s-13.666 -27 -21.999 -38s-17.166 -21.167 -26.499 -30.5l-37 26c11.333 15.333 20.333 32 27 50s10 41.333 10 70v64h69z" />
    <glyph glyph-name="quotesinglbase" unicode="&#x201a;" horiz-adv-x="221" 
d="M182 83l-0.00195312 -26c0 -24.667 -1.83301 -46.5 -5.5 -65.5s-8.66699 -35.667 -15 -50s-13.666 -27 -21.999 -38s-17.166 -21.167 -26.499 -30.5l-37 26c11.333 15.333 20.333 32 27 50s10 41.333 10 70v64h69z" />
    <glyph glyph-name="quotedblleft" unicode="&#x201c;" horiz-adv-x="278" 
d="M171 479l0.000976562 27.999c0 44.667 4.66699 81.667 14 111s23.333 53.333 42 72l40 -25c-10.667 -15.333 -17.834 -33.166 -21.501 -53.499s-5.5 -42.833 -5.5 -67.5v-65h-69zM30.001 478.999l0.000976562 27.999c0 44.667 4.66699 81.667 14 111s23.333 53.333 42 72
l40 -25c-10.667 -15.333 -17.834 -33.166 -21.501 -53.499s-5.5 -42.833 -5.5 -67.5v-65h-69z" />
    <glyph glyph-name="quotedblright" unicode="&#x201d;" horiz-adv-x="265" 
d="M111 679l-0.00195312 -26c0 -24.667 -1.83301 -46.5 -5.5 -65.5s-8.66699 -35.667 -15 -50s-13.666 -27 -21.999 -38s-17.166 -21.167 -26.499 -30.5l-37 26c11.333 15.333 20.333 32 27 50s10 41.333 10 70v64h69zM239.998 679l-0.00195312 -26
c0 -24.667 -1.83301 -46.5 -5.5 -65.5s-8.66699 -35.667 -15 -50s-13.666 -27 -21.999 -38s-17.166 -21.167 -26.499 -30.5l-37 26c11.333 15.333 20.333 32 27 50s10 41.333 10 70v64h69z" />
    <glyph glyph-name="quotedblbase" unicode="&#x201e;" horiz-adv-x="379" 
d="M182 84l-0.00195312 -26c0 -24.667 -1.83301 -46.5 -5.5 -65.5s-8.66699 -35.667 -15 -50s-13.666 -27 -21.999 -38s-17.166 -21.167 -26.499 -30.5l-37 26c11.333 15.333 20.333 32 27 50s10 41.333 10 70v64h69zM343.998 85l-0.00195312 -26
c0 -24.667 -1.83301 -46.5 -5.5 -65.5s-8.66699 -35.667 -15 -50s-13.666 -27 -21.999 -38s-17.166 -21.167 -26.499 -30.5l-37 26c11.333 15.333 20.333 32 27 50s10 41.333 10 70v64h69z" />
    <glyph glyph-name="dagger" unicode="&#x2020;" horiz-adv-x="436" 
d="M260 490h127v-65h-127v-427h-76v427h-131v65h131v190h76v-190z" />
    <glyph glyph-name="daggerdbl" unicode="&#x2021;" horiz-adv-x="457" 
d="M268 490h151v-65h-151v-360h151v-65h-151v-187h-76v187h-154v65h154v360h-154v65h154v189h76v-189z" />
    <glyph glyph-name="bullet" unicode="&#x2022;" horiz-adv-x="316" 
d="M73 352h170v-184h-170v184z" />
    <glyph glyph-name="ellipsis" unicode="&#x2026;" horiz-adv-x="647" 
d="M275 109h97v-109h-97v109zM476 109h98v-109h-98v109zM73 109h96v-109h-96v109z" />
    <glyph glyph-name="perthousand" unicode="&#x2030;" horiz-adv-x="907" 
d="M454 700l67 4l-347 -703l-72 -3zM290 501c0 -16.667 -2.99805 -31.333 -8.99805 -44s-14.167 -23.167 -24.5 -31.5s-22.333 -14.5 -36 -18.5s-27.834 -6 -42.501 -6c-34 0 -61.5 8 -82.5 24s-31.5 39.333 -31.5 70v115c0 16.667 3.16699 31.167 9.5 43.5
s14.666 22.666 24.999 30.999s22.5 14.5 36.5 18.5s28.333 6 43 6c34 0 61.167 -9.16699 81.5 -27.5s30.5 -42.166 30.5 -71.499v-109zM462.002 301.001c34 0 61.167 -9.33398 81.5 -28.001s30.5 -42.667 30.5 -72v-109c0 -16 -3.16699 -30.167 -9.5 -42.5
s-14.666 -22.666 -24.999 -30.999s-22.333 -14.666 -36 -18.999s-27.5 -6.5 -41.5 -6.5c-35.333 0 -63.333 8.83301 -84 26.5s-31 42.167 -31 73.5v109c0 16.667 3.16699 31.167 9.5 43.5s14.666 22.666 24.999 30.999s22.5 14.5 36.5 18.5s28.667 6 44 6zM130.002 505
c0 -11.333 3.5 -21.333 10.5 -30s19.5 -13 37.5 -13c14.667 0 26.334 4 35.001 12s13 18.333 13 31v103c0 12.667 -3.5 22.667 -10.5 30s-19.5 11 -37.5 11c-14.667 0 -26.334 -4.16699 -35.001 -12.5s-13 -18.5 -13 -30.5v-101zM509.002 198c0 13.333 -4.5 23.667 -13.5 31
s-20.167 11 -33.5 11c-15.333 0 -27.5 -4.16699 -36.5 -12.5s-13.5 -18.166 -13.5 -29.499v-103c0 -12.667 3.66699 -22.834 11 -30.501s20.333 -11.5 39 -11.5c14.667 0 26.167 4 34.5 12s12.5 18.667 12.5 32v101zM732.002 301.001c34 0 61 -9.33301 81 -28
s30 -42.667 30 -72v-109c0 -16.667 -3 -31.167 -9 -43.5s-14.167 -22.666 -24.5 -30.999s-22.166 -14.5 -35.499 -18.5s-27.333 -6 -42 -6c-34.667 0 -62.5 9 -83.5 27s-31.5 42.333 -31.5 73v109c0 16.667 3.16699 31.167 9.5 43.5s14.666 22.666 24.999 30.999
s22.5 14.5 36.5 18.5s28.667 6 44 6zM779.002 197.001c0 11.333 -3.5 21.332 -10.5 29.999s-19.167 13 -36.5 13c-15.333 0 -27.5 -4.16699 -36.5 -12.5s-13.5 -18.833 -13.5 -31.5v-101c0 -11.333 3.83301 -21.166 11.5 -29.499s20.5 -12.5 38.5 -12.5
c14.667 0 26.167 4 34.5 12s12.5 18.667 12.5 32v100z" />
    <glyph glyph-name="guilsinglleft" unicode="&#x2039;" horiz-adv-x="260" 
d="M171 -4l-129 174l128 178l43 -35l-89 -142l88 -137z" />
    <glyph glyph-name="guilsinglright" unicode="&#x203a;" horiz-adv-x="260" 
d="M136 169l-89 144l43 35l127 -178l-128 -174l-42 38z" />
    <glyph glyph-name="fraction" unicode="&#x2044;" horiz-adv-x="442" 
d="M5 0l366 680h69l-362 -680h-73z" />
    <glyph glyph-name="foursuperior" unicode="&#x2074;" horiz-adv-x="369" 
d="M271 467h65v-55h-65v-91h-61v91h-159v43l129 225h91v-213zM210 625h-8l-79 -158h87v158z" />
    <glyph glyph-name="Euro" unicode="&#x20ac;" horiz-adv-x="569" 
d="M343 631c-40 0 -68.667 -9.5 -86 -28.5s-26 -48.5 -26 -88.5v-62h196v-52h-196v-87h196v-52h-195v-81c0 -38 9.66699 -67 29 -87s48 -30 86 -30c23.333 0 44.833 5.16699 64.5 15.5s38.834 24.5 57.501 42.5l43 -55c-46.667 -48.667 -101.667 -73 -165 -73
c-62.667 0 -110.167 15.667 -142.5 47s-48.5 79 -48.5 143v78h-120v52h120v87h-120v52h120v76c0 58.667 16.5 102.167 49.5 130.5s78.833 42.5 137.5 42.5c32.667 0 62.167 -6 88.5 -18s51.166 -29.667 74.499 -53l-39 -58c-17.333 17.333 -36.5 31.5 -57.5 42.5
s-43.167 16.5 -66.5 16.5z" />
    <glyph glyph-name="trademark" unicode="&#x2122;" horiz-adv-x="474" 
d="M269 700l47 -85l42 85h46v-210h-47v111l-29 -59h-28l-30 61v-113h-47v210h46zM36 700h165v-41h-60v-170h-47v170h-58v41z" />
    <glyph glyph-name="onethird" unicode="&#x2153;" horiz-adv-x="610" 
d="M122 612h-92v68h158v-338h-66v270zM50 0l366 680h69l-362 -680h-73zM569 262c0 -21.333 -6.66992 -38.167 -20.0029 -50.5s-28.666 -21.166 -45.999 -26.499c17.333 -4 33.333 -12.5 48 -25.5s22 -31.5 22 -55.5v-16c0 -30.667 -11.333 -53.5 -34 -68.5
s-52 -22.5 -88 -22.5c-66.667 0 -107 26 -121 78l48 25c3.33301 -19.333 11.666 -32.166 24.999 -38.499s28.666 -9.5 45.999 -9.5c18.667 0 33.334 2.66699 44.001 8s16 15.666 16 30.999v13c0 16.667 -5.66699 30.167 -17 40.5s-24.666 15.5 -39.999 15.5h-59v52h55
c17.333 0 31.333 4.5 42 13.5s16 19.833 16 32.5v10c0 10 -1.66699 17.833 -5 23.5s-7.5 10 -12.5 13s-10.667 4.83301 -17 5.5s-12.833 1 -19.5 1c-39.333 0 -63 -15.333 -71 -46l-45 20c2.66699 14.667 7.83398 27.167 15.501 37.5s16.834 18.666 27.501 24.999
s22.5 11 35.5 14s26.167 4.5 39.5 4.5c37.333 0 65.833 -7.5 85.5 -22.5s29.5 -39.5 29.5 -73.5v-8z" />
    <glyph glyph-name="twothirds" unicode="&#x2154;" horiz-adv-x="775" 
d="M178 0l366 680h69l-362 -680h-73zM708 259c0 -21.333 -6.66992 -38.167 -20.0029 -50.5s-28.666 -21.166 -45.999 -26.499c17.333 -4 33.333 -12.5 48 -25.5s22 -31.5 22 -55.5v-16c0 -30.667 -11.333 -53.5 -34 -68.5s-52 -22.5 -88 -22.5c-66.667 0 -107 26 -121 78
l48 25c3.33301 -19.333 11.666 -32.166 24.999 -38.499s28.666 -9.5 45.999 -9.5c18.667 0 33.334 2.66699 44.001 8s16 15.666 16 30.999v13c0 16.667 -5.66699 30.167 -17 40.5s-24.666 15.5 -39.999 15.5h-59v52h55c17.333 0 31.333 4.5 42 13.5s16 19.833 16 32.5v10
c0 10 -1.66699 17.833 -5 23.5s-7.5 10 -12.5 13s-10.667 4.83301 -17 5.5s-12.833 1 -19.5 1c-39.333 0 -63 -15.333 -71 -46l-45 20c2.66699 14.667 7.83398 27.167 15.501 37.5s16.834 18.666 27.501 24.999s22.5 11 35.5 14s26.167 4.5 39.5 4.5
c37.333 0 65.833 -7.5 85.5 -22.5s29.5 -39.5 29.5 -73.5v-8zM211.997 690.999c43.333 0 73.498 -8.83301 90.498 -26.5s25.5 -42.5 25.5 -74.5c0 -26.667 -8 -48.5 -24 -65.5s-33.667 -31.167 -53 -42.5c-10.667 -6 -21.5 -11.5 -32.5 -16.5s-20.667 -10.5 -29 -16.5
s-15.333 -12.833 -21 -20.5s-8.5 -17.5 -8.5 -29.5h167v-56h-236v31c0 22 3 40.833 9 56.5s14 29.334 24 41.001s21.833 21.834 35.5 30.501s28.5 16.667 44.5 24c18 9.33301 32.667 18.166 44 26.499s17 19.833 17 34.5c0 11.333 -1.66699 20 -5 26
s-7.66602 10.667 -12.999 14s-11.333 5.33301 -18 6s-13.334 1 -20.001 1c-21.333 0 -38.166 -4.83301 -50.499 -14.5s-24.166 -22.5 -35.499 -38.5l-39 38c12.667 23.333 30.167 41.166 52.5 53.499s47.5 18.5 75.5 18.5z" />
    <glyph glyph-name="minus" unicode="&#x2212;" horiz-adv-x="457" 
d="M410 371v-69h-363v69h363z" />
    <glyph glyph-name="asteriskmath" unicode="&#x2217;" horiz-adv-x="480" 
d="M380 438l14 -50l-116 -41l71 -105l-43 -34l-70 103l-73 -104l-43 34l74 106l-117 41l14 51l117 -41v127h55v-127z" />
    <glyph glyph-name="notequal" unicode="&#x2260;" horiz-adv-x="572" 
d="M393 443h132v-63h-161l-66 -138h227v-62h-256l-66 -137l-48 29l52 108h-160v62h188l68 138h-256v63h284l60 124l47 -31z" />
    <glyph glyph-name="lessequal" unicode="&#x2264;" horiz-adv-x="531" 
d="M466 105l-419 208l419 209v-67l-282 -142l282 -142v-66zM55 59h411v-59h-411v59z" />
    <glyph glyph-name="greaterequal" unicode="&#x2265;" horiz-adv-x="507" 
d="M445 0h-398v59h398v-59zM453 314l-406 -203v60l284 143l-284 144v65z" />
    <glyph glyph-name="Scaronsmall" unicode="&#xf6fd;" horiz-adv-x="432" 
d="M389 226l0.000976562 -82.001c0 -27.333 -5 -50.666 -15 -69.999s-23 -35 -39 -47s-34.333 -20.833 -55 -26.5s-42 -8.5 -64 -8.5c-38.667 0 -72.334 8 -101.001 24s-52 39 -70 69l50 50c13.333 -23.333 30.166 -41.666 50.499 -54.999s42.833 -20 67.5 -20
c31.333 0 56.166 6 74.499 18s27.5 33 27.5 63v50l-247 108v100c0 26 4.83301 48.167 14.5 66.5s22.5 33.333 38.5 45s34.333 20 55 25s41.667 7.5 63 7.5c16 0 31.167 -2.33301 45.5 -7s28 -10.834 41 -18.501s24.833 -16 35.5 -25s20.334 -18.167 29.001 -27.5l-50 -49
c-10 15.333 -24.5 28.833 -43.5 40.5s-39.167 17.5 -60.5 17.5c-9.33301 0 -19.5 -1 -30.5 -3s-21.167 -5.66699 -30.5 -11s-17.166 -12.833 -23.499 -22.5s-9.5 -22.5 -9.5 -38.5v-65zM218.001 535.999l-94 112l35 31l59 -66l59 65l31 -30z" />
    <glyph glyph-name="Zcaronsmall" unicode="&#xf6ff;" horiz-adv-x="455" 
d="M416 70v-70h-356v48l251 421h-238v69h339v-48l-251 -420h255zM229 536l-94 112l35 31l59 -66l59 65l31 -30z" />
    <glyph glyph-name="zerooldstyle" unicode="&#xf730;" horiz-adv-x="486" 
d="M243 499c66.667 0 116.001 -16.833 148.001 -50.5s48 -80.5 48 -140.5v-130c0 -32.667 -4.83301 -61 -14.5 -85s-23 -43.5 -40 -58.5s-37.5 -26.167 -61.5 -33.5s-50.667 -11 -80 -11c-66.667 0 -116 16.5 -148 49.5s-48 79.167 -48 138.5v130c0 33.333 4.66699 62 14 86
s22.5 43.667 39.5 59s37.667 26.833 62 34.5s51.166 11.5 80.499 11.5zM363.001 308c0 44.667 -10.6689 76.167 -32.002 94.5s-50.666 27.5 -87.999 27.5c-43.333 0 -74.166 -11 -92.499 -33s-27.5 -51.667 -27.5 -89v-130c0 -43.333 10.833 -73.833 32.5 -91.5
s50.834 -26.5 87.501 -26.5c43.333 0 74.166 10.167 92.499 30.5s27.5 49.5 27.5 87.5v130z" />
    <glyph glyph-name="oneoldstyle" unicode="&#xf731;" horiz-adv-x="383" 
d="M70 62h101v361h-95v61l170 8v-430h93v-62h-269v62z" />
    <glyph glyph-name="twooldstyle" unicode="&#xf732;" horiz-adv-x="496" 
d="M306 207l-47.498 -30.002c-15.667 -10 -30 -20.333 -43 -31s-23.833 -22.167 -32.5 -34.5s-14 -26.166 -16 -41.499h273v-70h-352v25c0 26 2.83301 49.5 8.5 70.5s14.5 40.333 26.5 58s27.667 34.334 47 50.001s42.666 30.834 69.999 45.501l42 24
c13.333 8 25 16.333 35 25s18 18 24 28s9 20.667 9 32c0 26.667 -8 45.334 -24 56.001s-36.667 16 -62 16s-50.5 -6.33301 -75.5 -19s-46.167 -31.334 -63.5 -56.001l-46 48c20 30 46 53.833 78 71.5s65 26.5 99 26.5c52 0 93.333 -10.5 124 -31.5s46 -54.5 46 -100.5
c0 -22.667 -3 -42 -9 -58s-14.333 -29.833 -25 -41.5s-23.334 -22.334 -38.001 -32.001z" />
    <glyph glyph-name="threeoldstyle" unicode="&#xf733;" horiz-adv-x="440" 
d="M356 296c0 -28.667 -8.00488 -53.499 -24.0049 -74.499s-35 -36.833 -57 -47.5c32.667 -6.66699 57.334 -21.5 74.001 -44.5s25.334 -50.833 26.001 -83.5v-26c0 -44.667 -9.5 -82.167 -28.5 -112.5s-43.833 -55 -74.5 -74s-65.167 -32.667 -103.5 -41
s-76.5 -12.5 -114.5 -12.5l-6 65c34 0 66.167 3.16699 96.5 9.5s57 16.333 80 30s41.167 31.167 54.5 52.5s20 47 20 77v33c0 18.667 -3 33.834 -9 45.501s-14 20.667 -24 27s-21.5 10.666 -34.5 12.999s-26.167 3.83301 -39.5 4.5h-57v68h50
c30.667 0 54.334 8.16699 71.001 24.5s25 37.5 25 63.5v63c0 15.333 -2.33301 27.833 -7 37.5s-11 17.167 -19 22.5s-17.5 9 -28.5 11s-23.167 3 -36.5 3c-12 0 -23.667 -1.83301 -35 -5.5s-22 -8.33398 -32 -14.001s-19 -11.667 -27 -18s-15 -12.5 -21 -18.5l-38 54
c8.66699 10 19 19.5 31 28.5s24.833 16.667 38.5 23s27.834 11.333 42.501 15s29.334 5.5 44.001 5.5c53.333 0 93.833 -11.5 121.5 -34.5s41.5 -57.5 41.5 -103.5v-66z" />
    <glyph glyph-name="fouroldstyle" unicode="&#xf734;" horiz-adv-x="484" 
d="M375 68h94v-68h-94v-220h-72v220h-257v48l196 442h133v-422zM303 426h-14l-159 -358h173v358z" />
    <glyph glyph-name="fiveoldstyle" unicode="&#xf735;" horiz-adv-x="463" 
d="M216 260c65.333 0 112.332 -16.833 140.999 -50.5s43 -82.167 43 -145.5v-21c0 -48 -10.5 -88.667 -31.5 -122s-47.167 -60.333 -78.5 -81s-65.166 -35.667 -101.499 -45s-69.833 -14 -100.5 -14l-8 64c20.667 0 45 2.83301 73 8.5s54.833 16 80.5 31
s47.5 35.167 65.5 60.5s27 58 27 98v24c0 39.333 -9.83301 69.833 -29.5 91.5s-46.5 32.5 -80.5 32.5h-145l33 299h264v-71h-195l-19 -159h62v0z" />
    <glyph glyph-name="sixoldstyle" unicode="&#xf736;" horiz-adv-x="501" 
d="M265 455c57.333 0 100.332 -13.834 128.999 -41.501s43 -66.5 43 -116.5v-143c0 -27.333 -5 -51.166 -15 -71.499s-23.333 -37.166 -40 -50.499s-36.167 -23.333 -58.5 -30s-45.5 -10 -69.5 -10c-56.667 0 -101 14.667 -133 44s-48 68.666 -48 117.999v385
c0 25.333 5.16699 47.333 15.5 66s24 34.167 41 46.5s36.333 21.666 58 27.999s43.834 9.5 66.501 9.5c35.333 0 64 -6.83301 86 -20.5s42.333 -31.167 61 -52.5l-47 -52c-11.333 16 -25.833 29.333 -43.5 40s-35.167 16 -52.5 16c-34 0 -61 -7.66699 -81 -23
s-30 -34.666 -30 -57.999v-138c17.333 18 35.5 31.5 54.5 40.5s40.167 13.5 63.5 13.5zM361.999 288.999c0 17.333 -2.83496 32.001 -8.50195 44.001s-13.5 21.667 -23.5 29s-21.5 12.666 -34.5 15.999s-26.833 5 -41.5 5c-16.667 0 -31.667 -2.83301 -45 -8.5
s-24.666 -13.5 -33.999 -23.5s-16.333 -21.5 -21 -34.5s-7 -26.5 -7 -40.5v-122c0 -16.667 2.83301 -31 8.5 -43s13.334 -21.5 23.001 -28.5s21 -12.167 34 -15.5s26.833 -5 41.5 -5c34 0 60.5 7.83301 79.5 23.5s28.5 38.5 28.5 68.5v135z" />
    <glyph glyph-name="sevenoldstyle" unicode="&#xf737;" horiz-adv-x="425" 
d="M15 490h382l-201 -700h-78l185 630h-288v70z" />
    <glyph glyph-name="eightoldstyle" unicode="&#xf738;" horiz-adv-x="509" 
d="M425 471c0 -13.333 -2.33398 -25.999 -7.00098 -37.999s-10.834 -23 -18.501 -33s-16.167 -18.667 -25.5 -26s-19 -13.666 -29 -18.999c25.333 -15.333 46.833 -32.5 64.5 -51.5s26.5 -40.5 26.5 -64.5v-93c0 -25.333 -5.16699 -47.5 -15.5 -66.5s-24 -35 -41 -48
s-36.333 -22.833 -58 -29.5s-44.167 -10 -67.5 -10c-27.333 0 -52.166 3.66699 -74.499 11s-41.333 17.833 -57 31.5s-27.834 30 -36.501 49s-13 39.833 -13 62.5v90c0 29.333 9.16699 53.166 27.5 71.499s39.5 34.166 63.5 47.499c-26 14 -46 31.5 -60 52.5
s-21 44.833 -21 71.5v59c0 24.667 4.66699 46.5 14 65.5s21.833 34.833 37.5 47.5s33.834 22.334 54.501 29.001s42.334 10 65.001 10c25.333 0 48.5 -3.83301 69.5 -11.5s39 -18.334 54 -32.001s26.667 -29.667 35 -48s12.5 -38.5 12.5 -60.5v-67v0zM360.999 224.001
c0 32 -8.83203 55.501 -26.499 70.501s-40.834 22.5 -69.501 22.5h-18c-34 0 -59.167 -8.33301 -75.5 -25s-24.5 -39 -24.5 -67v-71c0 -32 10.333 -55.333 31 -70s46 -22 76 -22c33.333 0 59.5 8.16699 78.5 24.5s28.5 38.166 28.5 65.499v72zM158 471.002
c0 -29.333 8.50098 -50.3301 25.501 -62.9971s38.167 -19.667 63.5 -21h14c27.333 2 49 10.667 65 26s24 34.666 24 57.999v67c0 15.333 -2.66699 28.166 -8 38.499s-12.5 18.666 -21.5 24.999s-19.167 11 -30.5 14s-23.333 4.5 -36 4.5
c-30.667 0 -54.334 -7.5 -71.001 -22.5s-25 -34.833 -25 -59.5v-67v0z" />
    <glyph glyph-name="nineoldstyle" unicode="&#xf739;" horiz-adv-x="501" 
d="M246 497c56.667 0 101.17 -14.4961 133.503 -43.4961s48.5 -68.167 48.5 -117.5v-277c0 -50.667 -8.16699 -93.834 -24.5 -129.501s-37.833 -64.667 -64.5 -87s-57.334 -38.666 -92.001 -48.999s-70.667 -15.5 -108 -15.5l-7 64c24 0 49.167 3.16699 75.5 9.5
s50.166 17.166 71.499 32.499s39 36 53 62s21 58.667 21 98v35c-16 -18.667 -32.5 -32.167 -49.5 -40.5s-36.167 -12.5 -57.5 -12.5c-58 0 -102.833 14.5 -134.5 43.5s-47.5 68.5 -47.5 118.5v148c0 27.333 4.83301 51.166 14.5 71.499s22.667 37.166 39 50.499
s35.666 23.166 57.999 29.499s45.833 9.5 70.5 9.5zM353.003 336.004c0 16.667 -2.83301 30.834 -8.5 42.501s-13.334 21.167 -23.001 28.5s-21 12.666 -34 15.999s-26.833 5 -41.5 5c-34.667 0 -61.167 -8.16699 -79.5 -24.5s-27.5 -38.833 -27.5 -67.5v-148
c0 -16.667 2.83301 -30.834 8.5 -42.501s13.334 -21.167 23.001 -28.5s21 -12.666 34 -15.999s26.833 -5 41.5 -5c34.667 0 61.167 10 79.5 30s27.5 45 27.5 75v135z" />
    <glyph glyph-name="Asmall" unicode="&#xf761;" horiz-adv-x="485" 
d="M282 543l177 -543h-80l-50 147h-174l-50 -147h-80l180 543h77zM312 211l-69 228l-70 -228h139z" />
    <glyph glyph-name="Bsmall" unicode="&#xf762;" horiz-adv-x="465" 
d="M396 373c0 -11.333 -1.99902 -22.001 -5.99902 -32.001s-9.16699 -19.167 -15.5 -27.5s-13.5 -15.666 -21.5 -21.999s-15.667 -11.166 -23 -14.499c23.333 -5.33301 43.166 -17.5 59.499 -36.5s24.5 -41.833 24.5 -68.5v-40c0 -42.667 -12.833 -75.334 -38.5 -98.001
s-58.5 -34 -98.5 -34h-191v540h174c46 0 80.333 -12.333 103 -37s34 -56 34 -94zM339.001 171.999c0 22.667 -6.16699 40.333 -18.5 53s-29.166 19 -50.499 19h-109v-176h109c23.333 0 40.666 7 51.999 21s17 31.667 17 53v30zM161.001 302.998h98c17.333 0 32 6.5 44 19.5
s18 29.167 18 48.5v30c0 25.333 -6.83301 43.5 -20.5 54.5s-31.167 16.5 -52.5 16.5h-87v-169z" />
    <glyph glyph-name="Csmall" unicode="&#xf763;" horiz-adv-x="456" 
d="M243 477c-18.667 0 -35.333 -3.3291 -50 -9.99609s-27 -15.834 -37 -27.501s-17.5 -24.834 -22.5 -39.501s-7.5 -30 -7.5 -46v-167c0 -40 11 -70.333 33 -91s49.667 -31 83 -31c23.333 0 45.333 5.16699 66 15.5s38.667 23.166 54 38.499l42 -52
c-23.333 -26.667 -48.5 -45.334 -75.5 -56.001s-55.833 -16 -86.5 -16s-57.834 4.83301 -81.501 14.5s-43.667 23 -60 40s-28.666 37.333 -36.999 61s-12.5 49.167 -12.5 76.5v167c0 30 5 56.833 15 80.5s23.833 43.667 41.5 60s38.167 29 61.5 38s48 13.5 74 13.5
c71.333 0 126 -28.667 164 -86l-52 -48c-15.333 23.333 -32.5 40 -51.5 50s-39.167 15 -60.5 15z" />
    <glyph glyph-name="Dsmall" unicode="&#xf764;" horiz-adv-x="487" 
d="M241 543c29.333 0 56.002 -5 80.002 -15s44.5 -23.5 61.5 -40.5s30.167 -37.167 39.5 -60.5s14 -48 14 -74v-164c0 -30.667 -5.16699 -57.667 -15.5 -81s-24.333 -43 -42 -59s-38.334 -28.167 -62.001 -36.5s-48.834 -12.5 -75.501 -12.5h-155v543h155zM361.002 353
c0 18.667 -3.33398 35.333 -10.001 50s-15.5 27.167 -26.5 37.5s-23.833 18.333 -38.5 24s-29.667 8.5 -45 8.5h-80v-403h80c38.667 0 68.334 11.333 89.001 34s31 51 31 85v164z" />
    <glyph glyph-name="Esmall" unicode="&#xf765;" horiz-adv-x="424" 
d="M162 240v-170h211v-70h-286v543h269v-69h-194v-169h163v-65h-163z" />
    <glyph glyph-name="Fsmall" unicode="&#xf766;" horiz-adv-x="389" 
d="M356 473h-195v-172h164v-66h-163v-235h-76v543h270v-70z" />
    <glyph glyph-name="Gsmall" unicode="&#xf767;" horiz-adv-x="486" 
d="M234 286l184.001 0.00195312v-223c-15.333 -13.333 -30 -24.5 -44 -33.5s-28 -16.333 -42 -22s-28.667 -9.66699 -44 -12s-32.333 -3.5 -51 -3.5c-60.667 0 -106.834 16.833 -138.501 50.5s-47.5 81.167 -47.5 142.5v169c0 29.333 4.66699 56 14 80
s22.666 44.333 39.999 61s38 29.5 62 38.5s50.333 13.5 79 13.5c34 0 64.167 -6 90.5 -18s49.833 -32.667 70.5 -62l-47 -53c-14.667 20 -31.5 35.5 -50.5 46.5s-40.167 16.5 -63.5 16.5c-36 0 -65 -11.333 -87 -34s-33 -52.334 -33 -89.001v-169
c0 -38.667 9 -68.834 27 -90.501s46 -32.5 84 -32.5c10.667 0 20.334 0.333008 29.001 1s17 2.16699 25 4.5s16.167 5.83301 24.5 10.5s17.5 10.667 27.5 18v132h-109v58z" />
    <glyph glyph-name="Hsmall" unicode="&#xf768;" horiz-adv-x="553" 
d="M392 538h75v-538h-75v244h-231v-244h-75v538h75v-224h231v224z" />
    <glyph glyph-name="Ismall" unicode="&#xf769;" horiz-adv-x="263" 
d="M94 538h75v-538h-75v538z" />
    <glyph glyph-name="Jsmall" unicode="&#xf76a;" horiz-adv-x="404" 
d="M244 538l75.002 0.00195312v-407c0 -23.333 -3.83301 -43.833 -11.5 -61.5s-18.334 -32.334 -32.001 -44.001s-29.5 -20.5 -47.5 -26.5s-37 -9 -57 -9c-48.667 0 -85.167 13 -109.5 39s-36.5 61.333 -36.5 106l72 9c0.666992 -25.333 8 -45.833 22 -61.5
s31.667 -23.5 53 -23.5c23.333 0 41.166 6.66699 53.499 20s18.5 30.666 18.5 51.999v407z" />
    <glyph glyph-name="Ksmall" unicode="&#xf76b;" horiz-adv-x="485" 
d="M161 305l202 233h96l-212 -242l230 -296h-96l-186 242l-34 -36v-206h-75v538h75v-233z" />
    <glyph glyph-name="Lsmall" unicode="&#xf76c;" horiz-adv-x="397" 
d="M162 538v-468h228v-70h-303v538h75z" />
    <glyph glyph-name="Msmall" unicode="&#xf76d;" horiz-adv-x="623" 
d="M168 538l143 -268l144 268h83v-538h-76v402l-133 -247h-35l-133 246v-401h-75v538h82z" />
    <glyph glyph-name="Nsmall" unicode="&#xf76e;" horiz-adv-x="570" 
d="M415 538h70v-538h-89l-241 407v-407h-69v538h84l245 -408v408z" />
    <glyph glyph-name="Osmall" unicode="&#xf76f;" horiz-adv-x="520" 
d="M267 546c27.333 0 52.8311 -4.66699 76.498 -14s44.167 -22.5 61.5 -39.5s31 -37.333 41 -61s15 -49.5 15 -77.5v-169c0 -30 -4.83301 -56.833 -14.5 -80.5s-23.167 -43.834 -40.5 -60.501s-38 -29.5 -62 -38.5s-50 -13.5 -78 -13.5h-11c-28.667 0 -55 4.5 -79 13.5
s-44.5 21.833 -61.5 38.5s-30.333 36.834 -40 60.501s-14.5 50.5 -14.5 80.5v169c0 28 4.83301 53.833 14.5 77.5s23.334 44 41.001 61s38.334 30.167 62.001 39.5s49.5 14 77.5 14h12v0zM385.998 354c0 17.333 -3.16504 33.5 -9.49805 48.5s-14.833 28 -25.5 39
s-23.167 19.667 -37.5 26s-29.833 9.5 -46.5 9.5h-12c-17.333 0 -33.333 -3.16699 -48 -9.5s-27.334 -15 -38.001 -26s-19 -24 -25 -39s-9 -31.167 -9 -48.5v-169c0 -38 11 -68 33 -90s51 -33 87 -33h11c35.333 0 64.166 11 86.499 33s33.5 52 33.5 90v169z" />
    <glyph glyph-name="Psmall" unicode="&#xf770;" horiz-adv-x="448" 
d="M86 538l166.999 -0.000976562c23.333 0 43.833 -3.83301 61.5 -11.5s32.834 -18.167 45.501 -31.5s22.167 -29.166 28.5 -47.499s9.5 -38.166 9.5 -59.499v-35c0 -48.667 -13.667 -84.334 -41 -107.001s-62.333 -34 -105 -34h-91v-212h-75v538zM320.999 387.999
c0 27.333 -6.33301 47.667 -19 61s-29 20 -49 20h-92v-191h92c23.333 0 40.5 7 51.5 21s16.5 31.667 16.5 53v36z" />
    <glyph glyph-name="Qsmall" unicode="&#xf771;" horiz-adv-x="529" 
d="M411 28c4 -9.33301 9.99902 -16.333 17.999 -21s16.667 -7 26 -7h32v-58h-34c-18 -0.666992 -35.5 3.16602 -52.5 11.499s-28.167 17.833 -33.5 28.5l-22 33c-13.333 -7.33301 -26.5 -12.333 -39.5 -15s-26.167 -4 -39.5 -4h-11c-30.667 0 -58.167 4.83301 -82.5 14.5
s-44.833 23.167 -61.5 40.5s-29.334 37.833 -38.001 61.5s-13 49.167 -13 76.5v161c0 30 5.16699 57 15.5 81s24.333 44.333 42 61s38.334 29.5 62.001 38.5s48.834 13.5 75.501 13.5h11c29.333 0 55.833 -4.5 79.5 -13.5s44 -21.5 61 -37.5s30 -34.833 39 -56.5
s13.5 -45.5 13.5 -71.5v-171c0 -34 -4.83301 -62.667 -14.5 -86s-24.5 -43.666 -44.5 -60.999zM264.999 62c7.33301 0 15.1641 1 23.4971 3s15.833 5.33301 22.5 10l-55 91l53 33l53 -89c9.33301 12 16 25.333 20 40s6 29.334 6 44.001v158c0 22.667 -3 41.667 -9 57
s-14.333 27.833 -25 37.5s-23.5 16.667 -38.5 21s-31.5 6.5 -49.5 6.5h-11c-18.667 0 -35.5 -3.33301 -50.5 -10s-27.667 -15.834 -38 -27.501s-18.166 -25 -23.499 -40s-8 -30.5 -8 -46.5v-161c0 -20 3.16699 -37.833 9.5 -53.5s14.833 -29 25.5 -40
s23.334 -19.333 38.001 -25s30.334 -8.5 47.001 -8.5h10z" />
    <glyph glyph-name="Rsmall" unicode="&#xf772;" horiz-adv-x="504" 
d="M421 360c0 -37.333 -9.33203 -67.5 -27.999 -90.5s-42.334 -39.167 -71.001 -48.5l114 -221h-83l-111 213h-81v-213h-75v539h195c46 0 80.833 -13.5 104.5 -40.5s35.5 -62.167 35.5 -105.5v-33v0zM161.001 276l117 -0.000976562c21.333 0 37.833 7.5 49.5 22.5
s17.5 33.5 17.5 55.5v37c0 26.667 -7.16699 46.334 -21.5 59.001s-30.833 19 -49.5 19h-113v-193z" />
    <glyph glyph-name="Ssmall" unicode="&#xf773;" horiz-adv-x="440" 
d="M244 306c24.667 -9.33301 46.1719 -18.5029 64.5049 -27.5029s33.666 -19.5 45.999 -31.5s21.666 -26.167 27.999 -42.5s9.5 -36.5 9.5 -60.5c0 -27.333 -5 -50.666 -15 -69.999s-23.167 -35 -39.5 -47s-34.833 -20.833 -55.5 -26.5s-41.667 -8.5 -63 -8.5
c-39.333 0 -73.166 8.33301 -101.499 25s-51.5 40 -69.5 70l49 50c13.333 -22.667 30.166 -41.167 50.499 -55.5s43.166 -21.5 68.499 -21.5c30.667 0 55.167 6 73.5 18s27.5 33 27.5 63c0 14.667 -3 27.334 -9 38.001s-14.167 19.834 -24.5 27.501
s-22.166 14.5 -35.499 20.5l-41 18c-22.667 8 -43.167 16.333 -61.5 25s-34 18.667 -47 30s-22.833 25 -29.5 41s-10 35.333 -10 58c0 26 5 48.167 15 66.5s23.167 33.333 39.5 45s34.833 20 55.5 25s41.667 7.5 63 7.5c32 0 60.667 -8 86 -24s47 -34.333 65 -55l-50 -49
c-11.333 16.667 -25.5 30.667 -42.5 42s-36.167 17 -57.5 17c-11.333 0 -22.833 -1 -34.5 -3s-22.334 -5.66699 -32.001 -11s-17.667 -12.833 -24 -22.5s-9.5 -22.5 -9.5 -38.5c0 -14.667 3.16699 -26.5 9.5 -35.5s14.666 -16.833 24.999 -23.5s22.166 -12.5 35.499 -17.5
s27 -10.5 41 -16.5z" />
    <glyph glyph-name="Tsmall" unicode="&#xf774;" horiz-adv-x="412" 
d="M16 538h380v-70h-153v-468h-75v468h-152v70z" />
    <glyph glyph-name="Usmall" unicode="&#xf775;" horiz-adv-x="556" 
d="M395 539l75.001 -0.000976562v-356c0 -62 -17.5 -109.167 -52.5 -141.5s-81.167 -48.5 -138.5 -48.5c-28.667 0 -54.834 4.5 -78.501 13.5s-44 21.667 -61 38s-30.167 36.333 -39.5 60s-14 49.834 -14 78.501v356h75v-356c0 -40 10.833 -70 32.5 -90s50.167 -30 85.5 -30
c37.333 0 66 10 86 30s30 50 30 90v356z" />
    <glyph glyph-name="Vsmall" unicode="&#xf776;" horiz-adv-x="486" 
d="M105 539l137 -426l139 426h80l-182 -539h-75l-179 539h80z" />
    <glyph glyph-name="Wsmall" unicode="&#xf777;" horiz-adv-x="644" 
d="M358 539l94 -389l90 390h77l-126 -540h-76l-95 407l-98 -407h-75l-124 540h77l89 -389l95 388h72z" />
    <glyph glyph-name="Xsmall" unicode="&#xf778;" horiz-adv-x="548" 
d="M147 538l129 -201l131 201h88l-176 -262l178 -276h-89l-133 209l-136 -209h-88l181 275l-173 263h88z" />
    <glyph glyph-name="Ysmall" unicode="&#xf779;" horiz-adv-x="486" 
d="M112 538l125 -228l129 228h86l-178 -312v-226h-74v226l-175 312h87z" />
    <glyph glyph-name="Zsmall" unicode="&#xf77a;" horiz-adv-x="475" 
d="M416 70v-70h-356v48l251 421h-238v69h339v-48l-251 -420h255z" />
    <glyph glyph-name="Agravesmall" unicode="&#xf7e0;" 
d="M282 543l177 -543h-80l-50 147h-174l-50 -147h-80l180 543h77zM312 211l-69 228l-70 -228h139zM201 767l80 -148l-43 -36l-91 142z" />
    <glyph glyph-name="Aacutesmall" unicode="&#xf7e1;" 
d="M282 543l177 -543h-80l-50 147h-174l-50 -147h-80l180 543h77zM312 211l-69 228l-70 -228h139zM278 761l52 -38l-92 -140l-42 33z" />
    <glyph glyph-name="Acircumflexsmall" unicode="&#xf7e2;" 
d="M282 543l177 -543h-80l-50 147h-174l-50 -147h-80l180 543h77zM312 211l-69 228l-70 -228h139zM239 743l107 -91l-29 -44l-78 62l-78 -61l-30 45z" />
    <glyph glyph-name="Atildesmall" unicode="&#xf7e3;" 
d="M282 543l177 -543h-80l-50 147h-174l-50 -147h-80l180 543h77zM312 211l-69 228l-70 -228h139zM185 669c-9.33301 0 -17.168 -3.83008 -23.501 -11.4971s-11.5 -16.834 -15.5 -27.501l-38 30c12.667 24.667 24.667 42.5 36 53.5s26 16.5 44 16.5
c10.667 0 21.167 -2.33301 31.5 -7s20 -9.83398 29 -15.501s17.333 -10.667 25 -15s14.5 -6.5 20.5 -6.5c9.33301 0.666992 16.166 4.66699 20.499 12s8.83301 15.666 13.5 24.999l41 -26c-7.33301 -20 -17 -37 -29 -51s-26.667 -21 -44 -21
c-13.333 0 -25.166 2.33301 -35.499 7s-19.666 9.66699 -27.999 15l-24 15c-7.66699 4.66699 -15.5 7 -23.5 7z" />
    <glyph glyph-name="Adieresissmall" unicode="&#xf7e4;" 
d="M282 543l177 -543h-80l-50 147h-174l-50 -147h-80l180 543h77zM312 211l-69 228l-70 -228h139zM202 624h-76v83h76v-83zM348 624h-75v83h75v-83z" />
    <glyph glyph-name="Aringsmall" unicode="&#xf7e5;" 
d="M282 543l177 -543h-80l-50 147h-174l-50 -147h-80l180 543h77zM312 211l-69 228l-70 -228h139zM245 597c-23.333 0 -41.5 7.50195 -54.5 22.502s-19.5 33.5 -19.5 55.5c0 28 7.66699 48 23 60s32.333 18 51 18c24.667 0 43.167 -7.33301 55.5 -22
s18.5 -33.334 18.5 -56.001c0 -26.667 -7.5 -46.334 -22.5 -59.001s-32.167 -19 -51.5 -19zM213 674.002c0 -16.667 3.66699 -27.166 11 -31.499s14.666 -6.5 21.999 -6.5c9.33301 0 17.166 2.83301 23.499 8.5s9.5 15.5 9.5 29.5c0 17.333 -3.66699 28.666 -11 33.999
s-14.666 8 -21.999 8c-9.33301 0 -17.166 -3.5 -23.499 -10.5s-9.5 -17.5 -9.5 -31.5z" />
    <glyph glyph-name="Ccedillasmall" unicode="&#xf7e7;" horiz-adv-x="440" 
d="M243 477c-18.667 0 -35.333 -3.3291 -50 -9.99609s-27 -15.834 -37 -27.501s-17.5 -24.834 -22.5 -39.501s-7.5 -30 -7.5 -46v-167c0 -40 11 -70.333 33 -91s49.667 -31 83 -31c23.333 0 45.333 5.16699 66 15.5s38.667 23.166 54 38.499l42 -52
c-23.333 -26.667 -48.5 -45.334 -75.5 -56.001s-55.833 -16 -86.5 -16s-57.834 4.83301 -81.501 14.5s-43.667 23 -60 40s-28.666 37.333 -36.999 61s-12.5 49.167 -12.5 76.5v167c0 30 5 56.833 15 80.5s23.833 43.667 41.5 60s38.167 29 61.5 38s48 13.5 74 13.5
c71.333 0 126 -28.667 164 -86l-52 -48c-15.333 23.333 -32.5 40 -51.5 50s-39.167 15 -60.5 15zM274.001 0.00390625l-13 -55.999c4.66699 -2 10.5 -5 17.5 -9s13.667 -9.66699 20 -17s11.833 -16.5 16.5 -27.5s7 -24.5 7 -40.5c0 -29.333 -9.66699 -52.333 -29 -69
s-44.333 -30.667 -75 -42l-20 44c13.333 7.33301 26 15.333 38 24s18 21.667 18 39c0 14.667 -2 26.167 -6 34.5s-8.83301 14.666 -14.5 18.999s-11.667 7 -18 8s-11.833 2.16699 -16.5 3.5l16 89h59z" />
    <glyph glyph-name="Egravesmall" unicode="&#xf7e8;" horiz-adv-x="401" 
d="M162 240v-170h211v-70h-286v543h269v-69h-194v-169h163v-65h-163zM178 767l80 -148l-43 -36l-91 142z" />
    <glyph glyph-name="Eacutesmall" unicode="&#xf7e9;" horiz-adv-x="401" 
d="M162 240v-170h211v-70h-286v543h269v-69h-194v-169h163v-65h-163zM255 761l52 -38l-92 -140l-42 33z" />
    <glyph glyph-name="Ecircumflexsmall" unicode="&#xf7ea;" horiz-adv-x="401" 
d="M162 240v-170h211v-70h-286v543h269v-69h-194v-169h163v-65h-163zM216 743l107 -91l-29 -44l-78 62l-78 -61l-30 45z" />
    <glyph glyph-name="Edieresissmall" unicode="&#xf7eb;" horiz-adv-x="401" 
d="M162 240v-170h211v-70h-286v543h269v-69h-194v-169h163v-65h-163zM180 624h-76v83h76v-83zM326 624h-75v83h75v-83z" />
    <glyph glyph-name="Igravesmall" unicode="&#xf7ec;" horiz-adv-x="232" 
d="M94 538h75v-538h-75v538zM81 767l80 -148l-43 -36l-91 142z" />
    <glyph glyph-name="Iacutesmall" unicode="&#xf7ed;" horiz-adv-x="232" 
d="M94 538h75v-538h-75v538zM156 761l52 -38l-92 -140l-42 33z" />
    <glyph glyph-name="Icircumflexsmall" unicode="&#xf7ee;" horiz-adv-x="232" 
d="M94 538h75v-538h-75v538zM118 743l107 -91l-29 -44l-78 62l-78 -61l-30 45z" />
    <glyph glyph-name="Idieresissmall" unicode="&#xf7ef;" horiz-adv-x="232" 
d="M94 538h75v-538h-75v538zM82 624h-76v83h76v-83zM228 624h-75v83h75v-83z" />
    <glyph glyph-name="Ntildesmall" unicode="&#xf7f1;" horiz-adv-x="543" 
d="M415 538h70v-538h-89l-241 407v-407h-69v538h84l245 -408v408zM218 633c-9.33301 0 -17.168 -3.83008 -23.501 -11.4971s-11.5 -16.834 -15.5 -27.501l-38 30c12.667 24.667 24.667 42.5 36 53.5s26 16.5 44 16.5c10.667 0 21.167 -2.33301 31.5 -7
s20 -9.83398 29 -15.501s17.333 -10.667 25 -15s14.5 -6.5 20.5 -6.5c9.33301 0.666992 16.166 4.66699 20.499 12s8.83301 15.666 13.5 24.999l41 -26c-7.33301 -20 -17 -37 -29 -51s-26.667 -21 -44 -21c-13.333 0 -25.166 2.33301 -35.499 7s-19.666 9.66699 -27.999 15
l-24 15c-7.66699 4.66699 -15.5 7 -23.5 7z" />
    <glyph glyph-name="Ogravesmall" unicode="&#xf7f2;" horiz-adv-x="500" 
d="M267 546c27.333 0 52.8311 -4.66699 76.498 -14s44.167 -22.5 61.5 -39.5s31 -37.333 41 -61s15 -49.5 15 -77.5v-169c0 -30 -4.83301 -56.833 -14.5 -80.5s-23.167 -43.834 -40.5 -60.501s-38 -29.5 -62 -38.5s-50 -13.5 -78 -13.5h-11c-28.667 0 -55 4.5 -79 13.5
s-44.5 21.833 -61.5 38.5s-30.333 36.834 -40 60.501s-14.5 50.5 -14.5 80.5v169c0 28 4.83301 53.833 14.5 77.5s23.334 44 41.001 61s38.334 30.167 62.001 39.5s49.5 14 77.5 14h12v0zM385.998 354c0 17.333 -3.16504 33.5 -9.49805 48.5s-14.833 28 -25.5 39
s-23.167 19.667 -37.5 26s-29.833 9.5 -46.5 9.5h-12c-17.333 0 -33.333 -3.16699 -48 -9.5s-27.334 -15 -38.001 -26s-19 -24 -25 -39s-9 -31.167 -9 -48.5v-169c0 -38 11 -68 33 -90s51 -33 87 -33h11c35.333 0 64.166 11 86.499 33s33.5 52 33.5 90v169zM213 767l80 -148
l-43 -36l-91 142z" />
    <glyph glyph-name="Oacutesmall" unicode="&#xf7f3;" horiz-adv-x="500" 
d="M267 546c27.333 0 52.8311 -4.66699 76.498 -14s44.167 -22.5 61.5 -39.5s31 -37.333 41 -61s15 -49.5 15 -77.5v-169c0 -30 -4.83301 -56.833 -14.5 -80.5s-23.167 -43.834 -40.5 -60.501s-38 -29.5 -62 -38.5s-50 -13.5 -78 -13.5h-11c-28.667 0 -55 4.5 -79 13.5
s-44.5 21.833 -61.5 38.5s-30.333 36.834 -40 60.501s-14.5 50.5 -14.5 80.5v169c0 28 4.83301 53.833 14.5 77.5s23.334 44 41.001 61s38.334 30.167 62.001 39.5s49.5 14 77.5 14h12v0zM385.998 354c0 17.333 -3.16504 33.5 -9.49805 48.5s-14.833 28 -25.5 39
s-23.167 19.667 -37.5 26s-29.833 9.5 -46.5 9.5h-12c-17.333 0 -33.333 -3.16699 -48 -9.5s-27.334 -15 -38.001 -26s-19 -24 -25 -39s-9 -31.167 -9 -48.5v-169c0 -38 11 -68 33 -90s51 -33 87 -33h11c35.333 0 64.166 11 86.499 33s33.5 52 33.5 90v169zM290 761l52 -38
l-92 -140l-42 33z" />
    <glyph glyph-name="Ocircumflexsmall" unicode="&#xf7f4;" horiz-adv-x="500" 
d="M267 546c27.333 0 52.8311 -4.66699 76.498 -14s44.167 -22.5 61.5 -39.5s31 -37.333 41 -61s15 -49.5 15 -77.5v-169c0 -30 -4.83301 -56.833 -14.5 -80.5s-23.167 -43.834 -40.5 -60.501s-38 -29.5 -62 -38.5s-50 -13.5 -78 -13.5h-11c-28.667 0 -55 4.5 -79 13.5
s-44.5 21.833 -61.5 38.5s-30.333 36.834 -40 60.501s-14.5 50.5 -14.5 80.5v169c0 28 4.83301 53.833 14.5 77.5s23.334 44 41.001 61s38.334 30.167 62.001 39.5s49.5 14 77.5 14h12v0zM385.998 354c0 17.333 -3.16504 33.5 -9.49805 48.5s-14.833 28 -25.5 39
s-23.167 19.667 -37.5 26s-29.833 9.5 -46.5 9.5h-12c-17.333 0 -33.333 -3.16699 -48 -9.5s-27.334 -15 -38.001 -26s-19 -24 -25 -39s-9 -31.167 -9 -48.5v-169c0 -38 11 -68 33 -90s51 -33 87 -33h11c35.333 0 64.166 11 86.499 33s33.5 52 33.5 90v169zM250 743l107 -91
l-29 -44l-78 62l-78 -61l-30 45z" />
    <glyph glyph-name="Otildesmall" unicode="&#xf7f5;" horiz-adv-x="500" 
d="M267 546c27.333 0 52.8311 -4.66699 76.498 -14s44.167 -22.5 61.5 -39.5s31 -37.333 41 -61s15 -49.5 15 -77.5v-169c0 -30 -4.83301 -56.833 -14.5 -80.5s-23.167 -43.834 -40.5 -60.501s-38 -29.5 -62 -38.5s-50 -13.5 -78 -13.5h-11c-28.667 0 -55 4.5 -79 13.5
s-44.5 21.833 -61.5 38.5s-30.333 36.834 -40 60.501s-14.5 50.5 -14.5 80.5v169c0 28 4.83301 53.833 14.5 77.5s23.334 44 41.001 61s38.334 30.167 62.001 39.5s49.5 14 77.5 14h12v0zM385.998 354c0 17.333 -3.16504 33.5 -9.49805 48.5s-14.833 28 -25.5 39
s-23.167 19.667 -37.5 26s-29.833 9.5 -46.5 9.5h-12c-17.333 0 -33.333 -3.16699 -48 -9.5s-27.334 -15 -38.001 -26s-19 -24 -25 -39s-9 -31.167 -9 -48.5v-169c0 -38 11 -68 33 -90s51 -33 87 -33h11c35.333 0 64.166 11 86.499 33s33.5 52 33.5 90v169zM197 669
c-9.33301 0 -17.168 -3.83008 -23.501 -11.4971s-11.5 -16.834 -15.5 -27.501l-38 30c12.667 24.667 24.667 42.5 36 53.5s26 16.5 44 16.5c10.667 0 21.167 -2.33301 31.5 -7s20 -9.83398 29 -15.501s17.333 -10.667 25 -15s14.5 -6.5 20.5 -6.5
c9.33301 0.666992 16.166 4.66699 20.499 12s8.83301 15.666 13.5 24.999l41 -26c-7.33301 -20 -17 -37 -29 -51s-26.667 -21 -44 -21c-13.333 0 -25.166 2.33301 -35.499 7s-19.666 9.66699 -27.999 15l-24 15c-7.66699 4.66699 -15.5 7 -23.5 7z" />
    <glyph glyph-name="Odieresissmall" unicode="&#xf7f6;" horiz-adv-x="500" 
d="M267 546c27.333 0 52.8311 -4.66699 76.498 -14s44.167 -22.5 61.5 -39.5s31 -37.333 41 -61s15 -49.5 15 -77.5v-169c0 -30 -4.83301 -56.833 -14.5 -80.5s-23.167 -43.834 -40.5 -60.501s-38 -29.5 -62 -38.5s-50 -13.5 -78 -13.5h-11c-28.667 0 -55 4.5 -79 13.5
s-44.5 21.833 -61.5 38.5s-30.333 36.834 -40 60.501s-14.5 50.5 -14.5 80.5v169c0 28 4.83301 53.833 14.5 77.5s23.334 44 41.001 61s38.334 30.167 62.001 39.5s49.5 14 77.5 14h12v0zM385.998 354c0 17.333 -3.16504 33.5 -9.49805 48.5s-14.833 28 -25.5 39
s-23.167 19.667 -37.5 26s-29.833 9.5 -46.5 9.5h-12c-17.333 0 -33.333 -3.16699 -48 -9.5s-27.334 -15 -38.001 -26s-19 -24 -25 -39s-9 -31.167 -9 -48.5v-169c0 -38 11 -68 33 -90s51 -33 87 -33h11c35.333 0 64.166 11 86.499 33s33.5 52 33.5 90v169zM215 624h-76v83
h76v-83zM361 624h-75v83h75v-83z" />
    <glyph glyph-name="Ugravesmall" unicode="&#xf7f9;" horiz-adv-x="528" 
d="M395 539l75.001 -0.000976562v-356c0 -62 -17.5 -109.167 -52.5 -141.5s-81.167 -48.5 -138.5 -48.5c-28.667 0 -54.834 4.5 -78.501 13.5s-44 21.667 -61 38s-30.167 36.333 -39.5 60s-14 49.834 -14 78.501v356h75v-356c0 -40 10.833 -70 32.5 -90s50.167 -30 85.5 -30
c37.333 0 66 10 86 30s30 50 30 90v356zM227.001 756.999l80 -148l-43 -36l-91 142z" />
    <glyph glyph-name="Uacutesmall" unicode="&#xf7fa;" horiz-adv-x="528" 
d="M395 539l75.001 -0.000976562v-356c0 -62 -17.5 -109.167 -52.5 -141.5s-81.167 -48.5 -138.5 -48.5c-28.667 0 -54.834 4.5 -78.501 13.5s-44 21.667 -61 38s-30.167 36.333 -39.5 60s-14 49.834 -14 78.501v356h75v-356c0 -40 10.833 -70 32.5 -90s50.167 -30 85.5 -30
c37.333 0 66 10 86 30s30 50 30 90v356zM304.001 750.999l52 -38l-92 -140l-42 33z" />
    <glyph glyph-name="Ucircumflexsmall" unicode="&#xf7fb;" horiz-adv-x="528" 
d="M395 539l75.001 -0.000976562v-356c0 -62 -17.5 -109.167 -52.5 -141.5s-81.167 -48.5 -138.5 -48.5c-28.667 0 -54.834 4.5 -78.501 13.5s-44 21.667 -61 38s-30.167 36.333 -39.5 60s-14 49.834 -14 78.501v356h75v-356c0 -40 10.833 -70 32.5 -90s50.167 -30 85.5 -30
c37.333 0 66 10 86 30s30 50 30 90v356zM264.001 742.999l107 -91l-29 -44l-78 62l-78 -61l-30 45z" />
    <glyph glyph-name="Udieresissmall" unicode="&#xf7fc;" horiz-adv-x="528" 
d="M395 539l75.001 -0.000976562v-356c0 -62 -17.5 -109.167 -52.5 -141.5s-81.167 -48.5 -138.5 -48.5c-28.667 0 -54.834 4.5 -78.501 13.5s-44 21.667 -61 38s-30.167 36.333 -39.5 60s-14 49.834 -14 78.501v356h75v-356c0 -40 10.833 -70 32.5 -90s50.167 -30 85.5 -30
c37.333 0 66 10 86 30s30 50 30 90v356zM229.001 623.999h-76v83h76v-83zM375.001 623.999h-75v83h75v-83z" />
    <glyph glyph-name="Yacutesmall" unicode="&#xf7fd;" horiz-adv-x="475" 
d="M112 538l125 -228l129 228h86l-178 -312v-226h-74v226l-175 312h87zM273 751l52 -38l-92 -140l-42 33z" />
    <glyph glyph-name="Ydieresissmall" unicode="&#xf7ff;" horiz-adv-x="475" 
d="M112 538l125 -228l129 228h86l-178 -312v-226h-74v226l-175 312h87zM199 624h-76v83h76v-83zM345 624h-75v83h75v-83z" />
    <glyph glyph-name="ffi" unicode="&#xfb03;" horiz-adv-x="707" 
d="M215 729c30 0 57.5 -5.33203 82.5 -15.999s47.833 -22.667 68.5 -36c11.333 14.667 27 28 47 40s44.667 18 74 18c13.333 0 28.166 -2.5 44.499 -7.5s32 -10.667 47 -17s28.833 -12.5 41.5 -18.5s22 -10 28 -12l-23 -65l-27.5 13.5c-11.667 5.66699 -24 11 -37 16
s-26.333 9.33301 -40 13s-26.167 5.5 -37.5 5.5c-25.333 0 -43.833 -7.83301 -55.5 -23.5s-17.5 -35.167 -17.5 -58.5v-91h87v-59h-88v-431h-75v431h-81v59h81v79c0 14 1.66699 28.333 5 43c-20 13.333 -41.167 24.666 -63.5 33.999s-42.5 14 -60.5 14
c-25.333 0 -43.166 -7 -53.499 -21s-15.5 -32.667 -15.5 -56v-93h74v-59h-74v-431h-75v431h-81v59h81v90c0 50 13 87.167 39 111.5s61 36.833 105 37.5zM566 490.001h75v-490h-75v490z" />
    <glyph glyph-name="ffl" unicode="&#xfb04;" horiz-adv-x="724" 
d="M225 729c25.333 0 49.8311 -4.5 73.498 -13.5s45.834 -20.167 66.501 -33.5c14.667 19.333 31.167 32.666 49.5 39.999s38.833 11 61.5 11c11.333 0 23.333 -1.33301 36 -4s25.334 -6 38.001 -10s25 -8.5 37 -13.5s23 -10.167 33 -15.5h27v-690h-75v640
c-16 8.66699 -32.833 15.334 -50.5 20.001s-32.834 7 -45.501 7c-25.333 0 -43.833 -8 -55.5 -24s-17.5 -36.333 -17.5 -61v-92h92v-59h-92v-431h-73v431h-74v59h74v86c0 9.33301 0.5 18.5 1.5 27.5s2.83301 17.167 5.5 24.5c-20.667 10.667 -40.667 18.667 -60 24
s-36.666 8 -51.999 8c-26 0 -44.167 -7 -54.5 -21s-15.5 -32.667 -15.5 -56v-93h75v-59h-75v-431h-74v431h-82v59h82v90c0 50 13 87.167 39 111.5s61 36.833 105 37.5z" />
    <glyph glyph-name=".null" horiz-adv-x="0" 
 />
    <glyph glyph-name="nonmarkingreturn" horiz-adv-x="218" 
 />
    <glyph glyph-name="glyph57" horiz-adv-x="587" 
d="M460 23c10 -15.333 21.8301 -26 35.4971 -32s30.167 -9 49.5 -9v-61c-17.333 0 -32.833 0.666992 -46.5 2s-26.167 4.33301 -37.5 9s-22 11 -32 19s-20 19 -30 33l-19 26c-15.333 -6.66699 -32.166 -11.167 -50.499 -13.5s-35.833 -3.5 -52.5 -3.5
c-32.667 0 -62.5 4.16699 -89.5 12.5s-50.167 21 -69.5 38s-34.5 38.333 -45.5 64s-16.5 55.5 -16.5 89.5v292c0 32 5.83301 60.333 17.5 85s27.834 45.667 48.501 63s44.834 30.5 72.501 39.5s57.5 13.5 89.5 13.5c33.333 0 63.833 -4.16699 91.5 -12.5
s51.5 -20.833 71.5 -37.5s35.5 -37.667 46.5 -63s16.5 -54.666 16.5 -87.999v-281c0 -29.333 -5.83301 -58.833 -17.5 -88.5s-28.5 -52.834 -50.5 -69.501zM276.997 63c10 0 21.167 1 33.5 3s23.166 5.66699 32.499 11l-75 115l52 38l77 -120c13.333 16 22.833 33 28.5 51
s8.5 38.333 8.5 61v268c0 45.333 -13.667 78.333 -41 99s-63.666 31 -108.999 31c-46 0 -82.833 -10.5 -110.5 -31.5s-41.5 -53.833 -41.5 -98.5v-281c0 -46 12.667 -81.833 38 -107.5s61 -38.5 107 -38.5z" />
    <glyph glyph-name="Q.alt" horiz-adv-x="556" 
d="M309 -62l200.002 -51.001l-9 -59l-261 58v100c-60 5.33301 -107 24 -141 56s-51 74.333 -51 127v339c0 31.333 6.33301 58.5 19 81.5s29.167 41.833 49.5 56.5s43.666 25.5 69.999 32.5s53.166 10.5 80.499 10.5h14c70 0 123.833 -16.5 161.5 -49.5
s56.5 -76.5 56.5 -130.5v-340c0 -28.667 -5.33301 -54 -16 -76s-24.667 -40.833 -42 -56.5s-37.5 -27.667 -60.5 -36s-46.5 -13.166 -70.5 -14.499v-48zM122.002 168.999c0 -20 3.83301 -37.167 11.5 -51.5s18 -26 31 -35s27.667 -15.667 44 -20s32.833 -6.5 49.5 -6.5h34
c40.667 -0.666992 72.667 9.5 96 30.5s35 49.5 35 85.5v336c0 20 -4.16699 37 -12.5 51s-19.333 25.5 -33 34.5s-29 15.5 -46 19.5s-34.167 6 -51.5 6h-14c-46 0 -81.5 -9.5 -106.5 -28.5s-37.5 -46.5 -37.5 -82.5v-339v0z" />
    <glyph glyph-name="y.alt" horiz-adv-x="416" 
d="M209 145l109 345l77 -6l-235 -722l-70 28l78 231l-147 465l78 4z" />
    <glyph glyph-name="k.alt" horiz-adv-x="461" 
d="M144 710l-0.00195312 -404.998l203 204l44 -53l-191 -188c38 -14 70 -34 96 -60s47.333 -52.833 64 -80.5s29.167 -53.5 37.5 -77.5s13.833 -40.667 16.5 -50h-80c-3.33301 10 -7.83301 22.167 -13.5 36.5s-12.5 29.166 -20.5 44.499s-17.167 30.666 -27.5 45.999
s-22.166 29 -35.499 41c-20 18.667 -37.667 31.5 -53 38.5s-28.666 10.833 -39.999 11.5v-218h-71v710h71z" />
    <glyph glyph-name="g.alt" horiz-adv-x="469" 
d="M131 291c0 -15.333 2.66602 -28.5 7.99902 -39.5s12.5 -19.833 21.5 -26.5s19.333 -11.5 31 -14.5s23.834 -4.5 36.501 -4.5c29.333 0 51.833 6.83301 67.5 20.5s23.5 33.834 23.5 60.501v69c0 16 -2.66699 29.167 -8 39.5s-12.333 18.666 -21 24.999
s-18.667 10.833 -30 13.5s-23 4 -35 4c-28.667 0 -51.5 -7.33301 -68.5 -22s-25.5 -34.667 -25.5 -60v-65v0zM116.999 19c-16.667 8 -28.4961 18.501 -35.4961 31.501s-10.5 28.167 -10.5 45.5c0 19.333 6 35 18 47s24.667 20.667 38 26c-24 14 -41.333 32.5 -52 55.5
s-16 46.833 -16 71.5v58c0 26 4.16699 48.333 12.5 67s20 34 35 46s32.5 20.833 52.5 26.5s42 8.5 66 8.5c16.667 0 33 -2.33301 49 -7s30.333 -9.66699 43 -15l95 41l20 -60l-70 -22c8.66699 -8.66699 15.667 -20.667 21 -36s8 -31.333 8 -48v-63
c0 -26.667 -4.33301 -49.667 -13 -69s-20.5 -35 -35.5 -47s-32.667 -20.833 -53 -26.5s-41.833 -8.5 -64.5 -8.5c-10.667 0 -20.5 0.333008 -29.5 1s-18.5 2.66699 -28.5 6c-8 -2.66699 -14.833 -7.66699 -20.5 -15s-8.5 -16 -8.5 -26c0 -13.333 3.66699 -23.5 11 -30.5
s18.666 -13.833 33.999 -20.5l215 -90v-70c0 -24.667 -4.33301 -45.5 -13 -62.5s-20.334 -30.833 -35.001 -41.5s-31.5 -18.334 -50.5 -23.001s-38.833 -7 -59.5 -7h-28c-48 0 -86.833 11.833 -116.5 35.5s-44.5 58.167 -44.5 103.5c0.666992 11.333 2.16699 21.333 4.5 30
s5.16602 16.667 8.49902 24l65 -18c-3.33301 -10 -5 -20.333 -5 -31c0 -16 2.83301 -29.167 8.5 -39.5s13.167 -18.5 22.5 -24.5s20 -10 32 -12s24.333 -3 37 -3h16c25.333 0 45.666 5.5 60.999 16.5s23.333 29.5 24 55.5v32z" />
    <glyph glyph-name="e.alt" horiz-adv-x="429" 
d="M235 62c22.667 0 44.498 4.49707 65.498 13.4971s37.833 20.833 50.5 35.5l40 -48c-21.333 -22.667 -46.166 -40 -74.499 -52s-55.833 -18 -82.5 -18c-27.333 0 -52.5 3.83301 -75.5 11.5s-42.667 18.834 -59 33.501s-29.166 32.834 -38.499 54.501s-14 46.167 -14 73.5
v180c0 26 4.83301 48.833 14.5 68.5s22.5 36 38.5 49s34.5 22.833 55.5 29.5s42.833 10 65.5 10c50.667 0 90.5 -14.333 119.5 -43s43.5 -66.667 43.5 -114v-111h-262v-69c0 -19.333 3.16699 -35.666 9.5 -48.999s14.833 -24 25.5 -32s22.667 -13.833 36 -17.5
s27.333 -5.5 42 -5.5zM220.998 433.997c-32 0 -56.5 -8.33301 -73.5 -25s-25.5 -39 -25.5 -67v-49h188v53c0 16 -2.5 29.667 -7.5 41s-11.667 20.5 -20 27.5s-17.833 12 -28.5 15s-21.667 4.5 -33 4.5z" />
    <glyph glyph-name="germandbls.alt" horiz-adv-x="565" 
d="M173 0l-73.002 0.00195312v411h-58v69h58v86c0 62 14.5 106.167 43.5 132.5s70.167 39.5 123.5 39.5c30 0 56.5 -4.5 79.5 -13.5s42 -21.5 57 -37.5s26.333 -35.167 34 -57.5s11.5 -46.5 11.5 -72.5l-81 -150c13.333 -4.66699 27.333 -11.334 42 -20.001
s28.167 -20.334 40.5 -35.001s22.5 -32.334 30.5 -53.001s12 -45 12 -73v-87c0 -27.333 -3.83301 -50.666 -11.5 -69.999s-18.334 -35 -32.001 -47s-30 -20.833 -49 -26.5s-39.833 -8.5 -62.5 -8.5c-30 0 -56.167 6.16699 -78.5 18.5s-39.833 27.5 -52.5 45.5l35 58
c7.33301 -14.667 19.5 -27.667 36.5 -39s37.5 -17 61.5 -17c8 0 16.5 1 25.5 3s17.5 6.16699 25.5 12.5s14.5 15.166 19.5 26.499s7.5 26.333 7.5 45v87c0 30 -6 53.833 -18 71.5s-26.167 31.334 -42.5 41.001s-33 16.167 -50 19.5s-30.167 5 -39.5 5l104 200
c-0.666992 14 -3.66699 27.333 -9 40s-12.666 23.667 -21.999 33s-20.166 16.833 -32.499 22.5s-25.5 8.5 -39.5 8.5c-35.333 0 -60.166 -9 -74.499 -27s-21.5 -43 -21.5 -75v-566z" />
    <glyph glyph-name="germandbls.alt2" horiz-adv-x="522" 
d="M154 0l-71.998 0.00292969v561c0 64 14.5 109.667 43.5 137s70.833 41 125.5 41c58 0 103.667 -16 137 -48s50 -79.667 50 -143c-14.667 -16.667 -27.334 -31.834 -38.001 -45.501s-19.167 -26.5 -25.5 -38.5s-11 -24 -14 -36s-4.5 -25 -4.5 -39s1.16699 -25.5 3.5 -34.5
s5.5 -16.667 9.5 -23s9 -12.166 15 -17.499l19 -17c12.667 -10 24 -20 34 -30s18.5 -20.833 25.5 -32.5s12.333 -24.834 16 -39.501s5.5 -31.667 5.5 -51c0 -56 -14.167 -95.833 -42.5 -119.5s-67.166 -35.834 -116.499 -36.501c-30 0 -56.167 6.33301 -78.5 19
s-39.833 27 -52.5 43l37 59c10 -15.333 22.667 -28.166 38 -38.499s34.666 -15.5 57.999 -15.5c28 0 49.167 7.83301 63.5 23.5s21.5 36.834 21.5 63.501c0 17.333 -1.5 31.333 -4.5 42s-7.16699 19.667 -12.5 27s-11.5 13.833 -18.5 19.5l-22.5 18.5
c-12 10 -22.667 19.5 -32 28.5s-17.333 18.833 -24 29.5s-11.834 22.667 -15.501 36s-5.5 28.666 -5.5 45.999s1.66699 33.166 5 47.499s8.5 28 15.5 41s15.833 26 26.5 39s23 26.833 37 41.5c0 22 -3 40 -9 54s-14 25.333 -24 34s-21.333 14.667 -34 18s-26 5 -40 5
c-36.667 0 -62.5 -9.83301 -77.5 -29.5s-22.5 -45.834 -22.5 -78.501v-561z" />
    <glyph glyph-name="zero.small" horiz-adv-x="551" 
d="M275 554c66.667 0 117.167 -17.833 151.5 -53.5s51.5 -83.167 51.5 -142.5v-177c0 -32.667 -5.16699 -61.167 -15.5 -85.5s-24.5 -44.5 -42.5 -60.5s-39.333 -27.833 -64 -35.5s-51.667 -11.5 -81 -11.5c-66.667 0 -117 17.333 -151 52s-51 81.667 -51 141v177
c0 33.333 5 62.333 15 87s24 45 42 61s39.333 28 64 36s51.667 12 81 12zM403 358c0 44.667 -12 77 -36 97s-54.667 30 -92 30c-44 0 -76.333 -11.667 -97 -35s-31 -54 -31 -92v-177c0 -20.667 3.66699 -38.667 11 -54s17 -28 29 -38s25.667 -17.5 41 -22.5
s31 -8.16699 47 -9.5c43.333 0 75.5 11.167 96.5 33.5s31.5 52.5 31.5 90.5v177z" />
    <glyph glyph-name="one.small" horiz-adv-x="316" 
d="M151 470h-104v70h179v-540h-75v470z" />
    <glyph glyph-name="two.small" horiz-adv-x="502" 
d="M308 216l-46.5029 -32.999c-14.333 -10.667 -27 -21.667 -38 -33s-19.833 -23.5 -26.5 -36.5s-10.667 -27.833 -12 -44.5h261v-69h-354v26c0 28 2.83301 52.833 8.5 74.5s14.834 41.667 27.501 60s28.5 35.833 47.5 52.5s41.833 34 68.5 52l41.5 28.5
c13 9 24.167 18.167 33.5 27.5s16.833 19.333 22.5 30s8.5 22.667 8.5 36c0 29.333 -7.33301 51.166 -22 65.499s-34.667 21.5 -60 21.5c-24.667 0 -49.5 -6.66699 -74.5 -20s-45.833 -32.666 -62.5 -57.999l-52 51c11.333 16 24.333 30.5 39 43.5s30.167 24 46.5 33
s32.833 15.833 49.5 20.5s33 7 49 7c24.667 0 47.334 -2.66699 68.001 -8s38.5 -14 53.5 -26s26.667 -27.333 35 -46s12.5 -41.334 12.5 -68.001c0 -24.667 -3.16699 -46 -9.5 -64s-15 -34 -26 -48s-24.167 -27 -39.5 -39s-31.666 -24 -48.999 -36z" />
    <glyph glyph-name="three.small" horiz-adv-x="498" 
d="M414 381c0 -26.667 -6.99902 -48.668 -20.999 -66.001s-32.333 -30 -55 -38c22 -7.33301 41.167 -20.666 57.5 -39.999s24.5 -43 24.5 -71v-33c0 -24.667 -4.83301 -45.834 -14.5 -63.501s-22.5 -32.167 -38.5 -43.5s-34.5 -19.833 -55.5 -25.5s-43.167 -8.5 -66.5 -8.5
c-20 0 -39.5 2.33301 -58.5 7s-36.333 12 -52 22s-28.834 23 -39.501 39s-18 35.333 -22 58l61 27c0.666992 -14.667 4.33398 -27.334 11.001 -38.001s15.167 -19.5 25.5 -26.5s21.666 -12.333 33.999 -16s24.5 -5.5 36.5 -5.5c13.333 0 26.166 1.33301 38.499 4
s23.333 7 33 13s17.5 14 23.5 24s9 22.333 9 37v33c0 13.333 -3.5 24.666 -10.5 33.999s-16 17 -27 23s-23.167 10.5 -36.5 13.5s-26 4.5 -38 4.5h-63v67h61c13.333 0 26.5 0.666992 39.5 2s24.5 4.33301 34.5 9s18.167 11.334 24.5 20.001s9.5 20.334 9.5 35.001v28
c0 27.333 -9.16699 46.5 -27.5 57.5s-40.166 16.5 -65.499 16.5c-28 0 -52 -7.66699 -72 -23s-31.333 -37 -34 -65l-59 31c4 20 11.5 37.667 22.5 53s24.167 28.333 39.5 39s32.5 18.834 51.5 24.501s38.833 8.5 59.5 8.5c23.333 0 44.833 -2.66699 64.5 -8
s36.5 -13.5 50.5 -24.5s25 -25.167 33 -42.5s12 -38 12 -62v-30z" />
    <glyph glyph-name="four.small" horiz-adv-x="506" 
d="M376 210h86v-69h-86v-140h-74v140h-230v48l187 351h117v-330zM302 468h-6l-136 -258h142v258z" />
    <glyph glyph-name="five.small" horiz-adv-x="520" 
d="M273 344c58.667 0 101 -11.667 127 -35s39 -58.666 39 -105.999v-61c0 -28.667 -4 -52.667 -12 -72s-19.5 -35 -34.5 -47s-32.833 -20.5 -53.5 -25.5s-43.667 -7.5 -69 -7.5c-105.333 0 -162 48 -170 144l75 17c0 -36 8.83301 -60.667 26.5 -74s40.5 -20 68.5 -20
c36 0 60.667 6.66699 74 20s20 35 20 65v56c0 31.333 -9 52.166 -27 62.499s-42 15.5 -72 15.5h-142l23 264h263v-69h-195l-8 -127h67v0z" />
    <glyph glyph-name="six.small" horiz-adv-x="503" 
d="M273 353c50.667 0 89.5 -11.832 116.5 -35.499s40.5 -61.834 40.5 -114.501v-58c0 -52.667 -15.833 -91.667 -47.5 -117s-72.834 -38 -123.501 -38c-52 0 -93.167 12.333 -123.5 37s-45.5 64 -45.5 118v248c0 50 14.833 88.667 44.5 116s68.5 41 116.5 41
c30 0 57.5 -6 82.5 -18s48.167 -29.667 69.5 -53l-40 -53c-13.333 14.667 -30.166 27.5 -50.499 38.5s-39.5 16.5 -57.5 16.5c-28 0 -50.167 -7 -66.5 -21s-24.5 -36.333 -24.5 -67v-90c13.333 16 29.833 28.333 49.5 37s39.5 13 59.5 13zM355 196.001
c0 30 -7.33301 52 -22 66s-36.334 21 -65.001 21c-30.667 0 -55.667 -9.33301 -75 -28s-29 -44 -29 -76v-34c0 -30.667 8.5 -52.667 25.5 -66s40.167 -20 69.5 -20c28.667 0 51.834 6.5 69.501 19.5s26.5 35.167 26.5 66.5v51z" />
    <glyph glyph-name="seven.small" horiz-adv-x="391" 
d="M25 540h337l-173 -540h-79l148 471h-233v69z" />
    <glyph glyph-name="eight.small" horiz-adv-x="503" 
d="M411 390c0 -26 -7.83301 -48.6689 -23.5 -68.002s-35.5 -33.333 -59.5 -42c26 -9.33301 48.167 -24.833 66.5 -46.5s27.5 -46.167 27.5 -73.5v-35c0 -24 -4.66699 -44.5 -14 -61.5s-22 -31 -38 -42s-34.333 -19 -55 -24s-42.334 -7.5 -65.001 -7.5
c-24 0 -46.167 2.5 -66.5 7.5s-38 12.833 -53 23.5s-26.833 24.667 -35.5 42s-13 38 -13 62v32c0 28.667 8.16699 54.334 24.5 77.001s38.5 37.667 66.5 45c-25.333 9.33301 -45.166 23 -59.499 41s-21.5 41 -21.5 69v31c0 44.667 14.667 77.834 44 99.501
s67.333 32.5 114 32.5c23.333 0 44.833 -2.66699 64.5 -8s36.667 -13.5 51 -24.5s25.5 -24.667 33.5 -41s12 -35.833 12 -58.5v-30v0zM346 153.998c0 30.667 -8.33301 53.5 -25 68.5s-40 22.5 -70 22.5s-53.333 -6.5 -70 -19.5s-25 -35.833 -25 -68.5v-24
c0 -30 8.83301 -50.667 26.5 -62s40.5 -17 68.5 -17c27.333 0 50 5.5 68 16.5s27 31.5 27 61.5v22zM167 390.998c0 -30.667 7.16797 -51.665 21.501 -62.998s35.166 -17 62.499 -17c26 0 46.667 6.16699 62 18.5s23 32.833 23 61.5v18
c0 27.333 -7.83301 46.666 -23.5 57.999s-36.167 17 -61.5 17c-28 0 -49 -5.33301 -63 -16s-21 -30.334 -21 -59.001v-18v0z" />
    <glyph glyph-name="nine.small" horiz-adv-x="501" 
d="M246 553c28 0 52.8311 -4.33105 74.498 -12.998s39.834 -20.5 54.501 -35.5s25.667 -32.833 33 -53.5s11 -43.334 11 -68.001v-225c0 -30 -4.33301 -55.667 -13 -77s-20.667 -38.833 -36 -52.5s-33.5 -23.5 -54.5 -29.5s-44.167 -9 -69.5 -9
c-32 0 -61.167 5.66699 -87.5 17s-48.5 27.666 -66.5 48.999l36 56c15.333 -18 33.666 -31.667 54.999 -41s42 -14 62 -14c34 0 59 8.5 75 25.5s24 41.5 24 73.5v69c-15.333 -18 -31.666 -30.333 -48.999 -37s-35.333 -10 -54 -10c-57.333 0 -99.666 15.667 -126.999 47
s-41 72 -41 122v37c0 28 4.33301 52.5 13 73.5s20.667 38.5 36 52.5s33.5 24.667 54.5 32s44.167 11 69.5 11zM343.998 384.002c0 34 -9.16504 59.167 -27.498 75.5s-41.833 24.5 -70.5 24.5c-34.667 0 -59.834 -9.5 -75.501 -28.5s-23.5 -42.833 -23.5 -71.5v-39
c0 -34 9.16699 -59 27.5 -75s42.166 -24 71.499 -24c34 0 58.833 9 74.5 27s23.5 42 23.5 72v39z" />
    <glyph glyph-name="h.alt" horiz-adv-x="494" 
d="M404 490l0.000976562 -490.001h-74v422h-63c-17.333 0 -33.333 -3.83301 -48 -11.5s-27.334 -17.667 -38.001 -30s-19 -26.166 -25 -41.499s-9 -30.666 -9 -45.999v-293h-74v710h74v-297c19.333 31.333 39.333 52.166 60 62.499s44 15.5 70 15.5z" />
    <glyph glyph-name="n.alt" horiz-adv-x="495" 
d="M405 490l0.000976562 -490h-75v419h-62c-17.333 0 -33.5 -3.83301 -48.5 -11.5s-27.833 -17.5 -38.5 -29.5s-19 -25.667 -25 -41s-9 -30.666 -9 -45.999v-291h-74v490h68l5 -82c19.333 31.333 39.166 52.666 59.499 63.999s44.5 17.333 72.5 18h127z" />
    <glyph glyph-name="E.alt" horiz-adv-x="496" 
d="M163 494c0 -30 8.5 -54.665 25.5 -73.998s41.5 -29 73.5 -29h57v-68h-59c-12.667 -0.666992 -25.834 -3.16699 -39.501 -7.5s-26 -10.833 -37 -19.5s-20 -19 -27 -31s-10.5 -25.667 -10.5 -41v-64c0 -30 11 -54.167 33 -72.5s50 -27.5 84 -27.5h44
c24 0 46.333 6.83301 67 20.5s37 30.5 49 50.5l56 -31c-16.667 -30.667 -39 -56.667 -67 -78s-63 -32 -105 -32h-44c-23.333 0 -46.833 3.66699 -70.5 11s-45 18.166 -64 32.499s-34.5 32 -46.5 53s-18 45.5 -18 73.5v65c0 13.333 2.83301 26.666 8.5 39.999
s13.167 25.833 22.5 37.5s20.166 22.167 32.499 31.5s25.5 17 39.5 23c-25.333 11.333 -46.333 28.833 -63 52.5s-25 52.167 -25 85.5v37c0 24 5.33301 45.833 16 65.5s24.834 36.5 42.501 50.5s37.834 24.667 60.501 32s45.667 11 69 11h26
c28.667 0 56.334 -7.16699 83.001 -21.5s49.334 -33.833 68.001 -58.5l-51 -48c-10.667 13.333 -24.334 26.333 -41.001 39s-36.334 19 -59.001 19h-27c-13.333 0 -26.166 -1.83301 -38.499 -5.5s-23.333 -9.16699 -33 -16.5s-17.334 -16.5 -23.001 -27.5
s-8.5 -24.167 -8.5 -39.5v-38z" />
    <glyph glyph-name="a.alt" horiz-adv-x="437" 
d="M232 505c31.333 0 56.1631 -3.83496 74.4961 -11.502s32.5 -18.167 42.5 -31.5s16.5 -29.166 19.5 -47.499s4.5 -38.166 4.5 -59.499v-355h-62l-5 75c-13.333 -26.667 -32.166 -47.167 -56.499 -61.5s-51.5 -21.5 -81.5 -21.5c-24 0 -43.833 3.16699 -59.5 9.5
s-28 14.833 -37 25.5s-15.333 23.5 -19 38.5s-5.5 30.833 -5.5 47.5v42c0 31.333 8.5 56.666 25.5 75.999s38 34.333 63 45s52 18.167 81 22.5s55.833 6.83301 80.5 7.5v47c0 17.333 -1.16699 31.5 -3.5 42.5s-6.16602 19.5 -11.499 25.5s-12.5 10.167 -21.5 12.5
s-20.5 3.5 -34.5 3.5c-11.333 0 -23.166 -1.5 -35.499 -4.5s-24.166 -6.66699 -35.499 -11s-21.833 -9.16602 -31.5 -14.499s-17.5 -10.333 -23.5 -15l-28 58c10 8 21.333 15.333 34 22s26.167 12.5 40.5 17.5s28.833 8.83301 43.5 11.5s28.667 4 42 4zM296.997 253.998
c-22.667 -1.33301 -44.499 -3.83301 -65.499 -7.5s-39.667 -9.33398 -56 -17.001s-29.333 -17.667 -39 -30s-14.5 -27.5 -14.5 -45.5v-38c0 -16 5.33301 -29.167 16 -39.5s26 -15.5 46 -15.5c15.333 0 29.666 3.66699 42.999 11s25.333 16.5 36 27.5s19 22.833 25 35.5
s9 24.334 9 35.001v84z" />
    <glyph glyph-name="Ssmall.alt" horiz-adv-x="439" 
d="M388 226l0.000976562 -82.001c0 -27.333 -5 -50.666 -15 -69.999s-23 -35 -39 -47s-34.333 -20.833 -55 -26.5s-42 -8.5 -64 -8.5c-38.667 0 -72.334 8 -101.001 24s-52 39 -70 69l50 50c13.333 -23.333 30.166 -41.666 50.499 -54.999s42.833 -20 67.5 -20
c31.333 0 56.166 6 74.499 18s27.5 33 27.5 63v50l-247 108v100c0 26 4.83301 48.167 14.5 66.5s22.5 33.333 38.5 45s34.333 20 55 25s41.667 7.5 63 7.5c16 0 31.167 -2.33301 45.5 -7s28 -10.834 41 -18.501s24.833 -16 35.5 -25s20.334 -18.167 29.001 -27.5l-50 -49
c-10 15.333 -24.5 28.833 -43.5 40.5s-39.167 17.5 -60.5 17.5c-9.33301 0 -19.5 -1 -30.5 -3s-21.167 -5.66699 -30.5 -11s-17.166 -12.833 -23.499 -22.5s-9.5 -22.5 -9.5 -38.5v-65z" />
    <glyph glyph-name="s.alt" horiz-adv-x="380" 
d="M350 204l-0.00390625 -71c0 -46 -13 -81.333 -39 -106s-62.667 -37 -110 -37c-35.333 0 -67.166 7.33301 -95.499 22s-52.166 33.667 -71.499 57l48 52c8 -10.667 17.167 -20 27.5 -28s21.166 -14.667 32.499 -20s22.333 -9.5 33 -12.5s20.334 -4.5 29.001 -4.5
c26.667 0 45.334 5.83301 56.001 17.5s16 28.167 16 49.5v45l-216 111v88c0 41.333 12.667 73.833 38 97.5s61.333 35.5 108 35.5c28.667 0 54.167 -6 76.5 -18s44.166 -27.667 65.499 -47l-44 -51c-17.333 16 -33.166 28 -47.499 36s-30.166 12 -47.499 12
c-24 0 -42.667 -4.83301 -56 -14.5s-20 -26.167 -20 -49.5v-56z" />
    <glyph glyph-name="S.alt" horiz-adv-x="481" 
d="M439 273v-109.001c0 -29.333 -5 -54.833 -15 -76.5s-24 -39.667 -42 -54s-39.167 -25 -63.5 -32s-51.166 -10.5 -80.499 -10.5c-21.333 0 -42.333 2.5 -63 7.5s-40.167 12.333 -58.5 22s-35.333 21.834 -51 36.501s-28.834 31.667 -39.501 51l62 44
c11.333 -28 30.166 -50.167 56.499 -66.5s56.833 -24.5 91.5 -24.5c39.333 0 70.333 7.16699 93 21.5s34 41.833 34 82.5v72l-299 172v110c0 57.333 17.833 100.166 53.5 128.499s82.5 42.5 140.5 42.5c36 0 70.667 -8.16699 104 -24.5s62.666 -41.166 87.999 -74.499
l-54 -51c-17.333 23.333 -38.666 42.5 -63.999 57.5s-51.666 22.5 -78.999 22.5c-36 0 -63.833 -7.66699 -83.5 -23s-29.5 -41 -29.5 -77v-80z" />
    <glyph glyph-name="ft" horiz-adv-x="565" 
d="M464 65c9.33301 -0.666992 21 0.666016 35 3.99902s26.667 8.33301 38 15l20 -55c-13.333 -9.33301 -30 -17 -50 -23s-38.333 -9 -55 -9c-43.333 0 -73 10.5 -89 31.5s-24 51.5 -24 91.5v311h-80v59h80v144c-13.333 8 -30.333 16.333 -51 25s-41.667 13 -63 13
c-25.333 0 -43.333 -7.66699 -54 -23s-16 -34 -16 -56v-103h75v-59h-75v-431h-74v431h-82v59h82v103c0 49.333 13 86.166 39 110.499s61 36.5 105 36.5c16 0 32.5 -1.83301 49.5 -5.5s33.833 -8.5 50.5 -14.5s32.667 -12.667 48 -20s29.333 -14.666 42 -21.999v-188h107v-59
h-108v-306c0 -12.667 1.83301 -23 5.5 -31s8 -14.167 13 -18.5s10.5 -7.16602 16.5 -8.49902s11 -2 15 -2z" />
    <glyph glyph-name="glyph330" horiz-adv-x="540" 
d="M103 -74l312 836h59l-309 -836h-62zM289 690c31.333 0 60.3311 -4.66504 86.998 -13.998s50 -22.833 70 -40.5s35.667 -38.834 47 -63.501s17 -52.334 17 -83.001v-298c0 -32 -5.66699 -60.333 -17 -85s-26.833 -45.667 -46.5 -63s-43 -30.5 -70 -39.5
s-56.167 -13.5 -87.5 -13.5h-12c-32 0 -61.667 4.5 -89 13.5s-50.666 22 -69.999 39s-34.5 38 -45.5 63s-16.5 53.5 -16.5 85.5v298c0 30 5.66699 57.5 17 82.5s27 46.167 47 63.5s43.333 30.833 70 40.5s55.334 14.5 86.001 14.5h13v0zM433.998 488.002
c0 19.333 -3.83398 37.166 -11.501 53.499s-18.167 30.333 -31.5 42s-28.666 20.667 -45.999 27s-36 9.5 -56 9.5h-13c-20 0 -38.667 -3.16699 -56 -9.5s-32.5 -15.166 -45.5 -26.499s-23.333 -25 -31 -41s-11.5 -34 -11.5 -54v-298c0 -42.667 13.5 -75.167 40.5 -97.5
s61.833 -33.5 104.5 -33.5h12c42.667 0 77.5 11 104.5 33s40.5 54.667 40.5 98v297z" />
    <glyph glyph-name="glyph331" horiz-adv-x="433" 
d="M208 501c24.667 0 47.665 -3.66699 68.998 -11s39.833 -18 55.5 -32s28 -31 37 -51s13.5 -42.667 13.5 -68v-187c0 -26 -4.33301 -49 -13 -69s-20.667 -36.833 -36 -50.5s-33.833 -24.167 -55.5 -31.5s-45.167 -11 -70.5 -11c-52 0 -94.5 14 -127.5 42
s-49.5 68 -49.5 120v187c0 25.333 4.33301 48 13 68s20.834 37 36.501 51s34.334 24.667 56.001 32s45.5 11 71.5 11zM306.998 340c0 32 -8.50098 55.168 -25.501 69.501s-41.5 21.5 -73.5 21.5c-31.333 0 -56 -7.83301 -74 -23.5s-27 -38.5 -27 -68.5v-186
c0 -32.667 8.66699 -56.334 26 -71.001s42.333 -22 75 -22c30.667 0 54.834 7.5 72.501 22.5s26.5 38.167 26.5 69.5v188zM51.9971 -65.999l271 612h48l-267 -612h-52z" />
    <glyph glyph-name="glyph333" horiz-adv-x="689" 
d="M223 502c48.667 0 83.667 -12.3281 105 -36.9951s32 -65.334 32 -122.001l-34 -250c-6.66699 -20 -15.167 -36.5 -25.5 -49.5s-21.833 -23.5 -34.5 -31.5s-26 -13.5 -40 -16.5s-28.333 -4.5 -43 -4.5c-42.667 0 -76 10.5 -100 31.5s-36 52.833 -36 95.5v122l251 41v69
c0 31.333 -6.16699 53.166 -18.5 65.499s-33.833 18.5 -64.5 18.5c-8.66699 0 -18.834 -1.5 -30.501 -4.5s-23.5 -7 -35.5 -12s-23.667 -10.5 -35 -16.5s-20.666 -11.667 -27.999 -17l-29 59c10 7.33301 22 14.666 36 21.999s28.667 13.666 44 18.999
s30.5 9.66602 45.5 12.999s28.5 5 40.5 5zM299 223.005l-177.002 -28v-74c0 -22.667 7.33301 -38.667 22 -48s33.334 -14 56.001 -14c26.667 0 49.834 7.66699 69.501 23s29.5 37 29.5 65v76zM487.998 58.0049c20 0 38.835 3.83496 56.502 11.502s36.167 20.167 55.5 37.5
l42 -53c-22.667 -22.667 -46.834 -39 -72.501 -49s-53.834 -15 -84.501 -15c-58 0 -102.833 14 -134.5 42s-47.5 71 -47.5 129l6 164c0 25.333 3.83301 48.666 11.5 69.999s18.5 39.666 32.5 54.999s31 27.333 51 36s42.667 13 68 13c48.667 0 88 -12.833 118 -38.5
s45 -66.5 45 -122.5v-70l-262 -38v-64c0 -34 10.667 -60.5 32 -79.5s49 -28.5 83 -28.5zM472 429.007c-28 0 -51.5 -9.33203 -70.5 -27.999s-28.5 -42.334 -28.5 -71.001v-43l187 25v37c0 25.333 -7.83301 45 -23.5 59s-37.167 21 -64.5 21z" />
    <glyph glyph-name="Qtounge" horiz-adv-x="650" 
d="M328 194l49.001 34.002l139 -209c18 -29.333 48.333 -44 91 -44v-54c-16.667 0 -31.834 0.666992 -45.501 2s-26.167 4.16602 -37.5 8.49902s-21.833 10.666 -31.5 18.999s-19.167 19.5 -28.5 33.5z" />
    </font>
</defs>
</svg>
